<svg width="1090" height="528" viewBox="0 0 1109 558" fill="none" xmlns="http://www.w3.org/2000/svg">
<g filter="url(#filter0_iif_233_869)">
<path fill-rule="evenodd" clip-rule="evenodd" d="M544.241 104.776C573.607 102.652 601.689 95.1831 629.535 104.776C656.535 114.077 662.888 149.935 679.974 172.88C696.548 195.135 719.902 212.524 729.249 238.675C738.972 265.879 734.683 316.446 729.249 344.828C723.732 373.643 1027.63 420.217 1007.5 441.5C987.794 462.335 716.565 443.588 689.689 453.479C664.564 462.726 556.721 454.952 530 453.479C503.815 452.036 433.064 458.266 403.856 453.479C375.811 453.479 118.17 461.378 101.5 441.5C84.6596 421.417 372.503 370.047 365.258 344.828C357.745 318.68 360.311 266.455 365.258 239.698C370.262 212.626 386.424 189.177 403.856 167.913C421.143 146.823 440.058 124.273 466.174 116.591C491.91 109.021 517.492 106.71 544.241 104.776Z" fill="#A9B1F9"/>
</g>
<defs>
<filter id="filter0_iif_233_869" x="0.789062" y="0" width="1107.67" height="557.936" filterUnits="userSpaceOnUse" color-interpolation-filters="sRGB">
<feFlood flood-opacity="0" result="BackgroundImageFix"/>
<feBlend mode="normal" in="SourceGraphic" in2="BackgroundImageFix" result="shape"/>
<feColorMatrix in="SourceAlpha" type="matrix" values="0 0 0 0 0 0 0 0 0 0 0 0 0 0 0 0 0 0 127 0" result="hardAlpha"/>
<feOffset dx="10" dy="10"/>
<feGaussianBlur stdDeviation="2"/>
<feComposite in2="hardAlpha" operator="arithmetic" k2="-1" k3="1"/>
<feColorMatrix type="matrix" values="0 0 0 0 0 0 0 0 0 0 0 0 0 0 0 0 0 0 0.5 0"/>
<feBlend mode="normal" in2="shape" result="effect1_innerShadow_233_869"/>
<feColorMatrix in="SourceAlpha" type="matrix" values="0 0 0 0 0 0 0 0 0 0 0 0 0 0 0 0 0 0 127 0" result="hardAlpha"/>
<feOffset dy="10"/>
<feGaussianBlur stdDeviation="2"/>
<feComposite in2="hardAlpha" operator="arithmetic" k2="-1" k3="1"/>
<feColorMatrix type="matrix" values="0 0 0 0 0 0 0 0 0 0 0 0 0 0 0 0 0 0 0.25 0"/>
<feBlend mode="normal" in2="effect1_innerShadow_233_869" result="effect2_innerShadow_233_869"/>
<feGaussianBlur stdDeviation="50" result="effect3_foregroundBlur_233_869"/>
</filter>
</defs>
</svg>
