<svg width="258" height="195" viewBox="0 0 258 195" fill="none" xmlns="http://www.w3.org/2000/svg">
<line y1="-1" x2="40.1972" y2="-1" transform="matrix(-0.0701977 0.997533 -0.997532 -0.0702068 140.602 127.996)" stroke="#B2949A" stroke-width="2"/>
<line y1="-1" x2="41.3759" y2="-1" transform="matrix(-0.828578 -0.559873 0.559861 -0.828587 204.012 139.556)" stroke="#B2949A" stroke-width="2"/>
<ellipse cx="143.356" cy="168.636" rx="6.55188" ry="3.27599" transform="rotate(-15 143.356 168.636)" fill="#F42951"/>
<ellipse cx="6.5519" cy="3.27597" rx="6.5519" ry="3.27597" transform="matrix(0.707102 -0.707111 0.707102 0.707111 199.137 140.723)" fill="#F42951"/>
<path d="M155.856 42.2199C155.856 42.2199 99.9505 76.9251 107.474 99.0807C114.066 118.491 134.447 124.111 154.611 121.568C178.853 118.51 199.386 99.653 196.788 75.1491C195.159 59.7818 187.602 50.8214 174.781 42.2956C155.363 29.3826 116.295 23.9277 106.17 44.9375C97.5502 62.8238 116.076 85.6041 134.912 91.7287C148.295 96.0802 169.63 82.4261 169.63 82.4261C175.792 76.5696 184.915 70.7797 180.458 63.4798C176.101 56.3461 166.671 60.0869 159.217 63.722C146.368 69.9876 134.877 94.7156 148.556 98.9713C155.816 101.23 162.653 99.9581 167.315 93.9449C175.066 83.9469 154.363 72.5076 141.82 73.8327C130.254 75.0545 120.104 83.727 121.193 95.4047C122.426 108.622 138.488 111.618 151.583 110.27C174.975 107.862 148.524 58.9497 125.225 55.5742C114.231 53.9815 105.188 52.0451 95.8573 61.3241C79.4479 77.6424 90.1953 107.209 108.187 121.898C129.645 139.416 178.409 115.191 178.409 115.191C178.409 115.191 206.618 77.083 197.574 53.4442C189.133 31.3823 162.72 31.2898 139.768 35.935C115.448 40.8572 120.092 51.3639 105.12 71.2543C96.3489 82.9064 92.1149 88.8069 91.2352 103.432C90.0597 122.976 132.825 115.296 132.825 115.296C132.825 115.296 220.191 112.386 205.672 83.6671C201.149 74.7205 171.007 69.6449 171.007 69.6449" stroke="#B2949A" stroke-width="3" stroke-linecap="round"/>
<path d="M143.266 79.1219C144.327 83.0798 144.442 86.8636 143.795 89.7725C143.141 92.7081 141.752 94.6111 139.926 95.1005C138.099 95.5899 135.945 94.6363 133.911 92.4208C131.896 90.2255 130.104 86.8908 129.043 82.9329C127.983 78.975 127.867 75.1912 128.515 72.2823C129.169 69.3467 130.558 67.4437 132.384 66.9543C134.21 66.4649 136.365 67.4185 138.399 69.6339C140.414 71.8293 142.206 75.164 143.266 79.1219Z" fill="white" stroke="black"/>
<path d="M143.011 83.2598C143.696 85.818 143.756 88.2585 143.322 90.1272C142.883 92.0196 141.978 93.1935 140.845 93.4971C139.712 93.8006 138.341 93.2366 137.015 91.8174C135.705 90.416 134.536 88.2724 133.851 85.7141C133.165 83.1559 133.105 80.7154 133.539 78.8467C133.979 76.9542 134.884 75.7804 136.017 75.4768C137.149 75.1733 138.52 75.7373 139.847 77.1565C141.157 78.5579 142.325 80.7015 143.011 83.2598Z" fill="black" stroke="black"/>
<path d="M167.104 74.769C168.024 78.2026 168.124 81.4821 167.563 83.9994C166.997 86.5433 165.799 88.1675 164.246 88.5836C162.693 88.9996 160.843 88.1922 159.081 86.2723C157.336 84.3725 155.783 81.4828 154.863 78.0491C153.943 74.6155 153.843 71.3361 154.404 68.8188C154.97 66.2749 156.169 64.6507 157.721 64.2346C159.274 63.8185 161.124 64.6259 162.887 66.5458C164.631 68.4456 166.184 71.3354 167.104 74.769Z" fill="white" stroke="black"/>
<path d="M166.886 78.3661C167.479 80.5824 167.53 82.6936 167.156 84.3062C166.776 85.9426 165.999 86.9336 165.048 87.1883C164.098 87.443 162.929 86.9733 161.782 85.7461C160.652 84.5368 159.64 82.6829 159.046 80.4666C158.453 78.2503 158.401 76.1392 158.776 74.5266C159.156 72.8902 159.933 71.8992 160.883 71.6445C161.834 71.3898 163.003 71.8595 164.15 73.0866C165.28 74.296 166.292 76.1499 166.886 78.3661Z" fill="black" stroke="black"/>
</svg>
