<svg width="265" height="436" viewBox="0 0 265 436" fill="none" xmlns="http://www.w3.org/2000/svg">
<ellipse cx="246.5" cy="425.5" rx="54.5" ry="3.5" fill="#CBCBCB"/>
<path d="M228.238 418.834C210.935 417.894 184.053 419.653 184.053 414.743C184.054 412.177 182.008 405.437 182.008 399.197C183.644 394.288 184.053 388.151 184.053 388.151L305.97 386.105C305.97 386.105 317.834 386.105 314.97 394.288C312.107 402.47 307.048 406.399 301.06 411.88C297.17 415.441 291.241 418.834 289.605 417.198C287.969 415.562 252.966 420.179 228.238 418.834Z" fill="#FFB119" stroke="black"/>
<g filter="url(#filter0_d_251_1123)">
<path d="M294.515 401.242C297.875 404.397 300.006 406.459 300.244 411.061C300.38 413.693 299.83 415.273 298.607 417.607C296.661 421.322 294.549 423.389 290.425 424.153C279.379 426.198 272.546 425.38 260.559 425.38C256.877 425.38 253.139 424.68 250.74 421.289C248.949 418.756 248.982 416.616 249.104 413.516C249.401 405.911 254.873 402.33 261.377 398.378C267.405 394.716 271.955 393.541 278.969 394.287C285.583 394.991 289.667 396.689 294.515 401.242Z" fill="#FFF5F1"/>
<path d="M294.515 401.242C297.875 404.397 300.006 406.459 300.244 411.061C300.38 413.693 299.83 415.273 298.607 417.607C296.661 421.322 294.549 423.389 290.425 424.153C279.379 426.198 272.546 425.38 260.559 425.38C256.877 425.38 253.139 424.68 250.74 421.289C248.949 418.756 248.982 416.616 249.104 413.516C249.401 405.911 254.873 402.33 261.377 398.378C267.405 394.716 271.955 393.541 278.969 394.287C285.583 394.991 289.667 396.689 294.515 401.242Z" stroke="black"/>
</g>
<g filter="url(#filter1_d_251_1123)">
<path d="M168.508 381.606L171.372 375.878L321.517 375.878L322.744 378.742C322.744 378.742 313.757 388.373 308.016 388.97C276.623 392.231 264.185 392.235 233.871 392.242L233.557 392.243C214.698 392.248 204.14 391.015 185.282 391.015C178.327 391.015 168.508 381.606 168.508 381.606Z" fill="#FF8A00"/>
<path d="M168.508 381.606L171.372 375.878L321.517 375.878L322.744 378.742C322.744 378.742 313.757 388.373 308.016 388.97C276.623 392.231 264.185 392.235 233.871 392.242L233.557 392.243C214.698 392.248 204.14 391.015 185.282 391.015C178.327 391.015 168.508 381.606 168.508 381.606Z" stroke="black"/>
</g>
<path d="M156.23 344.784L153.775 346.83C153.775 346.83 151.359 344.426 152.548 343.557C153.702 342.714 156.23 344.784 156.23 344.784Z" stroke="black"/>
<g filter="url(#filter2_d_251_1123)">
<path d="M212.806 424.661C219.152 423.396 228.353 418.933 228.353 418.933C228.353 418.933 214.474 414.049 206.26 409.524C201.291 406.786 199.108 404.193 193.987 401.75C189.107 399.423 186.261 396.585 180.895 397.25C176.136 397.84 172.817 399.33 170.258 403.387C168.101 406.808 167.576 409.707 168.622 413.615C170.184 419.449 175.36 420.608 180.895 423.024C186.963 425.673 191.054 425.214 197.669 425.479C203.584 425.716 207.001 425.818 212.806 424.661Z" fill="#FFF5F1"/>
<path d="M212.806 424.661C219.152 423.396 228.353 418.933 228.353 418.933C228.353 418.933 214.474 414.049 206.26 409.524C201.291 406.786 199.108 404.193 193.987 401.75C189.107 399.423 186.261 396.585 180.895 397.25C176.136 397.84 172.817 399.33 170.258 403.387C168.101 406.808 167.576 409.707 168.622 413.615C170.184 419.449 175.36 420.608 180.895 423.024C186.963 425.673 191.054 425.214 197.669 425.479C203.584 425.716 207.001 425.818 212.806 424.661Z" stroke="black"/>
</g>
<g filter="url(#filter3_d_251_1123)">
<path d="M149.69 352.559C151.396 348.32 156.645 343.149 156.645 343.149L176.282 356.241C176.282 356.241 174.804 370.135 168.1 372.605C164.349 373.988 161.629 373.562 157.872 372.196C152.881 370.382 149.384 367.928 148.053 362.786C147.04 358.87 148.179 356.311 149.69 352.559Z" fill="#FFF5F1"/>
<path d="M149.69 352.559C151.396 348.32 156.645 343.149 156.645 343.149L176.282 356.241C176.282 356.241 174.804 370.135 168.1 372.605C164.349 373.988 161.629 373.562 157.872 372.196C152.881 370.382 149.384 367.928 148.053 362.786C147.04 358.87 148.179 356.311 149.69 352.559Z" stroke="black"/>
</g>
<g filter="url(#filter4_d_251_1123)">
<path d="M181.598 345.603C187.326 331.284 185.031 327.147 181.598 324.738C178.368 322.471 172.189 321.056 172.189 321.056L185.689 322.692L213.927 322.692C213.927 322.692 256.382 299.913 284.92 301.012C295.736 301.429 306.337 310.607 315.379 316.556C318.405 318.546 314.604 318.336 315.379 321.874C316.115 325.236 319.061 330.875 319.061 330.875C324.38 348.467 325.198 377.105 325.198 377.105C325.198 377.105 320.84 381.272 311.697 382.014C283.025 384.342 222.51 384.878 218.827 384.878C215.145 384.878 211.25 385.018 207.372 384.469C198.988 383.283 193.826 384.768 185.689 382.423C179.99 380.781 170.961 376.696 170.961 376.696C170.961 376.696 171.459 369.332 173.416 364.831C177.507 355.422 175.871 359.922 181.598 345.603Z" fill="#FFB119"/>
<path d="M181.598 345.603C187.326 331.284 185.031 327.147 181.598 324.738C178.368 322.471 172.189 321.056 172.189 321.056L185.689 322.692L213.927 322.692C213.927 322.692 256.382 299.913 284.92 301.012C295.736 301.429 306.337 310.607 315.379 316.556C318.405 318.546 314.604 318.336 315.379 321.874C316.115 325.236 319.061 330.875 319.061 330.875C324.38 348.467 325.198 377.105 325.198 377.105C325.198 377.105 320.84 381.272 311.697 382.014C283.025 384.342 222.51 384.878 218.827 384.878C215.145 384.878 211.25 385.018 207.372 384.469C198.988 383.283 193.826 384.768 185.689 382.423C179.99 380.781 170.961 376.696 170.961 376.696C170.961 376.696 171.459 369.332 173.416 364.831C177.507 355.422 175.871 359.922 181.598 345.603Z" stroke="black"/>
</g>
<path d="M174.237 358.695C179.964 365.24 187.738 332.102 187.738 332.102C187.738 332.102 186.175 328.077 183.647 325.965C180.024 322.939 177.321 320.966 172.601 321.056C170.815 321.09 167.45 322.804 166.055 323.92C157.872 330.466 155.008 332.511 150.507 341.512C149.258 344.012 153.781 347.239 153.781 347.239C153.781 347.239 151.755 343.242 152.963 343.557C162.372 346.012 174.237 358.695 174.237 358.695Z" fill="#FF8A00" stroke="black"/>
<g filter="url(#filter5_d_251_1123)">
<path d="M257.859 328.943C256.524 320.89 257.858 302.759 257.858 302.759C257.858 302.759 285.515 296.778 300.816 302.759C308.912 305.924 314.646 306.854 317.59 315.033C321.272 325.261 321.272 327.306 324.136 337.943C324.902 340.788 324.954 341.332 324.954 344.605C324.954 351.795 315.71 339.209 308.18 336.423C301.287 333.872 296.833 334.275 289.77 336.307C280.772 338.895 282.815 338.352 276.269 344.489C275.098 345.587 271.69 350.195 270.132 349.807C261.521 347.663 259.311 337.697 257.859 328.943Z" fill="#FF8A00"/>
<path d="M257.859 328.943C256.524 320.89 257.858 302.759 257.858 302.759C257.858 302.759 285.515 296.778 300.816 302.759C308.912 305.924 314.646 306.854 317.59 315.033C321.272 325.261 321.272 327.306 324.136 337.943C324.902 340.788 324.954 341.332 324.954 344.605C324.954 351.795 315.71 339.209 308.18 336.423C301.287 333.872 296.833 334.275 289.77 336.307C280.772 338.895 282.815 338.352 276.269 344.489C275.098 345.587 271.69 350.195 270.132 349.807C261.521 347.663 259.311 337.697 257.859 328.943Z" stroke="black"/>
</g>
<g filter="url(#filter6_di_251_1123)">
<path d="M153.502 324.681C152.955 321.59 153.502 314.349 161.273 316.076C164.955 316.894 169.118 309.896 172.728 311.277C177.856 313.238 183.167 291.842 188.622 292.466C204.499 294.281 211.62 284.305 227.549 283.032C241.766 281.895 252.732 271.054 266.937 269.775C270.434 269.461 269.622 290.158 270.227 303.92C273.865 304.086 277.38 304.903 283.598 305.549C286.668 305.868 289.366 308.802 291.87 312.563C295.177 311.846 298.558 311.14 302.418 310.546C304.536 310.22 306.218 311.166 307.327 313.001C308.402 314.778 306.764 316.074 307.736 317.91C308.588 319.52 311.609 318.962 311.418 320.774C311.264 322.239 309.075 321.851 308.554 323.229C307.977 324.752 308.583 325.894 309.372 327.32C310.363 329.11 311.049 329.381 312.082 331.147C313.533 333.63 314.138 336.501 312.082 338.511C311.416 339.162 311.009 339.184 310.191 338.775C309.373 338.366 309.161 337.028 308.554 336.32C306.1 333.456 306.026 332.113 302.826 329.365C299.188 326.241 295.762 318.405 291.87 312.563C286.065 313.82 280.489 315.108 272.961 315.864C271.198 316.042 270.532 310.864 270.227 303.92C267.027 303.773 263.731 304.13 258.418 305.549C247.874 308.364 241.758 316.557 231.122 319.001C221.675 321.172 219.019 328.839 209.351 328.138C202.817 327.664 194.666 334.755 188.622 332.229C184.197 330.38 180.896 333.924 176.41 332.229C171.397 330.335 167.06 331.527 162.909 328.138C160.506 326.176 154.042 327.735 153.502 324.681Z" fill="#67DBFF"/>
<path d="M153.502 324.681C152.955 321.59 153.502 314.349 161.273 316.076C164.955 316.894 169.118 309.896 172.728 311.277C177.856 313.238 183.167 291.842 188.622 292.466C204.499 294.281 211.62 284.305 227.549 283.032C241.766 281.895 252.732 271.054 266.937 269.775C270.434 269.461 269.622 290.158 270.227 303.92C273.865 304.086 277.38 304.903 283.598 305.549C286.668 305.868 289.366 308.802 291.87 312.563C295.177 311.846 298.558 311.14 302.418 310.546C304.536 310.22 306.218 311.166 307.327 313.001C308.402 314.778 306.764 316.074 307.736 317.91C308.588 319.52 311.609 318.962 311.418 320.774C311.264 322.239 309.075 321.851 308.554 323.229C307.977 324.752 308.583 325.894 309.372 327.32C310.363 329.11 311.049 329.381 312.082 331.147C313.533 333.63 314.138 336.501 312.082 338.511C311.416 339.162 311.009 339.184 310.191 338.775C309.373 338.366 309.161 337.028 308.554 336.32C306.1 333.456 306.026 332.113 302.826 329.365C299.188 326.241 295.762 318.405 291.87 312.563C286.065 313.82 280.489 315.108 272.961 315.864C271.198 316.042 270.532 310.864 270.227 303.92C267.027 303.773 263.731 304.13 258.418 305.549C247.874 308.364 241.758 316.557 231.122 319.001C221.675 321.172 219.019 328.839 209.351 328.138C202.817 327.664 194.666 334.755 188.622 332.229C184.197 330.38 180.896 333.924 176.41 332.229C171.397 330.335 167.06 331.527 162.909 328.138C160.506 326.176 154.042 327.735 153.502 324.681Z" stroke="black"/>
</g>
<g filter="url(#filter7_d_251_1123)">
<path d="M101.474 270.474C95.0782 262.711 92.0751 257.618 88.3579 248.242C83.9903 237.227 84.7865 230.097 82.4981 218.47L76.6384 188.697C76.6384 188.697 171.608 129.181 220.73 158.983C245.876 174.239 267.473 218.038 267.473 218.038C267.473 218.038 271.989 215.158 275.581 210.359C278.392 206.602 280.604 202.236 283.525 198.912C285.972 196.128 288.658 194.588 292.297 195.291C294.968 195.808 296.14 197.297 298.02 199.264C302.548 203.998 302.472 208.916 302.362 215.466C302.201 224.997 299.751 231.828 292.216 237.668C288.872 240.259 282.471 242.397 282.471 242.397C282.471 242.397 279.407 249.369 277.002 253.603C273.588 259.616 271.757 263.215 266.927 268.163C263.277 271.9 256.448 276.476 256.448 276.476C256.448 276.476 235.049 285.36 221.468 291.355C203.518 299.279 194.675 306.847 175.876 312.466C162.832 316.366 156.228 318.536 142.624 317.988C136.546 317.742 132.456 318.781 126.916 316.267C121.145 313.649 117.439 311.512 114.043 306.163C111.716 302.499 109.998 295.811 109.998 295.811L96.3845 282.94C96.3845 282.94 86.5928 272.245 91.3871 269.032C94.689 266.818 98.936 267.431 101.474 270.474Z" fill="#FFF5F1"/>
<path d="M101.535 270.548C95.0971 262.743 92.0868 257.647 88.3579 248.242C83.9903 237.227 84.7865 230.097 82.4981 218.47C80.2097 206.843 76.6384 188.697 76.6384 188.697C76.6384 188.697 171.608 129.181 220.73 158.983C245.876 174.239 267.473 218.038 267.473 218.038M101.535 270.548C99.0041 267.441 94.7155 266.8 91.3871 269.032C86.5928 272.245 96.3845 282.94 96.3845 282.94L109.998 295.811M101.535 270.548C104.84 280.414 109.998 295.811 109.998 295.811M109.998 295.811C109.998 295.811 111.716 302.499 114.043 306.163C117.439 311.512 121.145 313.649 126.916 316.267C132.456 318.781 136.546 317.742 142.624 317.988C156.228 318.536 162.832 316.366 175.876 312.466C194.675 306.847 203.518 299.279 221.468 291.355C235.049 285.36 256.448 276.476 256.448 276.476C256.448 276.476 263.277 271.9 266.927 268.163C271.757 263.215 273.588 259.616 277.002 253.603C279.407 249.369 282.471 242.397 282.471 242.397M282.471 242.397C282.471 242.397 288.872 240.259 292.216 237.668C299.751 231.828 302.201 224.997 302.362 215.466C302.472 208.916 302.548 203.998 298.02 199.264C296.14 197.297 294.968 195.808 292.297 195.291C288.658 194.588 285.972 196.128 283.525 198.912C280.604 202.236 278.392 206.602 275.581 210.359C271.989 215.158 267.473 218.038 267.473 218.038M282.471 242.397C282.471 242.397 279.348 235.116 277.29 229.384C275.404 224.132 267.473 218.038 267.473 218.038" stroke="black"/>
</g>
<g filter="url(#filter8_di_251_1123)">
<path d="M242.703 196.72C233.788 188.876 223.648 173.025 223.648 173.025C223.648 173.025 213.619 177.812 206.789 179.66C199.807 181.55 195.91 182.268 189.006 184.425C181.529 186.761 178.243 189.917 170.567 191.483C157.314 194.187 151.994 196.46 136.448 198.508C127.999 199.621 115.411 192.709 115.411 192.709C115.411 192.709 125.677 200.381 133.421 201.437C139.042 202.203 147.887 200.102 147.887 200.102C147.887 200.102 136.092 208.923 127.212 209.877C119.467 210.709 114.786 209.245 107.6 206.238C101.126 203.527 92.6459 196.267 92.6459 196.267C92.6459 196.267 93.1022 200.354 94.3401 202.59C97.3025 207.942 108.447 209.399 108.447 209.399C108.447 209.399 104.001 215.231 99.9445 217.183C94.9741 219.576 91.196 219.86 85.8732 218.412C80.9566 217.076 75.0332 211.152 75.0332 211.152C75.0332 211.152 81.847 221.166 88.6187 222.336C91.6756 222.864 96.5505 221.905 96.5505 221.905C96.5505 221.905 95.7979 226.218 93.9753 228.101C91.4194 230.741 84.8863 230.536 84.8863 230.536C84.8863 230.536 85.1144 235.093 85.6067 237.967C86.7159 244.441 88.3034 247.925 91.1336 253.852C94.3125 260.509 101.325 269.757 101.325 269.757L107.169 286.827C107.169 286.827 103.897 285.946 101.156 283.356C98.4456 280.794 94.9743 278.158 92.2928 275.565C83.7174 267.275 76.687 268.108 68.6086 259.887C62.0215 253.184 59.6576 248.124 55.5658 239.663C50.6919 229.586 47.2016 208.444 47.2016 208.444L60.9731 177.647L112.718 144.722L217.646 134.82L286.142 159.668C286.142 159.668 300.08 172.162 303.405 182.997C305.401 189.5 306.079 193.605 305.086 200.335C304.543 204.022 302.462 209.509 302.462 209.509C302.462 209.509 300.922 200.604 296.201 197.21C293.329 195.146 292.446 194.825 289.031 195.743C282.332 197.542 281.339 205.593 276.478 210.542C272.67 214.419 267.291 218.933 267.291 218.933C267.291 218.933 261.33 211.374 257.368 207.191C252.529 202.082 247.986 201.369 242.703 196.72Z" fill="#72575C"/>
<path d="M242.703 196.72C233.788 188.876 223.648 173.025 223.648 173.025C223.648 173.025 213.619 177.812 206.789 179.66C199.807 181.55 195.91 182.268 189.006 184.425C181.529 186.761 178.243 189.917 170.567 191.483C157.314 194.187 151.994 196.46 136.448 198.508C127.999 199.621 115.411 192.709 115.411 192.709C115.411 192.709 125.677 200.381 133.421 201.437C139.042 202.203 147.887 200.102 147.887 200.102C147.887 200.102 136.092 208.923 127.212 209.877C119.467 210.709 114.786 209.245 107.6 206.238C101.126 203.527 92.6459 196.267 92.6459 196.267C92.6459 196.267 93.1022 200.354 94.3401 202.59C97.3025 207.942 108.447 209.399 108.447 209.399C108.447 209.399 104.001 215.231 99.9445 217.183C94.9741 219.576 91.196 219.86 85.8732 218.412C80.9566 217.076 75.0332 211.152 75.0332 211.152C75.0332 211.152 81.847 221.166 88.6187 222.336C91.6756 222.864 96.5505 221.905 96.5505 221.905C96.5505 221.905 95.7979 226.218 93.9753 228.101C91.4194 230.741 84.8863 230.536 84.8863 230.536C84.8863 230.536 85.1144 235.093 85.6067 237.967C86.7159 244.441 88.3034 247.925 91.1336 253.852C94.3125 260.509 101.325 269.757 101.325 269.757L107.169 286.827C107.169 286.827 103.897 285.946 101.156 283.356C98.4456 280.794 94.9743 278.158 92.2928 275.565C83.7174 267.275 76.687 268.108 68.6086 259.887C62.0215 253.184 59.6576 248.124 55.5658 239.663C50.6919 229.586 47.2016 208.444 47.2016 208.444L60.9731 177.647L112.718 144.722L217.646 134.82L286.142 159.668C286.142 159.668 300.08 172.162 303.405 182.997C305.401 189.5 306.079 193.605 305.086 200.335C304.543 204.022 302.462 209.509 302.462 209.509C302.462 209.509 300.922 200.604 296.201 197.21C293.329 195.146 292.446 194.825 289.031 195.743C282.332 197.542 281.339 205.593 276.478 210.542C272.67 214.419 267.291 218.933 267.291 218.933C267.291 218.933 261.33 211.374 257.368 207.191C252.529 202.082 247.986 201.369 242.703 196.72Z" stroke="black"/>
</g>
<g filter="url(#filter9_i_251_1123)">
<path d="M47.8035 223.854C49.3069 225.524 51.8745 227.961 51.8745 227.961C51.8745 227.961 51.8785 218.526 54.1931 212.859C57.8379 203.936 63.7904 200.404 71.5566 193.726C86.4128 180.951 98.1861 177.216 116.981 170.044C140.148 161.204 154.407 158.87 178.998 156.026C194.682 154.212 203.625 153.471 219.234 154.156C236.096 154.895 245.949 155.356 261.605 160.254C275.381 164.563 284.8 166.298 294.259 176.01C298.68 180.55 301.308 183.352 303.304 189.181C305.782 196.416 303.077 208.921 303.077 208.921C303.077 208.921 307.13 203.902 308.836 200.323C311.222 195.319 311.178 192.15 312.014 186.847C313.283 178.803 312.594 174.262 312.848 166.202C313.348 150.326 317.234 140.836 313.42 125.577C311.022 115.987 308.115 111.021 303.359 102.282C295.493 87.8313 290.398 79.5649 277.707 68.3122C262.851 55.1397 251.491 50.218 231.907 43.0828C214.87 36.8757 204.586 33.762 185.861 32.7714C164.826 31.6586 152.184 33.6237 131.743 39.8462C118.403 43.9073 110.985 46.9676 98.9936 53.8196C82.6216 63.1748 74.6857 70.5429 62.0387 83.7719C50.1461 96.2118 42.8776 103.546 36.1393 118.559C30.6698 130.746 29.5207 138.258 28.3101 151.104C26.3269 172.149 27.6402 184.866 36.1095 203.967C39.7412 212.157 41.6765 217.047 47.8035 223.854Z" fill="#FFB119"/>
</g>
<path d="M47.8035 223.854C49.3069 225.524 51.8745 227.961 51.8745 227.961C51.8745 227.961 51.8785 218.526 54.1931 212.859C57.8379 203.936 63.7904 200.404 71.5566 193.726C86.4128 180.951 98.1861 177.216 116.981 170.044C140.148 161.204 154.407 158.87 178.998 156.026C194.682 154.212 203.625 153.471 219.234 154.156C236.096 154.895 245.949 155.356 261.605 160.254C275.381 164.563 284.8 166.298 294.259 176.01C298.68 180.55 301.308 183.352 303.304 189.181C305.782 196.416 303.077 208.921 303.077 208.921C303.077 208.921 307.13 203.902 308.836 200.323C311.222 195.319 311.178 192.15 312.014 186.847C313.283 178.803 312.594 174.262 312.848 166.202C313.348 150.326 317.234 140.836 313.42 125.577C311.022 115.987 308.115 111.021 303.359 102.282C295.493 87.8313 290.398 79.5649 277.707 68.3122C262.851 55.1397 251.491 50.218 231.907 43.0828C214.87 36.8757 204.586 33.762 185.861 32.7714C164.826 31.6586 152.184 33.6237 131.743 39.8462C118.403 43.9073 110.985 46.9676 98.9936 53.8196C82.6216 63.1748 74.6857 70.5429 62.0387 83.7719C50.1461 96.2118 42.8776 103.546 36.1393 118.559C30.6698 130.746 29.5207 138.258 28.3101 151.104C26.3269 172.149 27.6402 184.866 36.1095 203.967C39.7412 212.157 41.6765 217.047 47.8035 223.854Z" stroke="black"/>
<g filter="url(#filter10_d_251_1123)">
<path d="M171.371 268.776C171.371 268.776 166.801 274.549 168.79 277.544C169.553 278.692 171.496 279.755 171.496 279.755" stroke="#72575C"/>
</g>
<path d="M165.183 296.271C165.183 296.271 169.125 296.024 171.111 294.683C174.112 292.655 175.238 286.376 175.238 286.376C175.238 286.376 180.405 288.803 183.911 288.711C186.786 288.637 191.024 286.805 191.024 286.805" stroke="#FFAA8C" stroke-width="3" stroke-linecap="round"/>
<g filter="url(#filter11_d_251_1123)">
<path d="M104.586 247.154C104.586 247.154 113.166 244.189 118.812 243.342C125.388 242.356 134.443 246.354 134.443 246.354" stroke="#D88272" stroke-width="3" stroke-linecap="round"/>
</g>
<g filter="url(#filter12_d_251_1123)">
<path d="M183.683 229.375C183.683 229.375 193.825 217.259 202.453 212.486C211.68 207.382 228.534 205.498 228.534 205.498" stroke="#D88272" stroke-width="3" stroke-linecap="round"/>
</g>
<circle cx="210.62" cy="243.368" r="21.6789" transform="rotate(-15 210.62 243.368)" fill="#F7F7F7" stroke="black"/>
<circle cx="208.772" cy="246.564" r="16.9603" transform="rotate(-15 208.772 246.564)" fill="#484747"/>
<circle cx="128.008" cy="270.233" r="15.808" transform="rotate(-15 128.008 270.233)" fill="#F7F7F7" stroke="black"/>
<circle cx="129.945" cy="272.416" r="12.3941" transform="rotate(-15 129.945 272.416)" fill="#484747"/>
<defs>
<filter id="filter0_d_251_1123" x="244.555" y="393.574" width="60.2109" height="41.468" filterUnits="userSpaceOnUse" color-interpolation-filters="sRGB">
<feFlood flood-opacity="0" result="BackgroundImageFix"/>
<feColorMatrix in="SourceAlpha" type="matrix" values="0 0 0 0 0 0 0 0 0 0 0 0 0 0 0 0 0 0 127 0" result="hardAlpha"/>
<feOffset dy="5"/>
<feGaussianBlur stdDeviation="2"/>
<feComposite in2="hardAlpha" operator="out"/>
<feColorMatrix type="matrix" values="0 0 0 0 0 0 0 0 0 0 0 0 0 0 0 0 0 0 0.25 0"/>
<feBlend mode="normal" in2="BackgroundImageFix" result="effect1_dropShadow_251_1123"/>
<feBlend mode="normal" in="SourceGraphic" in2="effect1_dropShadow_251_1123" result="shape"/>
</filter>
<filter id="filter1_d_251_1123" x="163.895" y="375.378" width="163.438" height="26.3647" filterUnits="userSpaceOnUse" color-interpolation-filters="sRGB">
<feFlood flood-opacity="0" result="BackgroundImageFix"/>
<feColorMatrix in="SourceAlpha" type="matrix" values="0 0 0 0 0 0 0 0 0 0 0 0 0 0 0 0 0 0 127 0" result="hardAlpha"/>
<feOffset dy="5"/>
<feGaussianBlur stdDeviation="2"/>
<feComposite in2="hardAlpha" operator="out"/>
<feColorMatrix type="matrix" values="0 0 0 0 0 0 0 0 0 0 0 0 0 0 0 0 0 0 0.25 0"/>
<feBlend mode="normal" in2="BackgroundImageFix" result="effect1_dropShadow_251_1123"/>
<feBlend mode="normal" in="SourceGraphic" in2="effect1_dropShadow_251_1123" result="shape"/>
</filter>
<filter id="filter2_d_251_1123" x="163.602" y="396.652" width="70.0469" height="38.4788" filterUnits="userSpaceOnUse" color-interpolation-filters="sRGB">
<feFlood flood-opacity="0" result="BackgroundImageFix"/>
<feColorMatrix in="SourceAlpha" type="matrix" values="0 0 0 0 0 0 0 0 0 0 0 0 0 0 0 0 0 0 127 0" result="hardAlpha"/>
<feOffset dy="5"/>
<feGaussianBlur stdDeviation="2"/>
<feComposite in2="hardAlpha" operator="out"/>
<feColorMatrix type="matrix" values="0 0 0 0 0 0 0 0 0 0 0 0 0 0 0 0 0 0 0.25 0"/>
<feBlend mode="normal" in2="BackgroundImageFix" result="effect1_dropShadow_251_1123"/>
<feBlend mode="normal" in="SourceGraphic" in2="effect1_dropShadow_251_1123" result="shape"/>
</filter>
<filter id="filter3_d_251_1123" x="143.168" y="342.507" width="37.6445" height="39.4473" filterUnits="userSpaceOnUse" color-interpolation-filters="sRGB">
<feFlood flood-opacity="0" result="BackgroundImageFix"/>
<feColorMatrix in="SourceAlpha" type="matrix" values="0 0 0 0 0 0 0 0 0 0 0 0 0 0 0 0 0 0 127 0" result="hardAlpha"/>
<feOffset dy="4"/>
<feGaussianBlur stdDeviation="2"/>
<feComposite in2="hardAlpha" operator="out"/>
<feColorMatrix type="matrix" values="0 0 0 0 0 0 0 0 0 0 0 0 0 0 0 0 0 0 0.25 0"/>
<feBlend mode="normal" in2="BackgroundImageFix" result="effect1_dropShadow_251_1123"/>
<feBlend mode="normal" in="SourceGraphic" in2="effect1_dropShadow_251_1123" result="shape"/>
</filter>
<filter id="filter4_d_251_1123" x="166.438" y="300.474" width="163.266" height="92.9202" filterUnits="userSpaceOnUse" color-interpolation-filters="sRGB">
<feFlood flood-opacity="0" result="BackgroundImageFix"/>
<feColorMatrix in="SourceAlpha" type="matrix" values="0 0 0 0 0 0 0 0 0 0 0 0 0 0 0 0 0 0 127 0" result="hardAlpha"/>
<feOffset dy="4"/>
<feGaussianBlur stdDeviation="2"/>
<feComposite in2="hardAlpha" operator="out"/>
<feColorMatrix type="matrix" values="0 0 0 0 0 0 0 0 0 0 0 0 0 0 0 0 0 0 0.25 0"/>
<feBlend mode="normal" in2="BackgroundImageFix" result="effect1_dropShadow_251_1123"/>
<feBlend mode="normal" in="SourceGraphic" in2="effect1_dropShadow_251_1123" result="shape"/>
</filter>
<filter id="filter5_d_251_1123" x="252.766" y="299.601" width="76.6875" height="58.7297" filterUnits="userSpaceOnUse" color-interpolation-filters="sRGB">
<feFlood flood-opacity="0" result="BackgroundImageFix"/>
<feColorMatrix in="SourceAlpha" type="matrix" values="0 0 0 0 0 0 0 0 0 0 0 0 0 0 0 0 0 0 127 0" result="hardAlpha"/>
<feOffset dy="4"/>
<feGaussianBlur stdDeviation="2"/>
<feComposite in2="hardAlpha" operator="out"/>
<feColorMatrix type="matrix" values="0 0 0 0 0 0 0 0 0 0 0 0 0 0 0 0 0 0 0.25 0"/>
<feBlend mode="normal" in2="BackgroundImageFix" result="effect1_dropShadow_251_1123"/>
<feBlend mode="normal" in="SourceGraphic" in2="effect1_dropShadow_251_1123" result="shape"/>
</filter>
<filter id="filter6_di_251_1123" x="152.848" y="269.272" width="170.059" height="79.2761" filterUnits="userSpaceOnUse" color-interpolation-filters="sRGB">
<feFlood flood-opacity="0" result="BackgroundImageFix"/>
<feColorMatrix in="SourceAlpha" type="matrix" values="0 0 0 0 0 0 0 0 0 0 0 0 0 0 0 0 0 0 127 0" result="hardAlpha"/>
<feOffset dx="5" dy="5"/>
<feGaussianBlur stdDeviation="2"/>
<feComposite in2="hardAlpha" operator="out"/>
<feColorMatrix type="matrix" values="0 0 0 0 0 0 0 0 0 0 0 0 0 0 0 0 0 0 0.25 0"/>
<feBlend mode="normal" in2="BackgroundImageFix" result="effect1_dropShadow_251_1123"/>
<feBlend mode="normal" in="SourceGraphic" in2="effect1_dropShadow_251_1123" result="shape"/>
<feColorMatrix in="SourceAlpha" type="matrix" values="0 0 0 0 0 0 0 0 0 0 0 0 0 0 0 0 0 0 127 0" result="hardAlpha"/>
<feOffset dy="4"/>
<feGaussianBlur stdDeviation="2"/>
<feComposite in2="hardAlpha" operator="arithmetic" k2="-1" k3="1"/>
<feColorMatrix type="matrix" values="0 0 0 0 0 0 0 0 0 0 0 0 0 0 0 0 0 0 0.25 0"/>
<feBlend mode="normal" in2="shape" result="effect2_innerShadow_251_1123"/>
</filter>
<filter id="filter7_d_251_1123" x="72.082" y="150.129" width="234.812" height="176.442" filterUnits="userSpaceOnUse" color-interpolation-filters="sRGB">
<feFlood flood-opacity="0" result="BackgroundImageFix"/>
<feColorMatrix in="SourceAlpha" type="matrix" values="0 0 0 0 0 0 0 0 0 0 0 0 0 0 0 0 0 0 127 0" result="hardAlpha"/>
<feOffset dy="4"/>
<feGaussianBlur stdDeviation="2"/>
<feComposite in2="hardAlpha" operator="out"/>
<feColorMatrix type="matrix" values="0 0 0 0 0 0 0 0 0 0 0 0 0 0 0 0 0 0 0.25 0"/>
<feBlend mode="normal" in2="BackgroundImageFix" result="effect1_dropShadow_251_1123"/>
<feBlend mode="normal" in="SourceGraphic" in2="effect1_dropShadow_251_1123" result="shape"/>
</filter>
<filter id="filter8_di_251_1123" x="42.6836" y="134.311" width="268.355" height="161.243" filterUnits="userSpaceOnUse" color-interpolation-filters="sRGB">
<feFlood flood-opacity="0" result="BackgroundImageFix"/>
<feColorMatrix in="SourceAlpha" type="matrix" values="0 0 0 0 0 0 0 0 0 0 0 0 0 0 0 0 0 0 127 0" result="hardAlpha"/>
<feOffset dy="4"/>
<feGaussianBlur stdDeviation="2"/>
<feComposite in2="hardAlpha" operator="out"/>
<feColorMatrix type="matrix" values="0 0 0 0 0 0 0 0 0 0 0 0 0 0 0 0 0 0 0.25 0"/>
<feBlend mode="normal" in2="BackgroundImageFix" result="effect1_dropShadow_251_1123"/>
<feBlend mode="normal" in="SourceGraphic" in2="effect1_dropShadow_251_1123" result="shape"/>
<feColorMatrix in="SourceAlpha" type="matrix" values="0 0 0 0 0 0 0 0 0 0 0 0 0 0 0 0 0 0 127 0" result="hardAlpha"/>
<feOffset dx="10" dy="10"/>
<feGaussianBlur stdDeviation="2.5"/>
<feComposite in2="hardAlpha" operator="arithmetic" k2="-1" k3="1"/>
<feColorMatrix type="matrix" values="0 0 0 0 0 0 0 0 0 0 0 0 0 0 0 0 0 0 0.25 0"/>
<feBlend mode="normal" in2="shape" result="effect2_innerShadow_251_1123"/>
</filter>
<filter id="filter9_i_251_1123" x="27" y="31.9763" width="298.578" height="212.148" filterUnits="userSpaceOnUse" color-interpolation-filters="sRGB">
<feFlood flood-opacity="0" result="BackgroundImageFix"/>
<feBlend mode="normal" in="SourceGraphic" in2="BackgroundImageFix" result="shape"/>
<feColorMatrix in="SourceAlpha" type="matrix" values="0 0 0 0 0 0 0 0 0 0 0 0 0 0 0 0 0 0 127 0" result="hardAlpha"/>
<feOffset dx="10" dy="15"/>
<feGaussianBlur stdDeviation="7.5"/>
<feComposite in2="hardAlpha" operator="arithmetic" k2="-1" k3="1"/>
<feColorMatrix type="matrix" values="0 0 0 0 0 0 0 0 0 0 0 0 0 0 0 0 0 0 0.25 0"/>
<feBlend mode="normal" in2="shape" result="effect1_innerShadow_251_1123"/>
</filter>
<filter id="filter10_d_251_1123" x="163.789" y="268.466" width="11.9727" height="19.7275" filterUnits="userSpaceOnUse" color-interpolation-filters="sRGB">
<feFlood flood-opacity="0" result="BackgroundImageFix"/>
<feColorMatrix in="SourceAlpha" type="matrix" values="0 0 0 0 0 0 0 0 0 0 0 0 0 0 0 0 0 0 127 0" result="hardAlpha"/>
<feOffset dy="4"/>
<feGaussianBlur stdDeviation="2"/>
<feComposite in2="hardAlpha" operator="out"/>
<feColorMatrix type="matrix" values="0 0 0 0 0 0 0 0 0 0 0 0 0 0 0 0 0 0 0.25 0"/>
<feBlend mode="normal" in2="BackgroundImageFix" result="effect1_dropShadow_251_1123"/>
<feBlend mode="normal" in="SourceGraphic" in2="effect1_dropShadow_251_1123" result="shape"/>
</filter>
<filter id="filter11_d_251_1123" x="99.0859" y="241.686" width="40.8594" height="14.9685" filterUnits="userSpaceOnUse" color-interpolation-filters="sRGB">
<feFlood flood-opacity="0" result="BackgroundImageFix"/>
<feColorMatrix in="SourceAlpha" type="matrix" values="0 0 0 0 0 0 0 0 0 0 0 0 0 0 0 0 0 0 127 0" result="hardAlpha"/>
<feOffset dy="4"/>
<feGaussianBlur stdDeviation="2"/>
<feComposite in2="hardAlpha" operator="out"/>
<feColorMatrix type="matrix" values="0 0 0 0 0 0 0 0 0 0 0 0 0 0 0 0 0 0 0.25 0"/>
<feBlend mode="normal" in2="BackgroundImageFix" result="effect1_dropShadow_251_1123"/>
<feBlend mode="normal" in="SourceGraphic" in2="effect1_dropShadow_251_1123" result="shape"/>
</filter>
<filter id="filter12_d_251_1123" x="178.184" y="203.998" width="55.8516" height="34.8772" filterUnits="userSpaceOnUse" color-interpolation-filters="sRGB">
<feFlood flood-opacity="0" result="BackgroundImageFix"/>
<feColorMatrix in="SourceAlpha" type="matrix" values="0 0 0 0 0 0 0 0 0 0 0 0 0 0 0 0 0 0 127 0" result="hardAlpha"/>
<feOffset dy="4"/>
<feGaussianBlur stdDeviation="2"/>
<feComposite in2="hardAlpha" operator="out"/>
<feColorMatrix type="matrix" values="0 0 0 0 0 0 0 0 0 0 0 0 0 0 0 0 0 0 0.25 0"/>
<feBlend mode="normal" in2="BackgroundImageFix" result="effect1_dropShadow_251_1123"/>
<feBlend mode="normal" in="SourceGraphic" in2="effect1_dropShadow_251_1123" result="shape"/>
</filter>
</defs>
</svg>
