<svg width="109" height="116" viewBox="0 0 109 116" fill="none" xmlns="http://www.w3.org/2000/svg">
<ellipse cx="56" cy="86.5" rx="26" ry="2.5" fill="#808080"/>
<g filter="url(#filter0_d_710_2120)">
<path d="M66.9453 82.6746L79.002 104" stroke="#B2949A" stroke-width="2"/>
<path d="M30.5034 104L47.1544 80.3672" stroke="#B2949A" stroke-width="2"/>
<ellipse cx="5.42896" cy="2.71448" rx="5.42896" ry="2.71448" transform="matrix(-1 0 0 1 87.8594 102)" fill="#F42951"/>
<ellipse cx="5.42896" cy="2.71448" rx="5.42896" ry="2.71448" transform="matrix(-1 0 0 1 31.8594 102)" fill="#F42951"/>
<path d="M37.2854 16.9677C37.2854 16.9677 89.4741 32.7552 88.2038 52.1012C87.091 69.0503 71.9833 77.9194 55.2992 80.208C35.2404 82.9595 14.7625 72.2704 11.5866 52.1012C9.59479 39.4524 13.7211 30.6602 22.1544 21.0869C34.9274 6.58729 65.026 -6.15688 77.6359 8.48723C88.3711 20.9542 78.4287 43.1598 64.6662 52.1012C54.8879 58.4542 34.884 52.1012 34.884 52.1012C28.6957 48.7355 20.1521 46.058 22.1544 39.2593C24.1112 32.6156 32.461 33.5872 39.2072 34.898C50.8349 37.1572 65.3354 54.4842 55.2992 60.824C49.9729 64.1886 44.2279 64.637 39.2072 60.824C30.8594 54.4842 44.9759 40.8888 55.2992 39.2593C64.8189 37.7568 74.8023 42.5213 76.435 52.1012C78.283 62.9446 66.0698 68.7864 55.2992 70.516C36.0605 73.6055 46.7421 28.7851 64.6662 21.0869C73.1237 17.4545 79.9463 13.9653 89.4043 19.3908C106.038 28.9324 103.777 54.9016 92.5267 70.516C79.109 89.1392 34.884 80.208 34.884 80.208C34.884 80.208 4.13357 55.7572 6.3026 34.898C8.32694 15.4302 29.4475 9.69168 48.814 8.48731C69.3354 7.21113 67.8713 16.6164 84.1204 29.325C93.6394 36.77 98.2937 40.5845 102.134 52.1012C107.267 67.4915 71.3909 70.516 71.3909 70.516C71.3909 70.516 0.84147 86.9236 6.3026 60.824C8.00385 52.6935 31.0407 42.1669 31.0407 42.1669" stroke="#B2949A" stroke-width="3" stroke-linecap="round"/>
<path d="M55.365 43.8025C55.365 47.1868 56.0818 50.2259 57.2164 52.4006C58.3637 54.5996 59.861 55.7892 61.3798 55.7892C62.8985 55.7892 64.3958 54.5996 65.5431 52.4006C66.6778 50.2259 67.3945 47.1868 67.3945 43.8025C67.3945 40.4183 66.6778 37.3792 65.5431 35.2044C64.3958 33.0055 62.8985 31.8159 61.3798 31.8159C59.861 31.8159 58.3637 33.0055 57.2164 35.2044C56.0818 37.3792 55.365 40.4183 55.365 43.8025Z" fill="white" stroke="black"/>
<path d="M56.4543 47.0595C56.4543 49.2428 56.9273 51.1946 57.6675 52.5825C58.4192 53.9918 59.3727 54.7029 60.2975 54.7029C61.2222 54.7029 62.1757 53.9918 62.9274 52.5825C63.6676 51.1946 64.1406 49.2428 64.1406 47.0595C64.1406 44.8762 63.6676 42.9244 62.9274 41.5365C62.1757 40.1271 61.2222 39.416 60.2975 39.416C59.3727 39.416 58.4192 40.1271 57.6675 41.5365C56.9273 42.9244 56.4543 44.8762 56.4543 47.0595Z" fill="black" stroke="black"/>
<path d="M35.3497 45.4312C35.3497 48.3657 35.9713 50.9976 36.9522 52.8776C37.9457 54.7818 39.2306 55.7891 40.5147 55.7891C41.7988 55.7891 43.0837 54.7818 44.0772 52.8776C45.058 50.9976 45.6797 48.3657 45.6797 45.4312C45.6797 42.4967 45.058 39.8648 44.0772 37.9847C43.0837 36.0805 41.7988 35.0732 40.5147 35.0732C39.2306 35.0732 37.9457 36.0805 36.9522 37.9847C35.9713 39.8648 35.3497 42.4967 35.3497 45.4312Z" fill="white" stroke="black"/>
<path d="M36.2943 48.2634C36.2943 50.1534 36.704 51.8396 37.3417 53.0353C37.9908 54.2525 38.8026 54.8446 39.571 54.8446C40.3393 54.8446 41.1512 54.2525 41.8003 53.0353C42.438 51.8396 42.8477 50.1534 42.8477 48.2634C42.8477 46.3734 42.438 44.6872 41.8003 43.4915C41.1512 42.2743 40.3393 41.6821 39.571 41.6821C38.8026 41.6821 37.9908 42.2743 37.3417 43.4915C36.704 44.6872 36.2943 46.3734 36.2943 48.2634Z" fill="black" stroke="black"/>
</g>
<defs>
<filter id="filter0_d_710_2120" x="0.5" y="0.502319" width="107.637" height="114.927" filterUnits="userSpaceOnUse" color-interpolation-filters="sRGB">
<feFlood flood-opacity="0" result="BackgroundImageFix"/>
<feColorMatrix in="SourceAlpha" type="matrix" values="0 0 0 0 0 0 0 0 0 0 0 0 0 0 0 0 0 0 127 0" result="hardAlpha"/>
<feOffset dy="4"/>
<feGaussianBlur stdDeviation="2"/>
<feComposite in2="hardAlpha" operator="out"/>
<feColorMatrix type="matrix" values="0 0 0 0 0 0 0 0 0 0 0 0 0 0 0 0 0 0 0.25 0"/>
<feBlend mode="normal" in2="BackgroundImageFix" result="effect1_dropShadow_710_2120"/>
<feBlend mode="normal" in="SourceGraphic" in2="effect1_dropShadow_710_2120" result="shape"/>
</filter>
</defs>
</svg>
