<svg width="104" height="123" viewBox="0 0 104 123" fill="none" xmlns="http://www.w3.org/2000/svg">
<line y1="-1" x2="34.4671" y2="-1" transform="matrix(0.325991 0.945373 0.945373 -0.325991 66.0469 85.146)" stroke="#B2949A" stroke-width="2"/>
<line y1="-1" x2="35.4779" y2="-1" transform="matrix(0.190011 -0.981782 -0.981782 -0.190011 36.8281 117.731)" stroke="#B2949A" stroke-width="2"/>
<ellipse cx="5.61798" cy="2.80899" rx="5.61798" ry="2.80899" transform="matrix(-1 0 0 1 78.4023 116.607)" fill="#F42951"/>
<ellipse cx="5.61798" cy="2.80899" rx="5.61798" ry="2.80899" transform="matrix(-1 0 0 1 40.4922 115.484)" fill="#F42951"/>
<path d="M34.3734 17.4888C34.3734 17.4888 88.3791 33.8259 87.0646 53.8455C85.913 71.3847 70.2794 80.5626 53.0144 82.9309C32.2572 85.7782 11.0664 74.717 7.77986 53.8455C5.71876 40.7563 9.98874 31.6581 18.7157 21.7514C31.9333 6.747 63.0799 -6.44087 76.1288 8.71309C87.2377 21.6141 76.9491 44.5929 62.7075 53.8455C52.5887 60.4197 31.8884 53.8455 31.8884 53.8455C25.4847 50.3626 16.6436 47.5919 18.7157 40.5566C20.7406 33.6815 29.3811 34.6869 36.3621 36.0433C48.3946 38.3812 63.4 56.3115 53.0144 62.872C47.5027 66.3538 41.5576 66.8178 36.3621 62.872C27.7237 56.3115 42.3317 42.2427 53.0144 40.5566C62.8655 39.0017 73.1965 43.9321 74.8861 53.8455C76.7984 65.0664 64.16 71.1116 53.0144 72.9015C33.1059 76.0985 44.1594 29.7177 62.7075 21.7514C71.4594 17.9925 78.5196 14.3819 88.3069 19.9963C105.519 29.87 103.18 56.7434 91.538 72.9015C77.6531 92.173 31.8884 82.9309 31.8884 82.9309C31.8884 82.9309 0.0673985 57.6288 2.31195 36.0433C4.40677 15.8978 26.2626 9.95947 46.3034 8.71318C67.5393 7.39256 66.0242 17.1253 82.839 30.2764C92.6895 37.9806 97.5058 41.9279 101.48 53.8455C106.791 69.7716 69.6663 72.9015 69.6663 72.9015C69.6663 72.9015 -3.33932 89.8803 2.31195 62.872C4.07242 54.4584 27.9114 43.5653 27.9114 43.5653" stroke="#B2949A" stroke-width="3" stroke-linecap="round"/>
<path d="M53.0637 45.2579C53.0637 48.7622 53.8059 51.91 54.9816 54.1634C56.1699 56.441 57.7239 57.6792 59.3053 57.6792C60.8867 57.6792 62.4407 56.441 63.629 54.1634C64.8047 51.91 65.5469 48.7622 65.5469 45.2579C65.5469 41.7536 64.8047 38.6058 63.629 36.3524C62.4407 34.0748 60.8867 32.8365 59.3053 32.8365C57.7239 32.8365 56.1699 34.0748 54.9816 36.3524C53.8059 38.6058 53.0637 41.7536 53.0637 45.2579Z" fill="white" stroke="black"/>
<path d="M54.1948 48.6284C54.1948 50.89 54.6848 52.9127 55.4524 54.3519C56.2314 55.8125 57.2227 56.5553 58.1892 56.5553C59.1557 56.5553 60.147 55.8125 60.926 54.3519C61.6936 52.9127 62.1836 50.89 62.1836 48.6284C62.1836 46.3668 61.6936 44.3441 60.926 42.9049C60.147 41.4442 59.1557 40.7014 58.1892 40.7014C57.2227 40.7014 56.2314 41.4442 55.4524 42.9049C54.6848 44.3441 54.1948 46.3668 54.1948 48.6284Z" fill="black" stroke="black"/>
<path d="M32.3536 46.9434C32.3536 49.9823 32.9974 52.7087 34.014 54.6571C35.0431 56.6297 36.3773 57.6793 37.7159 57.6793C39.0544 57.6793 40.3886 56.6297 41.4178 54.6571C42.4344 52.7087 43.0781 49.9823 43.0781 46.9434C43.0781 43.9045 42.4344 41.178 41.4178 39.2296C40.3886 37.257 39.0544 36.2074 37.7159 36.2074C36.3773 36.2074 35.0431 37.257 34.014 39.2296C32.9974 41.178 32.3536 43.9045 32.3536 46.9434Z" fill="white" stroke="black"/>
<path d="M33.3321 49.8744C33.3321 51.8325 33.7565 53.5804 34.418 54.8207C35.0909 56.0824 35.9356 56.7022 36.7403 56.7022C37.5449 56.7022 38.3896 56.0824 39.0626 54.8207C39.7241 53.5804 40.1484 51.8325 40.1484 49.8744C40.1484 47.9164 39.7241 46.1685 39.0626 44.9282C38.3896 43.6664 37.5449 43.0466 36.7403 43.0466C35.9356 43.0466 35.0909 43.6664 34.418 44.9282C33.7565 46.1685 33.3321 47.9164 33.3321 49.8744Z" fill="black" stroke="black"/>
</svg>
