<svg width="135" height="148" viewBox="0 0 135 148" fill="none" xmlns="http://www.w3.org/2000/svg">
<g filter="url(#filter0_d_251_1234)">
<line y1="-1" x2="24.622" y2="-1" transform="matrix(0.325961 0.945383 0.945363 -0.32602 77.7461 87.3972)" stroke="#423436" stroke-width="2"/>
<line y1="-1" x2="25.3442" y2="-1" transform="matrix(0.189992 -0.981786 -0.981778 -0.190029 56.875 110.674)" stroke="#423436" stroke-width="2"/>
<ellipse cx="4.0129" cy="2.00666" rx="4.0129" ry="2.00666" transform="matrix(-1 0 0 1 86.5781 109.871)" fill="#FF3E61"/>
<ellipse cx="4.0129" cy="2.00666" rx="4.0129" ry="2.00666" transform="matrix(-1 0 0 1 59.4922 109.069)" fill="#FF3E61"/>
<path d="M55.1242 39.0648C55.1242 39.0648 93.7003 50.7355 92.7614 65.0369C91.9388 77.5664 80.7717 84.1227 68.4394 85.8146C53.6126 87.8486 38.4761 79.9468 36.1285 65.0369C34.6563 55.6863 37.7063 49.1868 43.94 42.1098C53.3813 31.3911 75.6292 21.9701 84.95 32.7956C92.885 42.0117 85.5359 58.4271 75.3632 65.0369C68.1354 69.7333 53.3492 65.0369 53.3492 65.0369C48.775 62.5488 42.4599 60.5695 43.94 55.5436C45.3863 50.6323 51.5582 51.3506 56.5448 52.3195C65.1395 53.9896 75.8578 66.7985 68.4394 71.4851C64.5024 73.9724 60.2559 74.3039 56.5448 71.4851C50.3743 66.7985 60.8088 56.7482 68.4394 55.5436C75.476 54.4329 82.8555 57.955 84.0623 65.0369C85.4283 73.0527 76.4007 77.3713 68.4394 78.6499C54.2189 80.9337 62.1143 47.8007 75.3632 42.1098C81.6147 39.4246 86.6577 36.8452 93.6488 40.856C105.944 47.9095 104.272 67.107 95.9567 78.6499C86.0388 92.4169 53.3492 85.8146 53.3492 85.8146C53.3492 85.8146 30.6195 67.7395 32.2228 52.3195C33.7191 37.9282 49.3307 33.686 63.6458 32.7957C78.8145 31.8523 77.7323 38.805 89.7431 48.1998C96.7792 53.7034 100.219 56.5233 103.058 65.0369C106.852 76.414 80.3339 78.6499 80.3339 78.6499C80.3339 78.6499 28.1861 90.779 32.2228 71.4851C33.4803 65.4747 50.5084 57.693 50.5084 57.693" stroke="#423436" stroke-width="3" stroke-linecap="round"/>
<path d="M68.619 58.9013C68.619 61.3864 69.1456 63.6115 69.9728 65.197C70.8125 66.8068 71.885 67.6319 72.9345 67.6319C73.984 67.6319 75.0565 66.8068 75.8963 65.197C76.7234 63.6115 77.25 61.3864 77.25 58.9013C77.25 56.4161 76.7234 54.191 75.8963 52.6055C75.0565 50.9958 73.984 50.1707 72.9345 50.1707C71.885 50.1707 70.8125 50.9958 69.9728 52.6055C69.1456 54.191 68.619 56.4161 68.619 58.9013Z" fill="white" stroke="black"/>
<path d="M69.4192 61.3088C69.4192 62.9057 69.7655 64.3267 70.3007 65.3303C70.8473 66.3554 71.5176 66.8288 72.1295 66.8288C72.7414 66.8288 73.4117 66.3554 73.9584 65.3303C74.4936 64.3267 74.8398 62.9057 74.8398 61.3088C74.8398 59.7119 74.4936 58.2909 73.9584 57.2873C73.4117 56.2622 72.7414 55.7888 72.1295 55.7888C71.5176 55.7888 70.8473 56.2622 70.3007 57.2873C69.7655 58.2909 69.4192 59.7119 69.4192 61.3088Z" fill="#0A0909" stroke="black"/>
<path d="M53.8206 60.1065C53.8206 62.2591 54.2768 64.1832 54.9903 65.5509C55.7164 66.9427 56.6319 67.6331 57.5079 67.6331C58.384 67.6331 59.2994 66.9427 60.0256 65.5509C60.739 64.1832 61.1953 62.2591 61.1953 60.1065C61.1953 57.9538 60.739 56.0297 60.0256 54.662C59.2994 53.2702 58.384 52.5798 57.5079 52.5798C56.6319 52.5798 55.7164 53.2702 54.9903 54.662C54.2768 56.0297 53.8206 57.9538 53.8206 60.1065Z" fill="white" stroke="black"/>
<path d="M54.5184 62.2003C54.5184 63.5804 54.8178 64.8051 55.2772 65.6666C55.7481 66.5496 56.3137 66.9351 56.81 66.9351C57.3063 66.9351 57.8718 66.5496 58.3427 65.6666C58.8022 64.8051 59.1016 63.5804 59.1016 62.2003C59.1016 60.8202 58.8022 59.5956 58.3427 58.7341C57.8718 57.851 57.3063 57.4656 56.81 57.4656C56.3137 57.4656 55.7481 57.851 55.2772 58.7341C54.8178 59.5956 54.5184 60.8202 54.5184 62.2003Z" fill="#0A0909" stroke="black"/>
</g>
<defs>
<filter id="filter0_d_251_1234" x="0.5" y="0.502441" width="134.43" height="147.382" filterUnits="userSpaceOnUse" color-interpolation-filters="sRGB">
<feFlood flood-opacity="0" result="BackgroundImageFix"/>
<feColorMatrix in="SourceAlpha" type="matrix" values="0 0 0 0 0 0 0 0 0 0 0 0 0 0 0 0 0 0 127 0" result="hardAlpha"/>
<feOffset dy="4"/>
<feGaussianBlur stdDeviation="15"/>
<feComposite in2="hardAlpha" operator="out"/>
<feColorMatrix type="matrix" values="0 0 0 0 0.662745 0 0 0 0 0.694118 0 0 0 0 0.976471 0 0 0 1 0"/>
<feBlend mode="normal" in2="BackgroundImageFix" result="effect1_dropShadow_251_1234"/>
<feBlend mode="normal" in="SourceGraphic" in2="effect1_dropShadow_251_1234" result="shape"/>
</filter>
</defs>
</svg>
