<svg width="450" height="502" viewBox="0 0 450 502" fill="none" xmlns="http://www.w3.org/2000/svg">
<path d="M226.98 463.636C243.45 458.249 269.871 452.991 268.6 448.249C267.936 445.77 268.167 438.73 266.552 432.703C263.701 428.384 261.718 422.562 261.718 422.562L143.426 452.141C143.426 452.141 131.966 455.212 136.85 462.374C141.734 469.536 147.637 472.022 154.839 475.766C159.519 478.2 166.124 479.943 167.28 477.939C168.437 475.935 203.443 471.335 226.98 463.636Z" fill="#FFB119" stroke="black"/>
<g filter="url(#filter0_d_710_2088)">
<path d="M158.408 463.796C155.98 467.713 154.455 470.256 155.417 474.763C155.967 477.34 156.906 478.724 158.692 480.662C161.533 483.747 164.108 485.197 168.289 484.867C179.488 483.985 185.877 481.426 197.455 478.323C201.011 477.37 204.441 475.727 205.881 471.83C206.956 468.92 206.369 466.861 205.45 463.898C203.194 456.63 196.982 454.587 189.676 452.453C182.906 450.476 178.207 450.519 171.625 453.055C165.419 455.446 161.913 458.143 158.408 463.796Z" fill="#FFF5F1"/>
<path d="M158.408 463.796C155.98 467.713 154.455 470.256 155.417 474.763C155.967 477.34 156.906 478.724 158.692 480.662C161.533 483.747 164.108 485.197 168.289 484.867C179.488 483.985 185.877 481.426 197.455 478.323C201.011 477.37 204.441 475.727 205.881 471.83C206.956 468.92 206.369 466.861 205.45 463.898C203.194 456.63 196.982 454.587 189.676 452.453C182.906 450.476 178.207 450.519 171.625 453.055C165.419 455.446 161.913 458.143 158.408 463.796Z" stroke="black"/>
</g>
<g filter="url(#filter1_d_710_2088)">
<path d="M265.997 419L263.496 414L125.756 446.287L125.312 449.371C125.312 449.371 136.486 456.348 142.186 455.438C173.354 450.463 185.368 447.248 214.651 439.409L214.955 439.328C233.172 434.452 243.051 430.529 261.268 425.648C267.986 423.848 265.997 419 265.997 419Z" fill="#FF8A00"/>
<path d="M265.997 419L263.496 414L125.756 446.287L125.312 449.371C125.312 449.371 136.486 456.348 142.186 455.438C173.354 450.463 185.368 447.248 214.651 439.409L214.955 439.328C233.172 434.452 243.051 430.529 261.268 425.648C267.986 423.848 265.997 419 265.997 419Z" stroke="black"/>
</g>
<path d="M277.366 373.472L280.267 374.813C280.267 374.813 281.979 371.865 280.605 371.334C279.273 370.818 277.366 373.472 277.366 373.472Z" stroke="black"/>
<g filter="url(#filter2_d_710_2088)">
<path d="M243.392 465.27C236.935 465.69 226.892 463.761 226.892 463.761C226.892 463.761 239.034 455.451 245.797 448.954C249.888 445.024 251.326 441.954 255.64 438.269C259.751 434.758 261.766 431.28 267.121 430.534C271.871 429.872 275.463 430.452 278.984 433.708C281.953 436.455 283.211 439.119 283.212 443.164C283.212 449.204 278.513 451.663 273.792 455.43C268.617 459.559 264.546 460.174 258.225 462.142C252.572 463.902 249.299 464.885 243.392 465.27Z" fill="#FFF5F1"/>
<path d="M243.392 465.27C236.935 465.69 226.892 463.761 226.892 463.761C226.892 463.761 239.034 455.451 245.797 448.954C249.888 445.024 251.326 441.954 255.64 438.269C259.751 434.758 261.766 431.28 267.121 430.534C271.871 429.872 275.463 430.452 278.984 433.708C281.953 436.455 283.211 439.119 283.212 443.164C283.212 449.204 278.513 451.663 273.792 455.43C268.617 459.559 264.546 460.174 258.225 462.142C252.572 463.902 249.299 464.885 243.392 465.27Z" stroke="black"/>
</g>
<g filter="url(#filter3_d_710_2088)">
<path d="M285.697 379.289C282.952 375.636 276.544 372 276.544 372L260.964 389.728C260.964 389.728 265.988 402.766 273.103 403.417C277.084 403.782 279.601 402.666 282.876 400.375C287.228 397.33 289.971 394.055 289.925 388.745C289.891 384.7 288.128 382.522 285.697 379.289Z" fill="#FFF5F1"/>
<path d="M285.697 379.289C282.952 375.636 276.544 372 276.544 372L260.964 389.728C260.964 389.728 265.988 402.766 273.103 403.417C277.084 403.782 279.601 402.666 282.876 400.375C287.228 397.33 289.971 394.055 289.925 388.745C289.891 384.7 288.128 382.522 285.697 379.289Z" stroke="black"/>
</g>
<g filter="url(#filter4_d_710_2088)">
<path d="M249 367.066C239.762 354.717 244.984 363.89 247.676 360.674C250.209 357.649 255.812 354.682 255.812 354.682L243.195 359.757L215.92 367.066C215.92 367.066 173.781 342.052 146.5 350.5C136.161 353.702 128.194 378.914 121 387C118.592 389.706 118.833 388.882 119 392.5C119.159 395.938 122.523 399 122.523 399C121.939 417.369 122.523 448.423 122.523 448.423C122.523 448.423 127.811 451.321 136.835 449.671C165.132 444.498 223.724 429.354 227.281 428.401C230.837 427.448 234.636 426.575 238.24 425.041C246.031 421.725 251.402 421.824 258.654 417.453C263.734 414.392 263.5 414 263.5 414C263.5 414 258.1 403.907 258.1 399C258.1 390.5 258.238 379.415 249 367.066Z" fill="#FFB119"/>
<path d="M249 367.066C239.762 354.717 244.984 363.89 247.676 360.674C250.209 357.649 255.812 354.682 255.812 354.682L243.195 359.757L215.92 367.066C215.92 367.066 173.781 342.052 146.5 350.5C136.161 353.702 128.194 378.914 121 387C118.592 389.706 118.833 388.882 119 392.5C119.159 395.938 122.523 399 122.523 399C121.939 417.369 122.523 448.423 122.523 448.423C122.523 448.423 127.811 451.321 136.835 449.671C165.132 444.498 223.724 429.354 227.281 428.401C230.837 427.448 234.636 426.575 238.24 425.041C246.031 421.725 251.402 421.824 258.654 417.453C263.734 414.392 263.5 414 263.5 414C263.5 414 258.1 403.907 258.1 399C258.1 390.5 258.238 379.415 249 367.066Z" stroke="black"/>
</g>
<path d="M263.579 391.568C259.742 399.373 243.656 369.376 243.656 369.376C243.656 369.376 244.124 365.084 246.019 362.39C248.735 358.528 250.836 355.924 255.418 354.789C257.152 354.359 260.846 355.144 262.482 355.861C272.08 360.066 275.376 361.3 282.053 368.829C283.907 370.92 281 373.5 281 373.5C281 373.5 281.295 370.824 280.211 371.441C271.757 376.247 263.579 391.568 263.579 391.568Z" fill="#FF8A00" stroke="black"/>
<g filter="url(#filter5_d_710_2088)">
<path d="M175.105 384.473C174.311 376.35 168.652 354.5 168.652 354.5C168.652 354.5 159.5 344.5 143.501 344.5C134.808 344.5 126.001 363 123.001 371C119.184 381.178 113.43 399.305 113.417 410.32C113.413 413.266 113.504 413.806 114.351 416.967C116.212 423.912 121.883 409.362 128.435 404.722C134.433 400.475 138.84 399.71 146.188 399.845C155.549 400.017 153.435 400.021 161.346 404.255C162.762 405.012 167.246 408.582 168.65 407.803C176.413 403.503 175.969 393.305 175.105 384.473Z" fill="#FF8A00"/>
<path d="M175.105 384.473C174.311 376.35 168.652 354.5 168.652 354.5C168.652 354.5 159.5 344.5 143.501 344.5C134.808 344.5 126.001 363 123.001 371C119.184 381.178 113.43 399.305 113.417 410.32C113.413 413.266 113.504 413.806 114.351 416.967C116.212 423.912 121.883 409.362 128.435 404.722C134.433 400.475 138.84 399.71 146.188 399.845C155.549 400.017 153.435 400.021 161.346 404.255C162.762 405.012 167.246 408.582 168.65 407.803C176.413 403.503 175.969 393.305 175.105 384.473Z" stroke="black"/>
</g>
<g filter="url(#filter6_di_710_2088)">
<path d="M274.801 353.348C274.529 350.22 272.127 343.368 265.068 347.047C261.723 348.791 255.89 343.108 252.761 345.376C248.315 348.598 237.647 329.306 232.54 331.32C217.673 337.182 208.213 329.39 192.497 332.282C178.47 334.864 199.051 331.559 184.999 334C179.795 334.904 173.721 330.47 168.508 331.32C156.787 333.231 167.697 323.828 156.999 325C146.302 326.172 167.221 317.509 148.5 323.5C136 327.5 138.846 329.62 139.499 331.32C140.028 332.695 135.615 343.344 142.5 350C148.765 356.057 168.508 359.122 168.508 359.122C179.422 359.112 187.449 362.414 198.356 362.022C208.043 361.673 212.593 368.392 221.75 365.212C227.938 363.064 237.647 372.377 242.831 368.373C246.627 365.442 250.732 368.011 254.627 365.212C258.979 362.086 263.476 363.47 266.609 359.122C268.422 356.605 275.069 356.438 274.801 353.348Z" fill="#67DBFF"/>
<path d="M274.801 353.348C274.529 350.22 272.127 343.368 265.068 347.047C261.723 348.791 255.89 343.108 252.761 345.376C248.315 348.598 237.647 329.306 232.54 331.32C217.673 337.182 208.213 329.39 192.497 332.282C178.47 334.864 199.051 331.559 184.999 334C179.795 334.904 173.721 330.47 168.508 331.32C156.787 333.231 167.697 323.828 156.999 325C146.302 326.172 167.221 317.509 148.5 323.5C136 327.5 138.846 329.62 139.499 331.32C140.028 332.695 135.615 343.344 142.5 350C148.765 356.057 168.508 359.122 168.508 359.122C179.422 359.112 187.449 362.414 198.356 362.022C208.043 361.673 212.593 368.392 221.75 365.212C227.938 363.064 237.647 372.377 242.831 368.373C246.627 365.442 250.732 368.011 254.627 365.212C258.979 362.086 263.476 363.47 266.609 359.122C268.422 356.605 275.069 356.438 274.801 353.348Z" stroke="black"/>
</g>
<g filter="url(#filter7_d_710_2088)">
<path d="M311.023 287.522C315.192 278.368 316.774 272.671 317.938 262.653C319.306 250.882 316.692 244.201 315.893 232.378L313.847 202.104C313.847 202.104 206.709 169.195 166.975 210.695C146.634 231.94 137.109 279.836 137.109 279.836C137.109 279.836 132.001 278.223 127.29 274.517C123.602 271.616 120.335 267.971 116.654 265.517C113.57 263.461 110.576 262.668 107.244 264.289C104.797 265.48 104.051 267.222 102.744 269.608C99.5956 275.352 100.942 280.084 102.744 286.382C105.366 295.547 109.5 301.511 118.29 305.201C122.19 306.838 128.927 307.247 128.927 307.247C128.927 307.247 133.69 313.188 137.109 316.656C141.964 321.58 144.664 324.583 150.61 328.111C155.102 330.777 162.884 333.43 162.884 333.43C162.884 333.43 185.853 336.472 200.522 338.748C219.911 341.757 230.412 346.777 250.025 347.34C263.634 347.73 270.575 348.118 283.572 344.067C289.381 342.257 293.6 342.202 298.301 338.339C303.197 334.317 306.224 331.294 308.12 325.248C309.418 321.106 309.347 314.201 309.347 314.201L319.166 298.246C319.166 298.246 325.856 285.381 320.393 283.518C316.631 282.235 312.687 283.926 311.023 287.522Z" fill="#FFF5F1"/>
<path d="M310.983 287.609C315.182 278.404 316.771 272.703 317.938 262.653C319.306 250.882 316.692 244.201 315.893 232.378C315.094 220.555 313.847 202.104 313.847 202.104C313.847 202.104 206.709 169.195 166.975 210.695C146.634 231.94 137.109 279.836 137.109 279.836M310.983 287.609C312.624 283.953 316.601 282.224 320.393 283.518C325.856 285.381 319.166 298.246 319.166 298.246L309.347 314.201M310.983 287.609C310.344 297.994 309.347 314.201 309.347 314.201M309.347 314.201C309.347 314.201 309.418 321.106 308.12 325.248C306.224 331.294 303.197 334.317 298.301 338.339C293.6 342.202 289.381 342.257 283.572 344.067C270.575 348.118 263.634 347.73 250.025 347.34C230.412 346.777 219.911 341.757 200.522 338.748C185.853 336.472 162.884 333.43 162.884 333.43C162.884 333.43 155.102 330.777 150.61 328.111C144.664 324.583 141.964 321.58 137.109 316.656C133.69 313.188 128.927 307.247 128.927 307.247M128.927 307.247C128.927 307.247 122.19 306.838 118.29 305.201C109.5 301.511 105.366 295.547 102.744 286.382C100.942 280.084 99.5956 275.352 102.744 269.608C104.051 267.222 104.797 265.48 107.244 264.289C110.576 262.668 113.57 263.461 116.654 265.517C120.335 267.971 123.602 271.616 127.29 274.517C132.001 278.223 137.109 279.836 137.109 279.836M128.927 307.247C128.927 307.247 130.058 299.406 130.563 293.337C131.026 287.775 137.109 279.836 137.109 279.836" stroke="black"/>
</g>
<g filter="url(#filter8_di_710_2088)">
<path d="M155.516 252.834C162.097 242.95 167.789 225.014 167.789 225.014C167.789 225.014 178.715 227.042 185.791 227.06C193.024 227.078 196.974 226.763 204.201 227.06C212.028 227.381 216.019 229.579 223.838 229.106C237.34 228.287 243.067 229.106 258.613 227.06C267.062 225.948 277.432 216.014 277.432 216.014C277.432 216.014 269.502 226.082 262.295 229.106C257.063 231.3 247.976 231.56 247.976 231.56C247.976 231.56 261.653 237.028 270.477 235.651C278.174 234.45 282.316 231.825 288.479 227.06C294.031 222.766 300.343 213.559 300.343 213.559C300.343 213.559 300.96 217.624 300.343 220.105C298.867 226.042 288.479 230.333 288.479 230.333C288.479 230.333 294.283 234.816 298.706 235.651C304.127 236.676 307.849 235.972 312.616 233.197C317.019 230.633 321.208 223.378 321.208 223.378C321.208 223.378 317.218 234.815 310.98 237.697C308.164 238.998 303.207 239.333 303.207 239.333C303.207 239.333 305.05 243.305 307.298 244.652C310.45 246.541 316.708 244.652 316.708 244.652C316.708 244.652 317.667 249.113 317.935 252.016C318.539 258.556 317.907 262.332 316.708 268.79C315.36 276.043 310.98 286.791 310.98 286.791L309.753 304.792C309.753 304.792 312.686 303.094 314.663 299.883C316.618 296.706 319.289 293.262 321.208 290.064C327.345 279.836 334.352 278.821 340.027 268.79C344.655 260.61 345.628 255.11 347.391 245.879C349.491 234.884 347.39 213.559 347.39 213.559L326.117 187.376L267.614 168.966L163.698 186.558L103.967 228.287C103.967 228.287 93.738 243.963 93.3304 255.289C93.0857 262.087 93.4937 266.228 96.1942 272.472C97.6734 275.892 101.104 280.654 101.104 280.654C101.104 280.654 100.286 271.654 103.968 267.153C106.208 264.416 106.977 263.878 110.514 263.88C117.451 263.885 120.493 271.404 126.469 274.927C131.15 277.686 137.516 280.654 137.516 280.654C137.516 280.654 141.317 271.809 144.061 266.744C147.413 260.557 151.616 258.692 155.516 252.834Z" fill="#72575C"/>
<path d="M155.516 252.834C162.097 242.95 167.789 225.014 167.789 225.014C167.789 225.014 178.715 227.042 185.791 227.06C193.024 227.078 196.974 226.763 204.201 227.06C212.028 227.381 216.019 229.579 223.838 229.106C237.34 228.287 243.067 229.106 258.613 227.06C267.062 225.948 277.432 216.014 277.432 216.014C277.432 216.014 269.502 226.082 262.295 229.106C257.063 231.3 247.976 231.56 247.976 231.56C247.976 231.56 261.653 237.028 270.477 235.651C278.174 234.45 282.316 231.825 288.479 227.06C294.031 222.766 300.343 213.559 300.343 213.559C300.343 213.559 300.96 217.624 300.343 220.105C298.867 226.042 288.479 230.333 288.479 230.333C288.479 230.333 294.283 234.816 298.706 235.651C304.127 236.676 307.849 235.972 312.616 233.197C317.019 230.633 321.208 223.378 321.208 223.378C321.208 223.378 317.218 234.815 310.98 237.697C308.164 238.998 303.207 239.333 303.207 239.333C303.207 239.333 305.05 243.305 307.298 244.652C310.45 246.541 316.708 244.652 316.708 244.652C316.708 244.652 317.667 249.113 317.935 252.016C318.539 258.556 317.907 262.332 316.708 268.79C315.36 276.043 310.98 286.791 310.98 286.791L309.753 304.792C309.753 304.792 312.686 303.094 314.663 299.883C316.618 296.706 319.289 293.262 321.208 290.064C327.345 279.836 334.352 278.821 340.027 268.79C344.655 260.61 345.628 255.11 347.391 245.879C349.491 234.884 347.39 213.559 347.39 213.559L326.117 187.376L267.614 168.966L163.698 186.558L103.967 228.287C103.967 228.287 93.738 243.963 93.3304 255.289C93.0857 262.087 93.4937 266.228 96.1942 272.472C97.6734 275.892 101.104 280.654 101.104 280.654C101.104 280.654 100.286 271.654 103.968 267.153C106.208 264.416 106.977 263.878 110.514 263.88C117.451 263.885 120.493 271.404 126.469 274.927C131.15 277.686 137.516 280.654 137.516 280.654C137.516 280.654 141.317 271.809 144.061 266.744C147.413 260.557 151.616 258.692 155.516 252.834Z" stroke="black"/>
</g>
<g filter="url(#filter9_i_710_2088)">
<path d="M350.801 228.599C349.781 230.601 347.932 233.62 347.932 233.62C347.932 233.62 345.486 224.507 341.784 219.632C335.954 211.957 329.29 210.086 320.06 205.645C302.404 197.151 290.065 196.59 270.054 194.527C245.388 191.984 231.011 193.42 206.522 197.037C190.903 199.344 182.073 200.944 167.172 205.645C151.077 210.723 141.679 213.718 127.823 222.502C115.632 230.23 106.984 234.343 100.361 246.172C97.2649 251.702 95.4521 255.089 95.0326 261.236C94.512 268.865 100.361 280.244 100.361 280.244C100.361 280.244 95.1474 276.445 92.5733 273.43C88.9735 269.213 88.1954 266.141 86.0151 261.236C82.7074 253.794 82.1984 249.23 79.8668 241.51C75.2743 226.304 69.0647 218.144 68.7999 202.417C68.6336 192.533 70.1562 186.984 72.4889 177.312C76.3465 161.318 79.1287 152.014 88.4745 137.86C99.4147 121.292 109.114 113.597 126.184 101.637C141.034 91.2317 150.162 85.5623 167.992 79.759C188.022 73.24 200.743 71.8659 222.097 72.586C236.034 73.056 243.991 74.0921 257.347 77.6071C275.583 82.4061 285.155 87.4692 300.795 96.9742C315.502 105.912 324.421 111.115 334.816 123.873C343.253 134.229 346.307 141.188 350.801 153.282C358.164 173.097 360.187 185.721 356.95 206.362C355.561 215.214 354.958 220.438 350.801 228.599Z" fill="#FFB119"/>
</g>
<path d="M350.801 228.599C349.781 230.601 347.932 233.62 347.932 233.62C347.932 233.62 345.486 224.507 341.784 219.632C335.954 211.957 329.29 210.086 320.06 205.645C302.404 197.151 290.065 196.59 270.054 194.527C245.388 191.984 231.011 193.42 206.522 197.037C190.903 199.344 182.073 200.944 167.172 205.645C151.077 210.723 141.679 213.718 127.823 222.502C115.632 230.23 106.984 234.343 100.361 246.172C97.2649 251.702 95.4521 255.089 95.0326 261.236C94.512 268.865 100.361 280.244 100.361 280.244C100.361 280.244 95.1474 276.445 92.5733 273.43C88.9735 269.213 88.1954 266.141 86.0151 261.236C82.7074 253.794 82.1984 249.23 79.8668 241.51C75.2743 226.304 69.0647 218.144 68.7999 202.417C68.6336 192.533 70.1562 186.984 72.4889 177.312C76.3465 161.318 79.1287 152.014 88.4745 137.86C99.4147 121.292 109.114 113.597 126.184 101.637C141.034 91.2317 150.162 85.5623 167.992 79.759C188.022 73.24 200.743 71.8659 222.097 72.586C236.034 73.056 243.991 74.0921 257.347 77.6071C275.583 82.4061 285.155 87.4692 300.795 96.9742C315.502 105.912 324.421 111.115 334.816 123.873C343.253 134.229 346.307 141.188 350.801 153.282C358.164 173.097 360.187 185.721 356.95 206.362C355.561 215.214 354.958 220.438 350.801 228.599Z" stroke="black"/>
<g filter="url(#filter10_d_710_2088)">
<path d="M243.071 303.972C243.071 303.972 248.979 308.366 247.833 311.773C247.393 313.079 245.792 314.609 245.792 314.609" stroke="#72575C"/>
</g>
<path d="M256.16 328.929C256.16 328.929 252.289 329.711 250.023 328.929C246.599 327.747 243.887 321.974 243.887 321.974C243.887 321.974 239.524 325.655 236.113 326.474C233.317 327.146 228.749 326.474 228.749 326.474" stroke="#FFAA8C" stroke-width="3" stroke-linecap="round"/>
<g filter="url(#filter11_d_710_2088)">
<path d="M301.98 270.286C301.98 270.286 292.925 269.643 287.252 270.286C280.645 271.035 272.933 277.241 272.933 277.241" stroke="#D88272" stroke-width="3" stroke-linecap="round"/>
</g>
<g filter="url(#filter12_d_710_2088)">
<path d="M220.977 269.101C220.977 269.101 208.045 260.023 198.475 257.646C188.241 255.104 171.474 257.646 171.474 257.646" stroke="#D88272" stroke-width="3" stroke-linecap="round"/>
</g>
<path d="M176.9 289.59C176.9 301.563 186.606 311.269 198.579 311.269C210.552 311.269 220.258 301.563 220.258 289.59C220.258 277.617 210.552 267.911 198.579 267.911C186.606 267.911 176.9 277.617 176.9 289.59Z" fill="#F7F7F7" stroke="black"/>
<circle cx="16.9603" cy="16.9603" r="16.9603" transform="matrix(-1 5.15602e-08 2.79414e-08 1 218.922 274)" fill="#484747"/>
<circle cx="16.308" cy="16.308" r="15.808" transform="matrix(-1 5.15602e-08 2.79414e-08 1 301.641 277.849)" fill="#F7F7F7" stroke="black"/>
<circle cx="12.3941" cy="12.3941" r="12.3941" transform="matrix(-1 5.15602e-08 2.79414e-08 1 299.789 284.373)" fill="#484747"/>
<rect x="88" y="385" width="230" height="113" fill="#1A202C"/>
<path d="M122.697 398.226C120.532 393.581 122.696 384.832 122.696 384.832H168.734C168.734 384.832 167.988 389.797 166.733 392.645C164.901 396.804 162.962 398.668 159.727 401.575C154.751 406.046 151.104 408.768 144.715 408.831C140.259 408.875 137.823 407.382 133.706 405.482C129.091 403.352 124.999 403.169 122.697 398.226Z" fill="#646464"/>
<g filter="url(#filter13_d_710_2088)">
<path d="M167.349 382.829C167.138 379.465 164.335 374.742 164.335 374.742C164.335 374.742 149.793 368.337 140.849 370.87C133.796 372.867 125.551 381.746 125.551 381.746C125.551 381.746 122.281 392.803 126.202 396.819C128.334 399.003 130.273 399.348 133.111 400.474C139.097 402.849 143.27 404.77 149.426 402.879C153.058 401.763 154.832 400.226 157.68 397.759L157.774 397.677C162.989 393.159 167.781 389.715 167.349 382.829Z" fill="#FFF5F1"/>
<path d="M167.349 382.829C167.138 379.465 164.335 374.742 164.335 374.742C164.335 374.742 149.793 368.337 140.849 370.87C133.796 372.867 125.551 381.746 125.551 381.746C125.551 381.746 122.281 392.803 126.202 396.819C128.334 399.003 130.273 399.348 133.111 400.474C139.097 402.849 143.27 404.77 149.426 402.879C153.058 401.763 154.832 400.226 157.68 397.759L157.774 397.677C162.989 393.159 167.781 389.715 167.349 382.829Z" stroke="black"/>
</g>
<defs>
<filter id="filter0_d_710_2088" x="150.625" y="450.553" width="60.3359" height="43.8605" filterUnits="userSpaceOnUse" color-interpolation-filters="sRGB">
<feFlood flood-opacity="0" result="BackgroundImageFix"/>
<feColorMatrix in="SourceAlpha" type="matrix" values="0 0 0 0 0 0 0 0 0 0 0 0 0 0 0 0 0 0 127 0" result="hardAlpha"/>
<feOffset dy="5"/>
<feGaussianBlur stdDeviation="2"/>
<feComposite in2="hardAlpha" operator="out"/>
<feColorMatrix type="matrix" values="0 0 0 0 0 0 0 0 0 0 0 0 0 0 0 0 0 0 0.25 0"/>
<feBlend mode="normal" in2="BackgroundImageFix" result="effect1_dropShadow_710_2088"/>
<feBlend mode="normal" in="SourceGraphic" in2="effect1_dropShadow_710_2088" result="shape"/>
</filter>
<filter id="filter1_d_710_2088" x="120.77" y="413.423" width="150.004" height="51.5969" filterUnits="userSpaceOnUse" color-interpolation-filters="sRGB">
<feFlood flood-opacity="0" result="BackgroundImageFix"/>
<feColorMatrix in="SourceAlpha" type="matrix" values="0 0 0 0 0 0 0 0 0 0 0 0 0 0 0 0 0 0 127 0" result="hardAlpha"/>
<feOffset dy="5"/>
<feGaussianBlur stdDeviation="2"/>
<feComposite in2="hardAlpha" operator="out"/>
<feColorMatrix type="matrix" values="0 0 0 0 0 0 0 0 0 0 0 0 0 0 0 0 0 0 0.25 0"/>
<feBlend mode="normal" in2="BackgroundImageFix" result="effect1_dropShadow_710_2088"/>
<feBlend mode="normal" in="SourceGraphic" in2="effect1_dropShadow_710_2088" result="shape"/>
</filter>
<filter id="filter2_d_710_2088" x="221.621" y="429.792" width="66.0898" height="45.038" filterUnits="userSpaceOnUse" color-interpolation-filters="sRGB">
<feFlood flood-opacity="0" result="BackgroundImageFix"/>
<feColorMatrix in="SourceAlpha" type="matrix" values="0 0 0 0 0 0 0 0 0 0 0 0 0 0 0 0 0 0 127 0" result="hardAlpha"/>
<feOffset dy="5"/>
<feGaussianBlur stdDeviation="2"/>
<feComposite in2="hardAlpha" operator="out"/>
<feColorMatrix type="matrix" values="0 0 0 0 0 0 0 0 0 0 0 0 0 0 0 0 0 0 0.25 0"/>
<feBlend mode="normal" in2="BackgroundImageFix" result="effect1_dropShadow_710_2088"/>
<feBlend mode="normal" in="SourceGraphic" in2="effect1_dropShadow_710_2088" result="shape"/>
</filter>
<filter id="filter3_d_710_2088" x="256.387" y="371.364" width="38.0391" height="40.6209" filterUnits="userSpaceOnUse" color-interpolation-filters="sRGB">
<feFlood flood-opacity="0" result="BackgroundImageFix"/>
<feColorMatrix in="SourceAlpha" type="matrix" values="0 0 0 0 0 0 0 0 0 0 0 0 0 0 0 0 0 0 127 0" result="hardAlpha"/>
<feOffset dy="4"/>
<feGaussianBlur stdDeviation="2"/>
<feComposite in2="hardAlpha" operator="out"/>
<feColorMatrix type="matrix" values="0 0 0 0 0 0 0 0 0 0 0 0 0 0 0 0 0 0 0.25 0"/>
<feBlend mode="normal" in2="BackgroundImageFix" result="effect1_dropShadow_710_2088"/>
<feBlend mode="normal" in="SourceGraphic" in2="effect1_dropShadow_710_2088" result="shape"/>
</filter>
<filter id="filter4_d_710_2088" x="114.402" y="348.258" width="153.598" height="110.421" filterUnits="userSpaceOnUse" color-interpolation-filters="sRGB">
<feFlood flood-opacity="0" result="BackgroundImageFix"/>
<feColorMatrix in="SourceAlpha" type="matrix" values="0 0 0 0 0 0 0 0 0 0 0 0 0 0 0 0 0 0 127 0" result="hardAlpha"/>
<feOffset dy="4"/>
<feGaussianBlur stdDeviation="2"/>
<feComposite in2="hardAlpha" operator="out"/>
<feColorMatrix type="matrix" values="0 0 0 0 0 0 0 0 0 0 0 0 0 0 0 0 0 0 0.25 0"/>
<feBlend mode="normal" in2="BackgroundImageFix" result="effect1_dropShadow_710_2088"/>
<feBlend mode="normal" in="SourceGraphic" in2="effect1_dropShadow_710_2088" result="shape"/>
</filter>
<filter id="filter5_d_710_2088" x="108.918" y="344" width="71.1445" height="83.3135" filterUnits="userSpaceOnUse" color-interpolation-filters="sRGB">
<feFlood flood-opacity="0" result="BackgroundImageFix"/>
<feColorMatrix in="SourceAlpha" type="matrix" values="0 0 0 0 0 0 0 0 0 0 0 0 0 0 0 0 0 0 127 0" result="hardAlpha"/>
<feOffset dy="4"/>
<feGaussianBlur stdDeviation="2"/>
<feComposite in2="hardAlpha" operator="out"/>
<feColorMatrix type="matrix" values="0 0 0 0 0 0 0 0 0 0 0 0 0 0 0 0 0 0 0.25 0"/>
<feBlend mode="normal" in2="BackgroundImageFix" result="effect1_dropShadow_710_2088"/>
<feBlend mode="normal" in="SourceGraphic" in2="effect1_dropShadow_710_2088" result="shape"/>
</filter>
<filter id="filter6_di_710_2088" x="138.09" y="320.869" width="146.219" height="58.0165" filterUnits="userSpaceOnUse" color-interpolation-filters="sRGB">
<feFlood flood-opacity="0" result="BackgroundImageFix"/>
<feColorMatrix in="SourceAlpha" type="matrix" values="0 0 0 0 0 0 0 0 0 0 0 0 0 0 0 0 0 0 127 0" result="hardAlpha"/>
<feOffset dx="5" dy="5"/>
<feGaussianBlur stdDeviation="2"/>
<feComposite in2="hardAlpha" operator="out"/>
<feColorMatrix type="matrix" values="0 0 0 0 0 0 0 0 0 0 0 0 0 0 0 0 0 0 0.25 0"/>
<feBlend mode="normal" in2="BackgroundImageFix" result="effect1_dropShadow_710_2088"/>
<feBlend mode="normal" in="SourceGraphic" in2="effect1_dropShadow_710_2088" result="shape"/>
<feColorMatrix in="SourceAlpha" type="matrix" values="0 0 0 0 0 0 0 0 0 0 0 0 0 0 0 0 0 0 127 0" result="hardAlpha"/>
<feOffset dy="4"/>
<feGaussianBlur stdDeviation="2"/>
<feComposite in2="hardAlpha" operator="arithmetic" k2="-1" k3="1"/>
<feColorMatrix type="matrix" values="0 0 0 0 0 0 0 0 0 0 0 0 0 0 0 0 0 0 0.25 0"/>
<feBlend mode="normal" in2="shape" result="effect2_innerShadow_710_2088"/>
</filter>
<filter id="filter7_d_710_2088" x="96.3555" y="189.226" width="230.684" height="166.845" filterUnits="userSpaceOnUse" color-interpolation-filters="sRGB">
<feFlood flood-opacity="0" result="BackgroundImageFix"/>
<feColorMatrix in="SourceAlpha" type="matrix" values="0 0 0 0 0 0 0 0 0 0 0 0 0 0 0 0 0 0 127 0" result="hardAlpha"/>
<feOffset dy="4"/>
<feGaussianBlur stdDeviation="2"/>
<feComposite in2="hardAlpha" operator="out"/>
<feColorMatrix type="matrix" values="0 0 0 0 0 0 0 0 0 0 0 0 0 0 0 0 0 0 0.25 0"/>
<feBlend mode="normal" in2="BackgroundImageFix" result="effect1_dropShadow_710_2088"/>
<feBlend mode="normal" in="SourceGraphic" in2="effect1_dropShadow_710_2088" result="shape"/>
</filter>
<filter id="filter8_di_710_2088" x="88.7695" y="168.453" width="265.055" height="145.243" filterUnits="userSpaceOnUse" color-interpolation-filters="sRGB">
<feFlood flood-opacity="0" result="BackgroundImageFix"/>
<feColorMatrix in="SourceAlpha" type="matrix" values="0 0 0 0 0 0 0 0 0 0 0 0 0 0 0 0 0 0 127 0" result="hardAlpha"/>
<feOffset dy="4"/>
<feGaussianBlur stdDeviation="2"/>
<feComposite in2="hardAlpha" operator="out"/>
<feColorMatrix type="matrix" values="0 0 0 0 0 0 0 0 0 0 0 0 0 0 0 0 0 0 0.25 0"/>
<feBlend mode="normal" in2="BackgroundImageFix" result="effect1_dropShadow_710_2088"/>
<feBlend mode="normal" in="SourceGraphic" in2="effect1_dropShadow_710_2088" result="shape"/>
<feColorMatrix in="SourceAlpha" type="matrix" values="0 0 0 0 0 0 0 0 0 0 0 0 0 0 0 0 0 0 127 0" result="hardAlpha"/>
<feOffset dx="10" dy="10"/>
<feGaussianBlur stdDeviation="2.5"/>
<feComposite in2="hardAlpha" operator="arithmetic" k2="-1" k3="1"/>
<feColorMatrix type="matrix" values="0 0 0 0 0 0 0 0 0 0 0 0 0 0 0 0 0 0 0.25 0"/>
<feBlend mode="normal" in2="shape" result="effect2_innerShadow_710_2088"/>
</filter>
<filter id="filter9_i_710_2088" x="68.2891" y="71.9135" width="300.652" height="223.735" filterUnits="userSpaceOnUse" color-interpolation-filters="sRGB">
<feFlood flood-opacity="0" result="BackgroundImageFix"/>
<feBlend mode="normal" in="SourceGraphic" in2="BackgroundImageFix" result="shape"/>
<feColorMatrix in="SourceAlpha" type="matrix" values="0 0 0 0 0 0 0 0 0 0 0 0 0 0 0 0 0 0 127 0" result="hardAlpha"/>
<feOffset dx="10" dy="15"/>
<feGaussianBlur stdDeviation="7.5"/>
<feComposite in2="hardAlpha" operator="arithmetic" k2="-1" k3="1"/>
<feColorMatrix type="matrix" values="0 0 0 0 0 0 0 0 0 0 0 0 0 0 0 0 0 0 0.25 0"/>
<feBlend mode="normal" in2="shape" result="effect1_innerShadow_710_2088"/>
</filter>
<filter id="filter10_d_710_2088" x="238.773" y="303.571" width="13.707" height="19.3995" filterUnits="userSpaceOnUse" color-interpolation-filters="sRGB">
<feFlood flood-opacity="0" result="BackgroundImageFix"/>
<feColorMatrix in="SourceAlpha" type="matrix" values="0 0 0 0 0 0 0 0 0 0 0 0 0 0 0 0 0 0 127 0" result="hardAlpha"/>
<feOffset dy="4"/>
<feGaussianBlur stdDeviation="2"/>
<feComposite in2="hardAlpha" operator="out"/>
<feColorMatrix type="matrix" values="0 0 0 0 0 0 0 0 0 0 0 0 0 0 0 0 0 0 0.25 0"/>
<feBlend mode="normal" in2="BackgroundImageFix" result="effect1_dropShadow_710_2088"/>
<feBlend mode="normal" in="SourceGraphic" in2="effect1_dropShadow_710_2088" result="shape"/>
</filter>
<filter id="filter11_d_710_2088" x="267.434" y="268.5" width="40.0469" height="18.241" filterUnits="userSpaceOnUse" color-interpolation-filters="sRGB">
<feFlood flood-opacity="0" result="BackgroundImageFix"/>
<feColorMatrix in="SourceAlpha" type="matrix" values="0 0 0 0 0 0 0 0 0 0 0 0 0 0 0 0 0 0 127 0" result="hardAlpha"/>
<feOffset dy="4"/>
<feGaussianBlur stdDeviation="2"/>
<feComposite in2="hardAlpha" operator="out"/>
<feColorMatrix type="matrix" values="0 0 0 0 0 0 0 0 0 0 0 0 0 0 0 0 0 0 0.25 0"/>
<feBlend mode="normal" in2="BackgroundImageFix" result="effect1_dropShadow_710_2088"/>
<feBlend mode="normal" in="SourceGraphic" in2="effect1_dropShadow_710_2088" result="shape"/>
</filter>
<filter id="filter12_d_710_2088" x="165.973" y="255.016" width="60.5039" height="23.5854" filterUnits="userSpaceOnUse" color-interpolation-filters="sRGB">
<feFlood flood-opacity="0" result="BackgroundImageFix"/>
<feColorMatrix in="SourceAlpha" type="matrix" values="0 0 0 0 0 0 0 0 0 0 0 0 0 0 0 0 0 0 127 0" result="hardAlpha"/>
<feOffset dy="4"/>
<feGaussianBlur stdDeviation="2"/>
<feComposite in2="hardAlpha" operator="out"/>
<feColorMatrix type="matrix" values="0 0 0 0 0 0 0 0 0 0 0 0 0 0 0 0 0 0 0.25 0"/>
<feBlend mode="normal" in2="BackgroundImageFix" result="effect1_dropShadow_710_2088"/>
<feBlend mode="normal" in="SourceGraphic" in2="effect1_dropShadow_710_2088" result="shape"/>
</filter>
<filter id="filter13_d_710_2088" x="119.773" y="369.777" width="52.1016" height="42.3666" filterUnits="userSpaceOnUse" color-interpolation-filters="sRGB">
<feFlood flood-opacity="0" result="BackgroundImageFix"/>
<feColorMatrix in="SourceAlpha" type="matrix" values="0 0 0 0 0 0 0 0 0 0 0 0 0 0 0 0 0 0 127 0" result="hardAlpha"/>
<feOffset dy="4"/>
<feGaussianBlur stdDeviation="2"/>
<feComposite in2="hardAlpha" operator="out"/>
<feColorMatrix type="matrix" values="0 0 0 0 0 0 0 0 0 0 0 0 0 0 0 0 0 0 0.25 0"/>
<feBlend mode="normal" in2="BackgroundImageFix" result="effect1_dropShadow_710_2088"/>
<feBlend mode="normal" in="SourceGraphic" in2="effect1_dropShadow_710_2088" result="shape"/>
</filter>
</defs>
</svg>
