<svg width="120" height="142" viewBox="0 0 120 142" fill="none" xmlns="http://www.w3.org/2000/svg">
<ellipse cx="76" cy="139" rx="36" ry="2" fill="#CBCBCB"/>
<line y1="-1" x2="39.8175" y2="-1" transform="matrix(0.325981 0.945377 0.945369 -0.326001 75.9883 98.4126)" stroke="#B2949A" stroke-width="2"/>
<line y1="-1" x2="40.9853" y2="-1" transform="matrix(0.190004 -0.981783 -0.981781 -0.190017 42.2305 136.055)" stroke="#B2949A" stroke-width="2"/>
<ellipse cx="6.48986" cy="3.24504" rx="6.48986" ry="3.24504" transform="matrix(-1 0 0 1 90.2617 134.758)" fill="#FF3E61"/>
<ellipse cx="6.48986" cy="3.24504" rx="6.48986" ry="3.24504" transform="matrix(-1 0 0 1 46.4609 133.459)" fill="#FF3E61"/>
<path d="M39.3976 20.2526C39.3976 20.2526 101.785 39.1258 100.266 62.2532C98.9359 82.5151 80.876 93.1177 60.9316 95.8536C36.953 99.1429 12.4734 86.3646 8.67686 62.2532C6.29589 47.132 11.2285 36.6214 21.3099 25.1769C36.5788 7.84327 72.5592 -7.39181 87.6332 10.1146C100.466 25.0182 88.5809 51.5642 72.1291 62.2532C60.4399 69.8479 36.5269 62.2532 36.5269 62.2532C29.1294 58.2296 18.9162 55.0287 21.3099 46.9013C23.649 38.9589 33.6305 40.1205 41.695 41.6874C55.5948 44.3882 72.929 65.102 60.9316 72.6809C54.5645 76.7031 47.6968 77.2392 41.695 72.6809C31.7158 65.102 48.591 48.8492 60.9316 46.9013C72.3115 45.105 84.2459 50.8008 86.1977 62.2532C88.4068 75.2159 73.8069 82.1996 60.9316 84.2672C37.9334 87.9606 50.7023 34.3798 72.1291 25.1769C82.2392 20.8345 90.395 16.6633 101.701 23.1493C121.585 34.5558 118.882 65.6009 105.434 84.2672C89.3941 106.53 36.5269 95.8536 36.5269 95.8536C36.5269 95.8536 -0.232536 66.6237 2.36036 41.6874C4.78028 18.4146 30.0281 11.5544 53.1791 10.1147C77.7107 8.58905 75.9605 19.8326 95.3849 35.0253C106.764 43.9254 112.328 48.4855 116.919 62.2532C123.054 80.6516 80.1678 84.2672 80.1678 84.2672C80.1678 84.2672 -4.16796 103.882 2.36036 72.6809C4.39405 62.9612 31.9327 50.3771 31.9327 50.3771" stroke="#B3949A" stroke-width="3" stroke-linecap="round"/>
<path d="M60.9087 52.3325C60.9087 56.3907 61.768 60.0399 63.133 62.6563C64.5107 65.2969 66.3263 66.7597 68.1965 66.7597C70.0668 66.7597 71.8824 65.2969 73.2601 62.6563C74.6251 60.0399 75.4844 56.3907 75.4844 52.3325C75.4844 48.2743 74.6251 44.625 73.2601 42.0086C71.8824 39.368 70.0668 37.9053 68.1965 37.9053C66.3263 37.9053 64.5107 39.368 63.133 42.0086C61.768 44.625 60.9087 48.2743 60.9087 52.3325Z" fill="white" stroke="black"/>
<path d="M62.21 56.2261C62.21 58.8489 62.778 61.1987 63.6718 62.8746C64.5771 64.572 65.7427 65.4612 66.9019 65.4612C68.061 65.4612 69.2266 64.572 70.1319 62.8746C71.0257 61.1987 71.5938 58.8489 71.5938 56.2261C71.5938 53.6033 71.0257 51.2535 70.1319 49.5776C69.2266 47.8802 68.061 46.991 66.9019 46.991C65.7427 46.991 64.5771 47.8802 63.6718 49.5776C62.778 51.2535 62.21 53.6033 62.21 56.2261Z" fill="#0A0909" stroke="black"/>
<path d="M36.9833 54.2792C36.9833 57.7998 37.7288 60.9623 38.9101 63.2263C40.1039 65.5146 41.6655 66.7594 43.2553 66.7594C44.8451 66.7594 46.4067 65.5146 47.6006 63.2263C48.7818 60.9623 49.5273 57.7998 49.5273 54.2792C49.5273 50.7587 48.7818 47.5962 47.6006 45.3322C46.4067 43.0439 44.8451 41.7991 43.2553 41.7991C41.6655 41.7991 40.1039 43.0439 38.9101 45.3322C37.7288 47.5962 36.9833 50.7587 36.9833 54.2792Z" fill="white" stroke="black"/>
<path d="M38.1113 57.6655C38.1113 59.9377 38.6035 61.97 39.3748 63.4161C40.1575 64.8838 41.1538 65.6309 42.1259 65.6309C43.0981 65.6309 44.0944 64.8838 44.8771 63.4161C45.6484 61.97 46.1406 59.9377 46.1406 57.6655C46.1406 55.3933 45.6484 53.3611 44.8771 51.9149C44.0944 50.4473 43.0981 49.7002 42.1259 49.7002C41.1538 49.7002 40.1575 50.4473 39.3748 51.9149C38.6035 53.3611 38.1113 55.3933 38.1113 57.6655Z" fill="#0A0909" stroke="black"/>
</svg>
