<svg width="92" height="103" viewBox="0 0 92 103" fill="none" xmlns="http://www.w3.org/2000/svg">
<line x1="32.7702" y1="65.2422" x2="18.8839" y2="85.8096" stroke="#B2949A" stroke-width="2"/>
<line x1="45.19" y1="92.7185" x2="46.9926" y2="67.2381" stroke="#B2949A" stroke-width="2"/>
<ellipse cx="20.868" cy="87.2605" rx="4.04494" ry="2.02247" transform="rotate(15 20.868 87.2605)" fill="#F42951"/>
<ellipse cx="47.4423" cy="93.5442" rx="4.04494" ry="2.02247" transform="rotate(15 47.4423 93.5442)" fill="#F42951"/>
<path d="M66.5754 23.5314C66.5754 23.5314 25.9718 24.8294 23.1553 38.9973C20.6878 51.4098 29.8502 60.706 41.4161 65.5704C55.3214 71.4187 72.1202 67.6749 78.2952 53.772C82.1679 45.0529 80.8937 37.9297 76.6705 29.4137C70.2741 16.5155 51.0703 1.53964 39.1713 9.64705C29.0413 16.5491 31.9146 34.4474 40.0949 43.5362C45.9071 49.9939 61.5286 49.2793 61.5286 49.2793C66.6312 48.0504 73.2962 47.771 73.1661 42.492C73.0391 37.3333 66.8425 36.4224 61.7347 36.0648C52.9308 35.4485 39.1538 45.1222 45.154 51.6201C48.3384 55.0687 52.3866 56.4992 56.7351 54.7233C63.9655 51.7704 56.4278 39.2638 49.3125 36.1005C42.7512 33.1834 34.6475 34.6871 31.6251 41.2667C28.2041 48.7141 35.8672 55.2735 43.2851 58.5953C56.535 64.5287 57.4907 30.2125 46.0756 21.2158C40.6894 16.9707 36.4522 13.144 28.5992 15.2247C14.7885 18.8841 11.4079 38.0096 16.4932 51.4164C22.5584 67.4066 56.1085 69.5072 56.1085 69.5072C56.1085 69.5072 82.954 57.8403 85.4154 42.4101C87.7127 28.0091 73.6192 19.8064 59.9138 15.2051C45.391 10.3293 44.631 17.3804 30.4862 23.3931C22.1999 26.9155 18.1147 28.7632 13.1299 36.311C6.46847 46.3973 31.7042 55.4922 31.7042 55.4922C31.7042 55.4922 79.3132 80.905 80.4159 61.0685C80.7594 54.8891 66.2102 42.8709 66.2102 42.8709" stroke="#B2949A" stroke-width="3" stroke-linecap="round"/>
<path d="M48.2675 39.3246C47.6191 41.7445 46.5257 43.7739 45.3062 45.1023C44.0683 46.4507 42.8074 46.9755 41.7834 46.7011C40.7594 46.4268 39.9299 45.3418 39.532 43.5551C39.1401 41.7949 39.2079 39.4907 39.8563 37.0709C40.5047 34.651 41.5981 32.6216 42.8176 31.2932C44.0555 29.9448 45.3164 29.42 46.3404 29.6943C47.3644 29.9687 48.1939 31.0537 48.5918 32.8404C48.9837 34.6005 48.9159 36.9047 48.2675 39.3246Z" fill="white" stroke="black"/>
<path d="M46.8543 41.4581C46.4376 43.0132 45.7295 44.3068 44.9461 45.1448C44.1461 46.0006 43.3686 46.2879 42.7706 46.1277C42.1727 45.9675 41.643 45.3299 41.378 44.1888C41.1185 43.0713 41.1521 41.597 41.5689 40.0418C41.9856 38.4867 42.6936 37.1931 43.477 36.3551C44.2771 35.4993 45.0546 35.212 45.6525 35.3722C46.2505 35.5325 46.7802 36.17 47.0452 37.3111C47.3046 38.4286 47.271 39.9029 46.8543 41.4581Z" fill="black" stroke="black"/>
<path d="M62.3585 44.3565C61.7968 46.4527 60.8504 48.2074 59.7984 49.3533C58.728 50.5193 57.6551 50.9539 56.8 50.7247C55.9449 50.4956 55.2331 49.5828 54.8891 48.0378C54.551 46.5195 54.6087 44.5266 55.1704 42.4305C55.7321 40.3343 56.6785 38.5795 57.7304 37.4337C58.8008 36.2677 59.8737 35.8331 60.7288 36.0622C61.5839 36.2913 62.2958 37.2041 62.6398 38.7491C62.9779 40.2675 62.9201 42.2603 62.3585 44.3565Z" fill="white" stroke="black"/>
<path d="M61.1305 46.2125C60.7703 47.5565 60.1591 48.6713 59.4865 49.3907C58.7973 50.1279 58.1447 50.3569 57.6593 50.2269C57.1739 50.0968 56.7232 49.5722 56.495 48.5891C56.2722 47.6298 56.3003 46.3588 56.6604 45.0147C57.0205 43.6706 57.6318 42.5559 58.3043 41.8365C58.9936 41.0993 59.6462 40.8703 60.1316 41.0003C60.6169 41.1304 61.0676 41.655 61.2959 42.6381C61.5186 43.5974 61.4906 44.8684 61.1305 46.2125Z" fill="black" stroke="black"/>
</svg>
