<svg width="133" height="148" viewBox="0 0 133 148" fill="none" xmlns="http://www.w3.org/2000/svg">
<line y1="-1" x2="35.8877" y2="-1" transform="matrix(0.559563 0.828788 0.828788 -0.559563 86.8203 93.3125)" stroke="#B2949A" stroke-width="2"/>
<line y1="-1" x2="36.9401" y2="-1" transform="matrix(0.43764 -0.89915 -0.89915 -0.43764 42.9531 130.556)" stroke="#B2949A" stroke-width="2"/>
<ellipse cx="5.84952" cy="2.92476" rx="5.84952" ry="2.92476" transform="matrix(-0.965926 0.258819 0.258819 0.965926 107.727 121.624)" fill="#F42951"/>
<ellipse cx="5.84952" cy="2.92476" rx="5.84952" ry="2.92476" transform="matrix(-0.965926 -0.258819 -0.258819 0.965926 47.2422 129.283)" fill="#F42951"/>
<path d="M36.7337 33.8021C36.7337 33.8021 95.4518 35.6792 99.5248 56.1679C103.093 74.118 89.8432 87.5616 73.1174 94.5961C53.0084 103.054 28.7152 97.6395 19.7852 77.534C14.1849 64.9251 16.0275 54.624 22.1348 42.3087C31.3848 23.6563 59.1561 1.99916 76.3637 13.7235C91.0129 23.7048 86.8578 49.5881 75.028 62.7318C66.6228 72.0705 44.0321 71.0371 44.0321 71.0371C36.653 69.2599 27.0145 68.8558 27.2026 61.2217C27.3864 53.7615 36.3473 52.4443 43.734 51.9271C56.4655 51.0358 76.389 65.0253 67.7118 74.4222C63.1067 79.4092 57.2526 81.478 50.964 78.9098C40.508 74.6395 51.4085 56.5534 61.6981 51.9787C71.1867 47.7602 82.9056 49.9348 87.2764 59.4498C92.2236 70.2197 81.1418 79.7055 70.4146 84.5092C51.2535 93.0896 49.8713 43.464 66.3791 30.4535C74.1682 24.3145 80.2958 18.7806 91.6523 21.7896C111.624 27.0815 116.513 54.7395 109.159 74.1276C100.388 97.2515 51.8702 100.289 51.8702 100.289C51.8702 100.289 13.048 83.4173 9.48848 61.1032C6.16637 40.2776 26.5473 28.4153 46.3672 21.7612C67.3691 14.7102 68.4681 24.907 88.9234 33.6022C100.907 38.696 106.814 41.3681 114.023 52.2831C123.656 66.8693 87.162 80.0217 87.162 80.0217C87.162 80.0217 18.3131 116.772 16.7185 88.0858C16.2217 79.1495 37.2618 61.7697 37.2618 61.7697" stroke="#B2949A" stroke-width="3" stroke-linecap="round"/>
<path d="M62.9905 56.6998C63.9356 60.2267 65.5316 63.1957 67.324 65.1481C69.1348 67.1207 71.0389 67.9541 72.6405 67.525C74.2421 67.0958 75.4744 65.422 76.0564 62.8083C76.6324 60.2213 76.5301 56.852 75.5851 53.3251C74.6401 49.7981 73.044 46.8292 71.2516 44.8767C69.4408 42.9042 67.5367 42.0708 65.9351 42.4999C64.3335 42.9291 63.1012 44.6029 62.5193 47.2166C61.9432 49.8036 62.0455 53.1728 62.9905 56.6998Z" fill="white" stroke="black"/>
<path d="M65.0339 59.7853C65.6441 62.0625 66.6834 63.968 67.8459 65.2115C69.0251 66.4728 70.2296 66.9593 71.2126 66.6959C72.1957 66.4325 72.9956 65.4089 73.3861 63.727C73.7711 62.0688 73.7185 59.899 73.1083 57.6218C72.4981 55.3446 71.4588 53.4392 70.2963 52.1957C69.1171 50.9343 67.9126 50.4478 66.9296 50.7112C65.9465 50.9746 65.1466 51.9982 64.7561 53.6801C64.3711 55.3384 64.4237 57.5082 65.0339 59.7853Z" fill="black" stroke="black"/>
<path d="M42.6176 63.9756C43.4372 67.0345 44.8208 69.6062 46.3709 71.2948C47.9395 73.0034 49.5717 73.7064 50.929 73.3427C52.2864 72.979 53.3484 71.5541 53.8525 69.2901C54.3507 67.0527 54.263 64.1337 53.4434 61.0748C52.6238 58.016 51.2403 55.4442 49.6901 53.7557C48.1215 52.047 46.4894 51.3441 45.132 51.7078C43.7746 52.0715 42.7126 53.4963 42.2085 55.7604C41.7103 57.9978 41.798 60.9167 42.6176 63.9756Z" fill="white" stroke="black"/>
<path d="M44.3934 66.6598C44.9218 68.6317 45.821 70.2785 46.8233 71.3505C47.8422 72.4404 48.8662 72.8427 49.6864 72.6229C50.5066 72.4031 51.1922 71.5428 51.5297 70.0895C51.8616 68.6599 51.817 66.7841 51.2887 64.8122C50.7603 62.8403 49.861 61.1936 48.8588 60.1215C47.8399 59.0316 46.8159 58.6294 45.9957 58.8491C45.1755 59.0689 44.4898 59.9293 44.1524 61.3826C43.8204 62.8121 43.8651 64.6879 44.3934 66.6598Z" fill="black" stroke="black"/>
</svg>
