<svg width="155" height="181" viewBox="0 0 155 199" fill="none" xmlns="http://www.w3.org/2000/svg">
<ellipse cx="87.1669" cy="184.309" rx="35.8348" ry="3.44566" fill="#8F92B8"/>
<g filter="url(#filter0_d_721_2142)">
<path d="M28.6847 106.6C26.6381 102.106 25.8612 99.3097 25.2898 94.3916C24.6184 88.6131 25.9018 85.3334 26.294 79.5293L27.2982 64.6669C27.2982 64.6669 79.8941 48.5114 99.4006 68.8846C109.386 79.314 114.062 102.827 114.062 102.827C114.062 102.827 116.57 102.035 118.882 100.216C120.693 98.792 122.297 97.0026 124.104 95.7975C125.618 94.7883 127.088 94.3991 128.724 95.195C129.925 95.7793 130.291 96.6346 130.933 97.8059C132.478 100.626 131.817 102.949 130.933 106.04C129.646 110.54 127.616 113.468 123.301 115.279C121.386 116.083 118.079 116.283 118.079 116.283C118.079 116.283 115.74 119.2 114.062 120.903C111.679 123.32 110.353 124.794 107.434 126.526C105.229 127.835 101.409 129.137 101.409 129.137C101.409 129.137 90.1329 130.631 82.9315 131.748C73.413 133.225 68.258 135.69 58.6296 135.966C51.9489 136.158 48.5414 136.348 42.1607 134.359C39.3093 133.471 37.238 133.443 34.9304 131.547C32.5268 129.573 31.0408 128.089 30.11 125.12C29.4724 123.087 29.5075 119.698 29.5075 119.698L24.6873 111.865C24.6873 111.865 21.403 105.549 24.0847 104.635C25.9317 104.005 27.8677 104.835 28.6847 106.6Z" fill="#FFF5F1"/>
<path d="M28.7041 106.643C26.643 102.124 25.863 99.3252 25.2898 94.3916C24.6184 88.6131 25.9018 85.3334 26.294 79.5293C26.6862 73.7252 27.2982 64.6669 27.2982 64.6669C27.2982 64.6669 79.8941 48.5114 99.4005 68.8846C109.386 79.314 114.062 102.827 114.062 102.827M28.7041 106.643C27.8987 104.848 25.9465 104 24.0847 104.635C21.403 105.549 24.6873 111.865 24.6873 111.865L29.5075 119.698M28.7041 106.643C29.0178 111.741 29.5075 119.698 29.5075 119.698M29.5075 119.698C29.5075 119.698 29.4724 123.087 30.11 125.12C31.0408 128.089 32.5268 129.573 34.9304 131.547C37.238 133.443 39.3093 133.471 42.1607 134.359C48.5414 136.348 51.9489 136.158 58.6296 135.966C68.258 135.69 73.413 133.225 82.9315 131.748C90.1329 130.631 101.409 129.137 101.409 129.137C101.409 129.137 105.229 127.835 107.434 126.526C110.353 124.794 111.679 123.32 114.062 120.903C115.74 119.2 118.079 116.283 118.079 116.283M118.079 116.283C118.079 116.283 121.386 116.083 123.301 115.279C127.616 113.468 129.646 110.54 130.933 106.04C131.817 102.949 132.478 100.626 130.933 97.8059C130.291 96.6346 129.925 95.7793 128.724 95.195C127.088 94.3991 125.618 94.7883 124.104 95.7975C122.297 97.0026 120.693 98.792 118.882 100.216C116.57 102.035 114.062 102.827 114.062 102.827M118.079 116.283C118.079 116.283 117.523 112.434 117.276 109.455C117.049 106.725 114.062 102.827 114.062 102.827" stroke="black"/>
</g>
<g filter="url(#filter1_di_721_2142)">
<path d="M105.028 89.5713C101.797 84.7189 99.0028 75.9141 99.0028 75.9141C99.0028 75.9141 93.639 76.9096 90.1657 76.9183C86.6145 76.9271 84.6757 76.7726 81.1275 76.9183C77.2851 77.076 75.326 78.1551 71.4874 77.9225C64.8593 77.5208 62.0475 77.9225 54.4158 76.9183C50.268 76.3725 45.1771 71.4955 45.1771 71.4955C45.1771 71.4955 49.0701 76.4382 52.6082 77.9225C55.1766 79 59.6377 79.1275 59.6377 79.1275C59.6377 79.1275 52.9235 81.8119 48.5914 81.136C44.8131 80.5464 42.7794 79.2575 39.7543 76.9183C37.0285 74.8104 33.9299 70.2905 33.9299 70.2905C33.9299 70.2905 33.6271 72.2861 33.9299 73.504C34.6546 76.4183 39.7543 78.525 39.7543 78.525C39.7543 78.525 36.9049 80.7256 34.7333 81.136C32.0724 81.6387 30.2448 81.2935 27.9046 79.9309C25.7431 78.6723 23.6869 75.1107 23.6869 75.1107C23.6869 75.1107 25.6455 80.7252 28.708 82.1402C30.0905 82.7789 32.524 82.9435 32.524 82.9435C32.524 82.9435 31.6191 84.8933 30.5156 85.5545C28.9681 86.4817 25.8962 85.5545 25.8962 85.5545C25.8962 85.5545 25.4253 87.7444 25.2937 89.1696C24.9971 92.3804 25.3072 94.234 25.8962 97.4042C26.5577 100.965 28.708 106.241 28.708 106.241L29.3102 115.078C29.3102 115.078 27.8705 114.245 26.9001 112.668C25.9402 111.109 24.6291 109.418 23.6869 107.848C20.674 102.827 17.2344 102.329 14.4482 97.4042C12.1764 93.3887 11.6984 90.6887 10.833 86.157C9.80231 80.7591 10.8335 70.2905 10.8335 70.2905L21.2768 57.4366L49.9973 48.3987L101.011 57.0349L130.334 77.5208C130.334 77.5208 135.356 85.2162 135.556 90.7764C135.676 94.1139 135.476 96.1465 134.15 99.2118C133.424 100.891 131.74 103.229 131.74 103.229C131.74 103.229 132.141 98.8101 130.334 96.6008C129.234 95.2571 128.857 94.993 127.12 94.9941C123.715 94.9962 122.221 98.6877 119.288 100.417C116.989 101.772 113.865 103.229 113.865 103.229C113.865 103.229 111.999 98.8865 110.652 96.4C109.006 93.3624 106.943 92.447 105.028 89.5713Z" fill="#72575C"/>
<path d="M105.028 89.5713C101.797 84.7189 99.0028 75.9141 99.0028 75.9141C99.0028 75.9141 93.639 76.9096 90.1657 76.9183C86.6145 76.9271 84.6757 76.7726 81.1275 76.9183C77.2851 77.076 75.326 78.1551 71.4874 77.9225C64.8593 77.5208 62.0475 77.9225 54.4158 76.9183C50.268 76.3725 45.1771 71.4955 45.1771 71.4955C45.1771 71.4955 49.0701 76.4382 52.6082 77.9225C55.1766 79 59.6377 79.1275 59.6377 79.1275C59.6377 79.1275 52.9235 81.8119 48.5914 81.136C44.8131 80.5464 42.7794 79.2575 39.7543 76.9183C37.0285 74.8104 33.9299 70.2905 33.9299 70.2905C33.9299 70.2905 33.6271 72.2861 33.9299 73.504C34.6546 76.4183 39.7543 78.525 39.7543 78.525C39.7543 78.525 36.9049 80.7256 34.7333 81.136C32.0724 81.6387 30.2448 81.2935 27.9046 79.9309C25.7431 78.6723 23.6869 75.1107 23.6869 75.1107C23.6869 75.1107 25.6455 80.7252 28.708 82.1402C30.0905 82.7789 32.524 82.9435 32.524 82.9435C32.524 82.9435 31.6191 84.8933 30.5156 85.5545C28.9681 86.4817 25.8962 85.5545 25.8962 85.5545C25.8962 85.5545 25.4253 87.7444 25.2937 89.1696C24.9971 92.3804 25.3072 94.234 25.8962 97.4042C26.5577 100.965 28.708 106.241 28.708 106.241L29.3102 115.078C29.3102 115.078 27.8705 114.245 26.9001 112.668C25.9402 111.109 24.6291 109.418 23.6869 107.848C20.674 102.827 17.2344 102.329 14.4482 97.4042C12.1764 93.3887 11.6984 90.6887 10.833 86.157C9.80231 80.7591 10.8335 70.2905 10.8335 70.2905L21.2768 57.4366L49.9973 48.3987L101.011 57.0349L130.334 77.5208C130.334 77.5208 135.356 85.2162 135.556 90.7764C135.676 94.1139 135.476 96.1465 134.15 99.2118C133.424 100.891 131.74 103.229 131.74 103.229C131.74 103.229 132.141 98.8101 130.334 96.6008C129.234 95.2571 128.857 94.993 127.12 94.9941C123.715 94.9962 122.221 98.6877 119.288 100.417C116.989 101.772 113.865 103.229 113.865 103.229C113.865 103.229 111.999 98.8865 110.652 96.4C109.006 93.3624 106.943 92.447 105.028 89.5713Z" stroke="black"/>
</g>
<g filter="url(#filter2_di_721_2142)">
<path d="M9.16082 77.6741C9.66152 78.6571 10.5694 80.139 10.5694 80.139C10.5694 80.139 11.7702 75.6652 13.5877 73.2724C16.4498 69.5042 19.7212 68.5857 24.2523 66.4058C32.9201 62.2357 38.9776 61.9604 48.8012 60.9477C60.91 59.6994 67.9679 60.4044 79.9903 62.1802C87.6579 63.3127 91.9925 64.0979 99.3075 66.4058C107.209 68.8987 111.823 70.369 118.625 74.6809C124.609 78.4749 128.855 80.4942 132.106 86.3014C133.626 89.0162 134.516 90.6786 134.722 93.6962C134.978 97.4418 132.106 103.028 132.106 103.028C132.106 103.028 134.666 101.163 135.93 99.6825C137.697 97.6126 138.079 96.1042 139.149 93.6962C140.773 90.043 141.023 87.8023 142.167 84.0125C144.422 76.5476 147.47 72.5415 147.6 64.8212C147.682 59.969 146.935 57.2446 145.789 52.4964C143.896 44.6446 142.53 40.0774 137.942 33.129C132.571 24.9952 127.81 21.218 119.43 15.3462C112.14 10.2382 107.658 7.45498 98.905 4.60606C89.0721 1.40577 82.8273 0.731195 72.344 1.08471C65.5021 1.31542 61.5958 1.8241 55.039 3.54965C46.087 5.90557 41.3876 8.39114 33.7097 13.0573C26.4897 17.4451 22.1113 19.9992 17.0084 26.2624C12.8664 31.3462 11.367 34.7624 9.16082 40.6999C5.54645 50.4271 4.55336 56.6245 6.14252 66.7579C6.82396 71.1032 7.12031 73.6679 9.16082 77.6741Z" fill="#FFB119"/>
<path d="M9.16082 77.6741C9.66152 78.6571 10.5694 80.139 10.5694 80.139C10.5694 80.139 11.7702 75.6652 13.5877 73.2724C16.4498 69.5042 19.7212 68.5857 24.2523 66.4058C32.9201 62.2357 38.9776 61.9604 48.8012 60.9477C60.91 59.6994 67.9679 60.4044 79.9903 62.1802C87.6579 63.3127 91.9925 64.0979 99.3075 66.4058C107.209 68.8987 111.823 70.369 118.625 74.6809C124.609 78.4749 128.855 80.4942 132.106 86.3014C133.626 89.0162 134.516 90.6786 134.722 93.6962C134.978 97.4418 132.106 103.028 132.106 103.028C132.106 103.028 134.666 101.163 135.93 99.6825C137.697 97.6126 138.079 96.1042 139.149 93.6962C140.773 90.043 141.023 87.8023 142.167 84.0125C144.422 76.5476 147.47 72.5415 147.6 64.8212C147.682 59.969 146.935 57.2446 145.789 52.4964C143.896 44.6446 142.53 40.0774 137.942 33.129C132.571 24.9952 127.81 21.218 119.43 15.3462C112.14 10.2382 107.658 7.45498 98.905 4.60606C89.0721 1.40577 82.8273 0.731195 72.344 1.08471C65.5021 1.31542 61.5958 1.8241 55.039 3.54965C46.087 5.90557 41.3876 8.39114 33.7097 13.0573C26.4897 17.4451 22.1113 19.9992 17.0084 26.2624C12.8664 31.3462 11.367 34.7624 9.16082 40.6999C5.54645 50.4271 4.55336 56.6245 6.14252 66.7579C6.82396 71.1032 7.12031 73.6679 9.16082 77.6741Z" stroke="black"/>
</g>
<path d="M62.6522 185.172C54.1577 184.71 40.961 185.574 40.9612 183.164C40.9614 181.904 39.9571 178.595 39.957 175.532C40.7604 173.122 40.9612 170.109 40.9612 170.109L100.812 169.105C100.812 169.105 106.637 169.105 105.231 173.122C103.825 177.139 101.341 179.067 98.4021 181.758C96.4921 183.507 93.5816 185.172 92.7785 184.369C91.9754 183.566 74.7915 185.832 62.6522 185.172Z" fill="#FFB119" stroke="black"/>
<g filter="url(#filter3_d_721_2142)">
<path d="M95.1847 176.536C96.8337 178.085 97.8802 179.097 97.9968 181.357C98.0635 182.648 97.7936 183.424 97.1934 184.57C96.2382 186.394 95.2009 187.409 93.1766 187.784C87.7542 188.788 84.3994 188.386 78.5148 188.386C76.7075 188.386 74.8722 188.043 73.6945 186.378C72.8151 185.134 72.8316 184.083 72.8912 182.562C73.0373 178.828 75.7235 177.07 78.9164 175.13C81.8757 173.333 84.1094 172.756 87.5527 173.122C90.7995 173.467 92.8046 174.301 95.1847 176.536Z" fill="#FFF5F1"/>
<path d="M95.1847 176.536C96.8337 178.085 97.8802 179.097 97.9968 181.357C98.0635 182.648 97.7936 183.424 97.1934 184.57C96.2382 186.394 95.2009 187.409 93.1766 187.784C87.7542 188.788 84.3994 188.386 78.5148 188.386C76.7075 188.386 74.8722 188.043 73.6945 186.378C72.8151 185.134 72.8316 184.083 72.8912 182.562C73.0373 178.828 75.7235 177.07 78.9164 175.13C81.8757 173.333 84.1094 172.756 87.5527 173.122C90.7995 173.467 92.8046 174.301 95.1847 176.536Z" stroke="black"/>
</g>
<g filter="url(#filter4_d_721_2142)">
<path d="M33.3281 166.896L34.734 164.084H108.443L109.046 165.49C109.046 165.49 104.634 170.218 101.815 170.511C86.4036 172.112 80.298 172.114 65.4162 172.118L65.262 172.118C56.0039 172.12 50.8208 171.515 41.5627 171.515C38.1483 171.515 33.3281 166.896 33.3281 166.896Z" fill="#FF8A00"/>
<path d="M33.3281 166.896L34.734 164.084H108.443L109.046 165.49C109.046 165.49 104.634 170.218 101.815 170.511C86.4036 172.112 80.298 172.114 65.4162 172.118L65.262 172.118C56.0039 172.12 50.8208 171.515 41.5627 171.515C38.1483 171.515 33.3281 166.896 33.3281 166.896Z" stroke="black"/>
</g>
<path d="M27.3012 148.82L26.0962 149.824C26.0962 149.824 24.9097 148.644 25.4936 148.218C26.06 147.804 27.3012 148.82 27.3012 148.82Z" stroke="black"/>
<g filter="url(#filter5_d_721_2142)">
<path d="M55.0753 188.033C58.1903 187.411 62.7073 185.221 62.7073 185.221C62.7073 185.221 55.8939 182.823 51.8618 180.601C49.4223 179.257 48.3505 177.984 45.8365 176.785C43.441 175.643 42.0435 174.25 39.4096 174.576C37.0732 174.866 35.4436 175.597 34.1877 177.589C33.1284 179.268 32.8707 180.692 33.3843 182.61C34.1512 185.474 36.6923 186.043 39.4096 187.229C42.3882 188.53 44.3967 188.304 47.6441 188.434C50.5481 188.551 52.2251 188.601 55.0753 188.033Z" fill="#FFF5F1"/>
<path d="M55.0753 188.033C58.1903 187.411 62.7073 185.221 62.7073 185.221C62.7073 185.221 55.8939 182.823 51.8618 180.601C49.4223 179.257 48.3505 177.984 45.8365 176.785C43.441 175.643 42.0435 174.25 39.4096 174.576C37.0732 174.866 35.4436 175.597 34.1877 177.589C33.1284 179.268 32.8707 180.692 33.3843 182.61C34.1512 185.474 36.6923 186.043 39.4096 187.229C42.3882 188.53 44.3967 188.304 47.6441 188.434C50.5481 188.551 52.2251 188.601 55.0753 188.033Z" stroke="black"/>
</g>
<g filter="url(#filter6_d_721_2142)">
<path d="M21.7284 143.447C23.7923 142.568 27.4091 142.595 27.4091 142.595L29.6813 153.956C29.6813 153.956 24.3453 158.266 21.1603 156.797C19.3785 155.974 18.582 154.882 17.7519 153.104C16.6491 150.742 16.287 148.676 17.6099 146.429C18.6175 144.718 19.9014 144.225 21.7284 143.447Z" fill="#FFF5F1"/>
<path d="M21.7284 143.447C23.7923 142.568 27.4091 142.595 27.4091 142.595L29.6813 153.956C29.6813 153.956 24.3453 158.266 21.1603 156.797C19.3785 155.974 18.582 154.882 17.7519 153.104C16.6491 150.742 16.287 148.676 17.6099 146.429C18.6175 144.718 19.9014 144.225 21.7284 143.447Z" stroke="black"/>
</g>
<path d="M28.1236 155.641C27.8393 159.901 42.0413 151.096 42.0413 151.096C42.0413 151.096 42.896 145.991 42.7516 144.38C42.5446 142.072 42.2908 140.449 40.6213 138.841C39.9896 138.233 38.2265 137.66 37.355 137.563C32.2421 136.995 30.5378 136.711 25.8512 138.273C24.5495 138.707 24.9291 142.267 24.9291 142.267C24.9291 142.267 26.0138 141.274 26.3236 141.803C28.7378 145.921 28.1236 155.641 28.1236 155.641Z" fill="#FF8A00" stroke="black"/>
<g filter="url(#filter7_d_721_2142)">
<path d="M62.0468 114.677C62.0468 114.677 59.1463 116.834 59.7092 118.506C59.925 119.148 60.711 119.899 60.711 119.899" stroke="#72575C"/>
</g>
<path d="M55.6211 126.928C55.6211 126.928 57.5216 127.312 58.6337 126.928C60.3147 126.348 61.6464 123.514 61.6464 123.514C61.6464 123.514 63.788 125.321 65.4624 125.723C66.8351 126.053 69.0775 125.723 69.0775 125.723" stroke="#FFAA8C" stroke-width="3" stroke-linecap="round"/>
<g filter="url(#filter8_d_721_2142)">
<path d="M33.1289 95.9379C33.1289 95.9379 37.5742 95.6222 40.3592 95.9379C43.6027 96.3055 47.3887 99.3523 47.3887 99.3523" stroke="#D88272" stroke-width="3" stroke-linecap="round"/>
</g>
<g filter="url(#filter9_d_721_2142)">
<path d="M72.8906 97.5574C72.8906 97.5574 79.239 93.1009 83.9369 91.9338C88.9609 90.6858 97.1925 91.9338 97.1925 91.9338" stroke="#D88272" stroke-width="3" stroke-linecap="round"/>
</g>
<g filter="url(#filter10_d_721_2142)">
<path d="M39.7533 149.222C42.565 142.192 41.4384 140.161 39.7533 138.979C38.1677 137.866 35.1339 137.171 35.1339 137.171L41.7617 137.974L57.2265 141.991C57.2265 141.991 77.962 132.414 91.9722 132.953C97.2816 133.158 100.99 132.042 105.429 134.962C106.914 135.939 105.048 135.836 105.429 137.573C105.79 139.223 107.236 141.991 107.236 141.991C109.847 150.628 110.249 164.686 110.249 164.686C110.249 164.686 108.11 166.732 103.621 167.097C89.5456 168.239 59.8374 168.502 58.0298 168.502C56.2222 168.502 54.3101 168.571 52.4062 168.302C48.2902 167.719 45.7562 168.448 41.7617 167.297C38.9639 166.491 34.5312 164.486 34.5312 164.486C34.5312 164.486 34.7759 160.87 35.7364 158.661C37.7448 154.042 36.9415 156.251 39.7533 149.222Z" fill="#FFB119"/>
<path d="M39.7533 149.222C42.565 142.192 41.4384 140.161 39.7533 138.979C38.1677 137.866 35.1339 137.171 35.1339 137.171L41.7617 137.974L57.2265 141.991C57.2265 141.991 77.962 132.414 91.9722 132.953C97.2816 133.158 100.99 132.042 105.429 134.962C106.914 135.939 105.048 135.836 105.429 137.573C105.79 139.223 107.236 141.991 107.236 141.991C109.847 150.628 110.249 164.686 110.249 164.686C110.249 164.686 108.11 166.732 103.621 167.097C89.5456 168.239 59.8374 168.502 58.0298 168.502C56.2222 168.502 54.3101 168.571 52.4062 168.302C48.2902 167.719 45.7562 168.448 41.7617 167.297C38.9639 166.491 34.5312 164.486 34.5312 164.486C34.5312 164.486 34.7759 160.87 35.7364 158.661C37.7448 154.042 36.9415 156.251 39.7533 149.222Z" stroke="black"/>
</g>
<g filter="url(#filter11_d_721_2142)">
<path d="M95.6715 132.623C99.6246 131.967 105.915 133.225 105.915 133.225C105.915 133.225 111.462 146.2 108.525 153.711C106.972 157.686 106.515 160.5 102.5 161.946C97.4792 163.753 96.475 163.753 91.2531 165.159C89.8566 165.535 89.5893 165.561 87.9826 165.561C84.4531 165.561 90.6318 161.023 91.9994 157.326C93.2514 153.943 93.054 151.756 92.0564 148.288C90.7856 143.871 91.0522 144.874 88.0396 141.661C87.5005 141.086 85.2382 139.413 85.4287 138.648C86.4814 134.421 91.3738 133.336 95.6715 132.623Z" fill="#FF8A00"/>
<path d="M95.6715 132.623C99.6246 131.967 105.915 133.225 105.915 133.225C105.915 133.225 111.462 146.2 108.525 153.711C106.972 157.686 106.515 160.5 102.5 161.946C97.4792 163.753 96.475 163.753 91.2531 165.159C89.8566 165.535 89.5893 165.561 87.9826 165.561C84.4531 165.561 90.6318 161.023 91.9994 157.326C93.2514 153.943 93.054 151.756 92.0564 148.288C90.7856 143.871 91.0522 144.874 88.0396 141.661C87.5005 141.086 85.2382 139.413 85.4287 138.648C86.4814 134.421 91.3738 133.336 95.6715 132.623Z" stroke="black"/>
</g>
<g filter="url(#filter12_d_721_2142)">
<path d="M85.6301 141.661C87.2519 141.334 89.8478 142.063 89.8478 142.063L94.668 152.708L91.4545 161.344C91.4545 161.344 86.6266 164.299 84.2242 162.95C82.9176 162.217 82.5075 161.341 81.6132 160.139C79.7263 157.602 78.2854 155.867 78.3997 152.708C78.4672 150.844 78.9707 149.807 79.7789 148.143L79.8056 148.088C81.2855 145.041 82.3098 142.331 85.6301 141.661Z" fill="#FFF5F1"/>
<path d="M85.6301 141.661C87.2519 141.334 89.8478 142.063 89.8478 142.063L94.668 152.708L91.4545 161.344C91.4545 161.344 86.6266 164.299 84.2242 162.95C82.9176 162.217 82.5075 161.341 81.6132 160.139C79.7263 157.602 78.2854 155.867 78.3997 152.708C78.4672 150.844 78.9707 149.807 79.7789 148.143L79.8056 148.088C81.2855 145.041 82.3098 142.331 85.6301 141.661Z" stroke="black"/>
</g>
<g filter="url(#filter13_di_721_2142)">
<path d="M33.1269 134.062C32.8583 132.544 32.8278 130.313 34.3321 130.647C36.1398 131.049 36.1753 131.874 37.9472 132.552C40.4647 133.515 42.0978 133.25 44.7758 133.556C52.57 134.447 57.04 134.583 64.86 133.958C71.8395 133.399 75.5606 131.573 82.5341 130.945C85.1168 130.712 86.5818 130.803 89.1619 130.543C94.9626 129.96 98.4011 128.736 103.623 127.932C104.663 127.772 105.488 128.237 106.033 129.137C106.56 130.01 105.756 130.646 106.233 131.547C106.652 132.338 107.533 132.111 107.439 133C107.363 133.719 106.891 134.324 106.635 135C106.352 135.748 107.051 135.8 107.439 136.5C107.925 137.379 107.86 137.179 108.367 138.046C109.079 139.265 109.376 140.674 108.367 141.661C108.04 141.981 107.84 141.991 107.439 141.79C107.037 141.59 106.933 140.933 106.635 140.585C105.43 139.179 105.394 138.52 103.823 137.171C100.888 134.65 98.2326 134.558 94.3838 134.158C88.6462 133.562 85.4966 135.482 79.9234 136.97C74.7471 138.352 72.0901 140.189 66.8684 141.389C62.2306 142.454 59.5643 143.139 54.8181 142.795C51.6108 142.562 49.7514 142.629 46.7842 141.389C44.6119 140.481 43.9658 139.409 41.7634 138.577C39.3024 137.647 37.1734 138.232 35.1356 136.569C33.9559 135.605 33.3923 135.561 33.1269 134.062Z" fill="#67DBFF"/>
<path d="M33.1269 134.062C32.8583 132.544 32.8278 130.313 34.3321 130.647C36.1398 131.049 36.1753 131.874 37.9472 132.552C40.4647 133.515 42.0978 133.25 44.7758 133.556C52.57 134.447 57.04 134.583 64.86 133.958C71.8395 133.399 75.5606 131.573 82.5341 130.945C85.1168 130.712 86.5818 130.803 89.1619 130.543C94.9626 129.96 98.4011 128.736 103.623 127.932C104.663 127.772 105.488 128.237 106.033 129.137C106.56 130.01 105.756 130.646 106.233 131.547C106.652 132.338 107.533 132.111 107.439 133C107.363 133.719 106.891 134.324 106.635 135C106.352 135.748 107.051 135.8 107.439 136.5C107.925 137.379 107.86 137.179 108.367 138.046C109.079 139.265 109.376 140.674 108.367 141.661C108.04 141.981 107.84 141.991 107.439 141.79C107.037 141.59 106.933 140.933 106.635 140.585C105.43 139.179 105.394 138.52 103.823 137.171C100.888 134.65 98.2326 134.558 94.3838 134.158C88.6462 133.562 85.4966 135.482 79.9234 136.97C74.7471 138.352 72.0901 140.189 66.8684 141.389C62.2306 142.454 59.5643 143.139 54.8181 142.795C51.6108 142.562 49.7514 142.629 46.7842 141.389C44.6119 140.481 43.9658 139.409 41.7634 138.577C39.3024 137.647 37.1734 138.232 35.1356 136.569C33.9559 135.605 33.3923 135.561 33.1269 134.062Z" stroke="black"/>
</g>
<circle cx="86.4731" cy="107.815" r="11.2152" fill="#F7F7F7" stroke="black"/>
<circle cx="85.0954" cy="109.193" r="8.95871" fill="#484747"/>
<circle cx="40.6493" cy="110.227" r="8.11415" fill="#F7F7F7" stroke="black"/>
<circle cx="41.3397" cy="111.606" r="6.54675" fill="#484747"/>
<defs>
<filter id="filter0_d_721_2142" x="18.5312" y="58.0903" width="117.828" height="86.489" filterUnits="userSpaceOnUse" color-interpolation-filters="sRGB">
<feFlood flood-opacity="0" result="BackgroundImageFix"/>
<feColorMatrix in="SourceAlpha" type="matrix" values="0 0 0 0 0 0 0 0 0 0 0 0 0 0 0 0 0 0 127 0" result="hardAlpha"/>
<feOffset dy="4"/>
<feGaussianBlur stdDeviation="2"/>
<feComposite in2="hardAlpha" operator="out"/>
<feColorMatrix type="matrix" values="0 0 0 0 0 0 0 0 0 0 0 0 0 0 0 0 0 0 0.25 0"/>
<feBlend mode="normal" in2="BackgroundImageFix" result="effect1_dropShadow_721_2142"/>
<feBlend mode="normal" in="SourceGraphic" in2="effect1_dropShadow_721_2142" result="shape"/>
</filter>
<filter id="filter1_di_721_2142" x="5.875" y="47.8855" width="135.211" height="76.0964" filterUnits="userSpaceOnUse" color-interpolation-filters="sRGB">
<feFlood flood-opacity="0" result="BackgroundImageFix"/>
<feColorMatrix in="SourceAlpha" type="matrix" values="0 0 0 0 0 0 0 0 0 0 0 0 0 0 0 0 0 0 127 0" result="hardAlpha"/>
<feOffset dy="4"/>
<feGaussianBlur stdDeviation="2"/>
<feComposite in2="hardAlpha" operator="out"/>
<feColorMatrix type="matrix" values="0 0 0 0 0 0 0 0 0 0 0 0 0 0 0 0 0 0 0.25 0"/>
<feBlend mode="normal" in2="BackgroundImageFix" result="effect1_dropShadow_721_2142"/>
<feBlend mode="normal" in="SourceGraphic" in2="effect1_dropShadow_721_2142" result="shape"/>
<feColorMatrix in="SourceAlpha" type="matrix" values="0 0 0 0 0 0 0 0 0 0 0 0 0 0 0 0 0 0 127 0" result="hardAlpha"/>
<feOffset dx="10" dy="10"/>
<feGaussianBlur stdDeviation="2.5"/>
<feComposite in2="hardAlpha" operator="arithmetic" k2="-1" k3="1"/>
<feColorMatrix type="matrix" values="0 0 0 0 0 0 0 0 0 0 0 0 0 0 0 0 0 0 0.25 0"/>
<feBlend mode="normal" in2="shape" result="effect2_innerShadow_721_2142"/>
</filter>
<filter id="filter2_di_721_2142" x="0.910156" y="0.5" width="157.195" height="117.932" filterUnits="userSpaceOnUse" color-interpolation-filters="sRGB">
<feFlood flood-opacity="0" result="BackgroundImageFix"/>
<feColorMatrix in="SourceAlpha" type="matrix" values="0 0 0 0 0 0 0 0 0 0 0 0 0 0 0 0 0 0 127 0" result="hardAlpha"/>
<feOffset dy="4"/>
<feGaussianBlur stdDeviation="2"/>
<feComposite in2="hardAlpha" operator="out"/>
<feColorMatrix type="matrix" values="0 0 0 0 0 0 0 0 0 0 0 0 0 0 0 0 0 0 0.25 0"/>
<feBlend mode="normal" in2="BackgroundImageFix" result="effect1_dropShadow_721_2142"/>
<feBlend mode="normal" in="SourceGraphic" in2="effect1_dropShadow_721_2142" result="shape"/>
<feColorMatrix in="SourceAlpha" type="matrix" values="0 0 0 0 0 0 0 0 0 0 0 0 0 0 0 0 0 0 127 0" result="hardAlpha"/>
<feOffset dx="10" dy="15"/>
<feGaussianBlur stdDeviation="7.5"/>
<feComposite in2="hardAlpha" operator="arithmetic" k2="-1" k3="1"/>
<feColorMatrix type="matrix" values="0 0 0 0 0 0 0 0 0 0 0 0 0 0 0 0 0 0 0.25 0"/>
<feBlend mode="normal" in2="shape" result="effect2_innerShadow_721_2142"/>
</filter>
<filter id="filter3_d_721_2142" x="68.3672" y="172.517" width="34.1406" height="25.4482" filterUnits="userSpaceOnUse" color-interpolation-filters="sRGB">
<feFlood flood-opacity="0" result="BackgroundImageFix"/>
<feColorMatrix in="SourceAlpha" type="matrix" values="0 0 0 0 0 0 0 0 0 0 0 0 0 0 0 0 0 0 127 0" result="hardAlpha"/>
<feOffset dy="5"/>
<feGaussianBlur stdDeviation="2"/>
<feComposite in2="hardAlpha" operator="out"/>
<feColorMatrix type="matrix" values="0 0 0 0 0 0 0 0 0 0 0 0 0 0 0 0 0 0 0.25 0"/>
<feBlend mode="normal" in2="BackgroundImageFix" result="effect1_dropShadow_721_2142"/>
<feBlend mode="normal" in="SourceGraphic" in2="effect1_dropShadow_721_2142" result="shape"/>
</filter>
<filter id="filter4_d_721_2142" x="28.7148" y="163.584" width="84.918" height="18.0337" filterUnits="userSpaceOnUse" color-interpolation-filters="sRGB">
<feFlood flood-opacity="0" result="BackgroundImageFix"/>
<feColorMatrix in="SourceAlpha" type="matrix" values="0 0 0 0 0 0 0 0 0 0 0 0 0 0 0 0 0 0 127 0" result="hardAlpha"/>
<feOffset dy="5"/>
<feGaussianBlur stdDeviation="2"/>
<feComposite in2="hardAlpha" operator="out"/>
<feColorMatrix type="matrix" values="0 0 0 0 0 0 0 0 0 0 0 0 0 0 0 0 0 0 0.25 0"/>
<feBlend mode="normal" in2="BackgroundImageFix" result="effect1_dropShadow_721_2142"/>
<feBlend mode="normal" in="SourceGraphic" in2="effect1_dropShadow_721_2142" result="shape"/>
</filter>
<filter id="filter5_d_721_2142" x="28.6289" y="174.028" width="39.375" height="23.9807" filterUnits="userSpaceOnUse" color-interpolation-filters="sRGB">
<feFlood flood-opacity="0" result="BackgroundImageFix"/>
<feColorMatrix in="SourceAlpha" type="matrix" values="0 0 0 0 0 0 0 0 0 0 0 0 0 0 0 0 0 0 127 0" result="hardAlpha"/>
<feOffset dy="5"/>
<feGaussianBlur stdDeviation="2"/>
<feComposite in2="hardAlpha" operator="out"/>
<feColorMatrix type="matrix" values="0 0 0 0 0 0 0 0 0 0 0 0 0 0 0 0 0 0 0.25 0"/>
<feBlend mode="normal" in2="BackgroundImageFix" result="effect1_dropShadow_721_2142"/>
<feBlend mode="normal" in="SourceGraphic" in2="effect1_dropShadow_721_2142" result="shape"/>
</filter>
<filter id="filter6_d_721_2142" x="12.2617" y="142.095" width="21.9688" height="23.5073" filterUnits="userSpaceOnUse" color-interpolation-filters="sRGB">
<feFlood flood-opacity="0" result="BackgroundImageFix"/>
<feColorMatrix in="SourceAlpha" type="matrix" values="0 0 0 0 0 0 0 0 0 0 0 0 0 0 0 0 0 0 127 0" result="hardAlpha"/>
<feOffset dy="4"/>
<feGaussianBlur stdDeviation="2"/>
<feComposite in2="hardAlpha" operator="out"/>
<feColorMatrix type="matrix" values="0 0 0 0 0 0 0 0 0 0 0 0 0 0 0 0 0 0 0.25 0"/>
<feBlend mode="normal" in2="BackgroundImageFix" result="effect1_dropShadow_721_2142"/>
<feBlend mode="normal" in="SourceGraphic" in2="effect1_dropShadow_721_2142" result="shape"/>
</filter>
<filter id="filter7_d_721_2142" x="55.1367" y="114.276" width="11.207" height="13.9844" filterUnits="userSpaceOnUse" color-interpolation-filters="sRGB">
<feFlood flood-opacity="0" result="BackgroundImageFix"/>
<feColorMatrix in="SourceAlpha" type="matrix" values="0 0 0 0 0 0 0 0 0 0 0 0 0 0 0 0 0 0 127 0" result="hardAlpha"/>
<feOffset dy="4"/>
<feGaussianBlur stdDeviation="2"/>
<feComposite in2="hardAlpha" operator="out"/>
<feColorMatrix type="matrix" values="0 0 0 0 0 0 0 0 0 0 0 0 0 0 0 0 0 0 0.25 0"/>
<feBlend mode="normal" in2="BackgroundImageFix" result="effect1_dropShadow_721_2142"/>
<feBlend mode="normal" in="SourceGraphic" in2="effect1_dropShadow_721_2142" result="shape"/>
</filter>
<filter id="filter8_d_721_2142" x="27.6289" y="94.2976" width="25.2617" height="14.5547" filterUnits="userSpaceOnUse" color-interpolation-filters="sRGB">
<feFlood flood-opacity="0" result="BackgroundImageFix"/>
<feColorMatrix in="SourceAlpha" type="matrix" values="0 0 0 0 0 0 0 0 0 0 0 0 0 0 0 0 0 0 127 0" result="hardAlpha"/>
<feOffset dy="4"/>
<feGaussianBlur stdDeviation="2"/>
<feComposite in2="hardAlpha" operator="out"/>
<feColorMatrix type="matrix" values="0 0 0 0 0 0 0 0 0 0 0 0 0 0 0 0 0 0 0.25 0"/>
<feBlend mode="normal" in2="BackgroundImageFix" result="effect1_dropShadow_721_2142"/>
<feBlend mode="normal" in="SourceGraphic" in2="effect1_dropShadow_721_2142" result="shape"/>
</filter>
<filter id="filter9_d_721_2142" x="67.3906" y="89.8789" width="35.3008" height="17.1787" filterUnits="userSpaceOnUse" color-interpolation-filters="sRGB">
<feFlood flood-opacity="0" result="BackgroundImageFix"/>
<feColorMatrix in="SourceAlpha" type="matrix" values="0 0 0 0 0 0 0 0 0 0 0 0 0 0 0 0 0 0 127 0" result="hardAlpha"/>
<feOffset dy="4"/>
<feGaussianBlur stdDeviation="2"/>
<feComposite in2="hardAlpha" operator="out"/>
<feColorMatrix type="matrix" values="0 0 0 0 0 0 0 0 0 0 0 0 0 0 0 0 0 0 0.25 0"/>
<feBlend mode="normal" in2="BackgroundImageFix" result="effect1_dropShadow_721_2142"/>
<feBlend mode="normal" in="SourceGraphic" in2="effect1_dropShadow_721_2142" result="shape"/>
</filter>
<filter id="filter10_d_721_2142" x="30.0078" y="132.408" width="84.7461" height="44.6028" filterUnits="userSpaceOnUse" color-interpolation-filters="sRGB">
<feFlood flood-opacity="0" result="BackgroundImageFix"/>
<feColorMatrix in="SourceAlpha" type="matrix" values="0 0 0 0 0 0 0 0 0 0 0 0 0 0 0 0 0 0 127 0" result="hardAlpha"/>
<feOffset dy="4"/>
<feGaussianBlur stdDeviation="2"/>
<feComposite in2="hardAlpha" operator="out"/>
<feColorMatrix type="matrix" values="0 0 0 0 0 0 0 0 0 0 0 0 0 0 0 0 0 0 0.25 0"/>
<feBlend mode="normal" in2="BackgroundImageFix" result="effect1_dropShadow_721_2142"/>
<feBlend mode="normal" in="SourceGraphic" in2="effect1_dropShadow_721_2142" result="shape"/>
</filter>
<filter id="filter11_d_721_2142" x="80.918" y="131.934" width="32.9648" height="42.127" filterUnits="userSpaceOnUse" color-interpolation-filters="sRGB">
<feFlood flood-opacity="0" result="BackgroundImageFix"/>
<feColorMatrix in="SourceAlpha" type="matrix" values="0 0 0 0 0 0 0 0 0 0 0 0 0 0 0 0 0 0 127 0" result="hardAlpha"/>
<feOffset dy="4"/>
<feGaussianBlur stdDeviation="2"/>
<feComposite in2="hardAlpha" operator="out"/>
<feColorMatrix type="matrix" values="0 0 0 0 0 0 0 0 0 0 0 0 0 0 0 0 0 0 0.25 0"/>
<feBlend mode="normal" in2="BackgroundImageFix" result="effect1_dropShadow_721_2142"/>
<feBlend mode="normal" in="SourceGraphic" in2="effect1_dropShadow_721_2142" result="shape"/>
</filter>
<filter id="filter12_d_721_2142" x="73.8945" y="141.077" width="25.3125" height="30.7266" filterUnits="userSpaceOnUse" color-interpolation-filters="sRGB">
<feFlood flood-opacity="0" result="BackgroundImageFix"/>
<feColorMatrix in="SourceAlpha" type="matrix" values="0 0 0 0 0 0 0 0 0 0 0 0 0 0 0 0 0 0 127 0" result="hardAlpha"/>
<feOffset dy="4"/>
<feGaussianBlur stdDeviation="2"/>
<feComposite in2="hardAlpha" operator="out"/>
<feColorMatrix type="matrix" values="0 0 0 0 0 0 0 0 0 0 0 0 0 0 0 0 0 0 0.25 0"/>
<feBlend mode="normal" in2="BackgroundImageFix" result="effect1_dropShadow_721_2142"/>
<feBlend mode="normal" in="SourceGraphic" in2="effect1_dropShadow_721_2142" result="shape"/>
</filter>
<filter id="filter13_di_721_2142" x="32.4844" y="127.401" width="86.0312" height="24.9834" filterUnits="userSpaceOnUse" color-interpolation-filters="sRGB">
<feFlood flood-opacity="0" result="BackgroundImageFix"/>
<feColorMatrix in="SourceAlpha" type="matrix" values="0 0 0 0 0 0 0 0 0 0 0 0 0 0 0 0 0 0 127 0" result="hardAlpha"/>
<feOffset dx="5" dy="5"/>
<feGaussianBlur stdDeviation="2"/>
<feComposite in2="hardAlpha" operator="out"/>
<feColorMatrix type="matrix" values="0 0 0 0 0 0 0 0 0 0 0 0 0 0 0 0 0 0 0.25 0"/>
<feBlend mode="normal" in2="BackgroundImageFix" result="effect1_dropShadow_721_2142"/>
<feBlend mode="normal" in="SourceGraphic" in2="effect1_dropShadow_721_2142" result="shape"/>
<feColorMatrix in="SourceAlpha" type="matrix" values="0 0 0 0 0 0 0 0 0 0 0 0 0 0 0 0 0 0 127 0" result="hardAlpha"/>
<feOffset dy="4"/>
<feGaussianBlur stdDeviation="2"/>
<feComposite in2="hardAlpha" operator="arithmetic" k2="-1" k3="1"/>
<feColorMatrix type="matrix" values="0 0 0 0 0 0 0 0 0 0 0 0 0 0 0 0 0 0 0.25 0"/>
<feBlend mode="normal" in2="shape" result="effect2_innerShadow_721_2142"/>
</filter>
</defs>
</svg>
