<svg width="25" height="29" viewBox="0 0 25 29" fill="none" xmlns="http://www.w3.org/2000/svg">
<line y1="-0.75" x2="7.85451" y2="-0.75" transform="matrix(0.325961 0.945383 0.945363 -0.32602 15.5938 19.948)" stroke="#423436" stroke-width="1.5"/>
<line y1="-0.75" x2="8.08491" y2="-0.75" transform="matrix(0.189992 -0.981786 -0.981778 -0.190029 8.9375 27.3735)" stroke="#423436" stroke-width="1.5"/>
<ellipse cx="1.28013" cy="0.640131" rx="1.28013" ry="0.640131" transform="matrix(-1 0 0 1 18.4141 27.1174)" fill="#FF3E61"/>
<ellipse cx="1.28013" cy="0.640131" rx="1.28013" ry="0.640131" transform="matrix(-1 0 0 1 10.5586 27)" fill="#FF3E61"/>
<path d="M8.37945 4.5297C8.37945 4.5297 20.6854 8.25271 20.3858 12.8149C20.1234 16.8119 16.5611 18.9034 12.627 19.4431C7.89724 20.0919 3.06863 17.5712 2.31975 12.8149C1.8501 9.83204 2.82307 7.75867 4.81162 5.50108C7.82344 2.08178 14.9206 -0.92356 17.894 2.52982C20.4253 5.46978 18.0809 10.7063 14.8358 12.8149C12.5301 14.3131 7.8132 12.8149 7.8132 12.8149C6.35403 12.0212 4.33947 11.3898 4.81162 9.78652C5.27302 8.21979 7.24187 8.44891 8.8326 8.75802C11.5744 9.29079 14.9935 13.3769 12.627 14.8719C11.3711 15.6654 10.0165 15.7711 8.8326 14.8719C6.86421 13.3769 10.1928 10.1708 12.627 9.78652C14.8717 9.43219 17.2258 10.5558 17.6108 12.8149C18.0466 15.372 15.1667 16.7496 12.627 17.1575C8.09063 17.8861 10.6093 7.31649 14.8358 5.50108C16.83 4.64448 18.4387 3.82166 20.6689 5.10111C24.591 7.35121 24.0579 13.4753 21.4052 17.1575C18.2413 21.5492 7.8132 19.4431 7.8132 19.4431C7.8132 19.4431 0.562362 13.677 1.07381 8.75802C1.55114 4.16712 6.5313 2.81386 11.0979 2.52984C15.9367 2.22889 15.5915 4.44685 19.423 7.44381C21.6675 9.19949 22.765 10.099 23.6706 12.8149C24.8808 16.4443 16.4214 17.1575 16.4214 17.1575C16.4214 17.1575 -0.213904 21.0267 1.07381 14.8719C1.47496 12.9546 6.90698 10.4722 6.90698 10.4722" stroke="#423436" stroke-width="1.5" stroke-linecap="round"/>
<path d="M13.0253 10.8579C13.0253 11.6072 13.1849 12.2608 13.4186 12.7088C13.6649 13.181 13.9176 13.3025 14.0615 13.3025C14.2054 13.3025 14.4581 13.181 14.7044 12.7088C14.9381 12.2608 15.0977 11.6072 15.0977 10.8579C15.0977 10.1086 14.9381 9.45504 14.7044 9.00705C14.4581 8.53486 14.2054 8.41333 14.0615 8.41333C13.9176 8.41333 13.6649 8.53486 13.4186 9.00705C13.1849 9.45504 13.0253 10.1086 13.0253 10.8579Z" fill="white" stroke="black"/>
<path d="M13.2838 11.626C13.2838 12.0908 13.3854 12.4869 13.525 12.7486C13.676 13.0319 13.7997 13.0464 13.8079 13.0464C13.8161 13.0464 13.9398 13.0319 14.0909 12.7486C14.2305 12.4869 14.332 12.0908 14.332 11.626C14.332 11.1611 14.2305 10.7651 14.0909 10.5033C13.9398 10.2201 13.8161 10.2056 13.8079 10.2056C13.7997 10.2056 13.676 10.2201 13.525 10.5033C13.3854 10.7651 13.2838 11.1611 13.2838 11.626Z" fill="#0A0909" stroke="black"/>
<path d="M8.30498 11.2422C8.30498 11.8854 8.44208 12.443 8.63953 12.8215C8.84961 13.2241 9.0522 13.3027 9.14077 13.3027C9.22935 13.3027 9.43194 13.2241 9.64202 12.8215C9.83947 12.443 9.97656 11.8854 9.97656 11.2422C9.97656 10.5989 9.83947 10.0414 9.64202 9.66287C9.43194 9.26018 9.22935 9.18164 9.14077 9.18164C9.0522 9.18164 8.84961 9.26018 8.63953 9.66287C8.44208 10.0414 8.30498 10.5989 8.30498 11.2422Z" fill="white" stroke="black"/>
<mask id="path-9-inside-1_251_1162" fill="white">
<ellipse cx="0.890526" cy="1.66991" rx="0.890526" ry="1.66991" transform="matrix(-1 0 0 1 9.80859 10.2402)"/>
</mask>
<ellipse cx="0.890526" cy="1.66991" rx="0.890526" ry="1.66991" transform="matrix(-1 0 0 1 9.80859 10.2402)" fill="#0A0909"/>
<path d="M9.02754 11.9101C9.02754 12.2404 9.10107 12.4898 9.17074 12.6204C9.20506 12.6847 9.22066 12.6874 9.19285 12.6653C9.15857 12.6381 9.06272 12.58 8.91807 12.58V14.58C8.123 14.58 7.63571 13.9922 7.406 13.5615C7.15336 13.0878 7.02754 12.5022 7.02754 11.9101H9.02754ZM8.91807 12.58C8.77342 12.58 8.67757 12.6381 8.64329 12.6653C8.61547 12.6874 8.63108 12.6847 8.66539 12.6204C8.73506 12.4898 8.80859 12.2404 8.80859 11.9101H10.8086C10.8086 12.5022 10.6828 13.0878 10.4301 13.5615C10.2004 13.9922 9.71314 14.58 8.91807 14.58V12.58ZM8.80859 11.9101C8.80859 11.5799 8.73506 11.3305 8.66539 11.1999C8.63108 11.1355 8.61547 11.1329 8.64329 11.1549C8.67757 11.1821 8.77342 11.2402 8.91807 11.2402V9.24023C9.71314 9.24023 10.2004 9.82804 10.4301 10.2588C10.6828 10.7325 10.8086 11.3181 10.8086 11.9101H8.80859ZM8.91807 11.2402C9.06272 11.2402 9.15857 11.1821 9.19285 11.1549C9.22066 11.1329 9.20506 11.1355 9.17074 11.1999C9.10107 11.3305 9.02754 11.5799 9.02754 11.9101H7.02754C7.02754 11.3181 7.15336 10.7325 7.406 10.2588C7.63571 9.82804 8.123 9.24023 8.91807 9.24023V11.2402Z" fill="black" mask="url(#path-9-inside-1_251_1162)"/>
</svg>
