<svg width="133" height="148" viewBox="0 0 133 148" fill="none" xmlns="http://www.w3.org/2000/svg">
<line y1="-1" x2="35.8877" y2="-1" transform="matrix(0.0702022 0.997533 0.997533 -0.0702022 74.4062 100.883)" stroke="#B2949A" stroke-width="2"/>
<line y1="-1" x2="36.9401" y2="-1" transform="matrix(0.828583 -0.559867 -0.559867 -0.828583 17.793 111.202)" stroke="#B2949A" stroke-width="2"/>
<ellipse cx="5.84952" cy="2.92476" rx="5.84952" ry="2.92476" transform="matrix(-0.965926 -0.258819 -0.258819 0.965926 78.3555 135.854)" fill="#F42951"/>
<ellipse cx="5.84952" cy="2.92476" rx="5.84952" ry="2.92476" transform="matrix(-0.707107 -0.707107 -0.707107 0.707107 22.1406 112.244)" fill="#F42951"/>
<path d="M60.7841 24.302C60.7841 24.302 110.697 55.2866 103.98 75.0668C98.0951 92.3963 79.8985 97.4137 61.8963 95.1429C40.2527 92.4128 21.9211 75.5775 24.2403 53.7007C25.6948 39.9809 32.4411 31.9811 43.8878 24.3694C61.2248 12.8409 96.104 7.971 105.144 26.7284C112.84 42.6971 96.2999 63.0351 79.4831 68.5029C67.5346 72.3879 48.4872 60.1976 48.4872 60.1976C42.9853 54.969 34.8402 49.7998 38.8201 43.2825C42.7093 36.9137 51.1284 40.2534 57.784 43.4988C69.2555 49.0927 79.515 71.1696 67.3019 74.969C60.8202 76.9854 54.716 75.8499 50.5541 70.4815C43.634 61.5553 62.1172 51.3425 73.3156 52.5255C83.6422 53.6165 92.7038 61.3592 91.7315 71.7849C90.631 83.5855 76.2909 86.2595 64.5991 85.056C43.7148 82.9063 67.3307 39.2381 88.1321 36.2246C97.9471 34.8027 106.021 33.074 114.351 41.3581C129.002 55.9271 119.406 82.3241 103.344 95.4376C84.1857 111.078 40.6491 89.4498 40.6491 89.4498C40.6491 89.4498 15.4641 55.4272 23.5385 34.3228C31.0743 14.6262 54.6558 14.5437 75.1475 18.691C96.861 23.0855 92.7145 32.4658 106.082 50.2237C113.912 60.6266 117.693 65.8945 118.478 78.9516C119.528 96.4003 81.3465 89.5435 81.3465 89.5435C81.3465 89.5435 3.34648 86.9456 16.3085 61.3054C20.3464 53.318 47.2577 48.7866 47.2577 48.7866" stroke="#B2949A" stroke-width="3" stroke-linecap="round"/>
<path d="M72.0771 57.2611C71.132 60.7881 71.0298 64.1573 71.6058 66.7444C72.1878 69.358 73.42 71.0319 75.0216 71.461C76.6232 71.8902 78.5273 71.0567 80.3381 69.0842C82.1305 67.1318 83.7266 64.1628 84.6716 60.6358C85.6167 57.1089 85.7189 53.7397 85.1429 51.1526C84.5609 48.539 83.3287 46.8651 81.7271 46.436C80.1255 46.0068 78.2214 46.8403 76.4105 48.8128C74.6182 50.7652 73.0221 53.7342 72.0771 57.2611Z" fill="white" stroke="black"/>
<path d="M72.3045 60.9551C71.6943 63.2322 71.6417 65.4021 72.0267 67.0603C72.4172 68.7422 73.2171 69.7658 74.2001 70.0292C75.1832 70.2926 76.3877 69.8061 77.5669 68.5448C78.7294 67.3012 79.7687 65.3958 80.3789 63.1186C80.9891 60.8414 81.0417 58.6716 80.6567 57.0134C80.2662 55.3315 79.4662 54.3079 78.4832 54.0445C77.5002 53.7811 76.2957 54.2676 75.1165 55.5289C73.9539 56.7725 72.9147 58.6779 72.3045 60.9551Z" fill="black" stroke="black"/>
<path d="M50.7922 53.3755C49.9726 56.4343 49.8849 59.3533 50.3831 61.5907C50.8872 63.8547 51.9492 65.2796 53.3066 65.6433C54.664 66.007 56.2961 65.304 57.8647 63.5954C59.4149 61.9068 60.7984 59.3351 61.618 56.2762C62.4376 53.2174 62.5253 50.2984 62.0271 48.061C61.523 45.797 60.461 44.3721 59.1036 44.0084C57.7462 43.6447 56.1141 44.3476 54.5455 46.0563C52.9953 47.7449 51.6118 50.3166 50.7922 53.3755Z" fill="white" stroke="black"/>
<path d="M50.9869 56.5869C50.4585 58.5588 50.4139 60.4346 50.7459 61.8642C51.0833 63.3175 51.769 64.1778 52.5892 64.3976C53.4094 64.6174 54.4334 64.2151 55.4523 63.1253C56.4545 62.0532 57.3538 60.4064 57.8821 58.4345C58.4105 56.4626 58.4551 54.5869 58.1232 53.1573C57.7857 51.704 57.1001 50.8436 56.2799 50.6239C55.4597 50.4041 54.4357 50.8064 53.4168 51.8962C52.4145 52.9683 51.5153 54.615 50.9869 56.5869Z" fill="black" stroke="black"/>
</svg>
