<svg width="64" height="74" viewBox="0 0 64 74" fill="none" xmlns="http://www.w3.org/2000/svg">
<line y1="-1" x2="20.5126" y2="-1" transform="matrix(0.325971 0.94538 0.945366 -0.32601 40.1133 51.4835)" stroke="#B2949A" stroke-width="2"/>
<line y1="-1" x2="21.1143" y2="-1" transform="matrix(0.189998 -0.981784 -0.98178 -0.190023 22.7227 70.876)" stroke="#B2949A" stroke-width="2"/>
<ellipse cx="3.34326" cy="1.67174" rx="3.34326" ry="1.67174" transform="matrix(-1 0 0 1 47.4648 70.2072)" fill="#F42951"/>
<ellipse cx="3.34326" cy="1.67174" rx="3.34326" ry="1.67174" transform="matrix(-1 0 0 1 24.9062 69.5386)" fill="#F42951"/>
<path d="M21.2632 11.218C21.2632 11.218 53.402 20.9409 52.6198 32.8554C51.9344 43.2937 42.6309 48.7558 32.3565 50.1652C20.0039 51.8598 7.39322 45.2768 5.43741 32.8554C4.21085 25.0654 6.75191 19.6507 11.9453 13.7548C19.8111 4.82513 38.3465 -3.0235 46.1119 5.99523C52.7228 13.6731 46.6 27.3487 38.1249 32.8554C32.1032 36.7679 19.7844 32.8554 19.7844 32.8554C15.9735 30.7825 10.7122 29.1336 11.9453 24.9466C13.1503 20.8549 18.2923 21.4533 22.4467 22.2605C29.6072 23.6519 38.537 34.323 32.3565 38.2274C29.0765 40.2995 25.5386 40.5757 22.4467 38.2274C17.306 34.323 25.9992 25.95 32.3565 24.9466C38.2189 24.0212 44.3669 26.9555 45.3723 32.8554C46.5104 39.5334 38.9892 43.1311 32.3565 44.1963C20.509 46.099 27.0868 18.4959 38.1249 13.7548C43.3331 11.5178 47.5346 9.36894 53.3591 12.7103C63.6022 18.5866 62.2098 34.58 55.2819 44.1963C47.019 55.6656 19.7844 50.1652 19.7844 50.1652C19.7844 50.1652 0.847723 35.1069 2.18345 22.2605C3.43008 10.2711 16.4365 6.737 28.3628 5.99528C41.0003 5.20933 40.0986 11.0017 50.1051 18.8284C55.9671 23.4135 58.8333 25.7627 61.1984 32.8554C64.3589 42.3336 42.2661 44.1963 42.2661 44.1963C42.2661 44.1963 -1.17961 54.3011 2.18345 38.2274C3.23111 33.2201 17.4177 26.7372 17.4177 26.7372" stroke="#B2949A" stroke-width="3" stroke-linecap="round"/>
<path d="M32.5895 27.7445C32.5895 29.8042 33.0261 31.6441 33.7078 32.9509C34.4022 34.2818 35.2738 34.9345 36.1014 34.9345C36.9289 34.9345 37.8006 34.2818 38.4949 32.9509C39.1767 31.6441 39.6133 29.8042 39.6133 27.7445C39.6133 25.6847 39.1767 23.8448 38.4949 22.5381C37.8006 21.2071 36.9289 20.5544 36.1014 20.5544C35.2738 20.5544 34.4022 21.2071 33.7078 22.5381C33.0261 23.8448 32.5895 25.6847 32.5895 27.7445Z" fill="white" stroke="black"/>
<path d="M33.2641 29.7503C33.2641 31.0698 33.5504 32.2396 33.9886 33.0614C34.4384 33.9046 34.9747 34.2656 35.4387 34.2656C35.9027 34.2656 36.439 33.9046 36.8887 33.0614C37.327 32.2396 37.6133 31.0698 37.6133 29.7503C37.6133 28.4309 37.327 27.2611 36.8887 26.4393C36.439 25.596 35.9027 25.2351 35.4387 25.2351C34.9747 25.2351 34.4384 25.596 33.9886 26.4393C33.5504 27.2611 33.2641 28.4309 33.2641 29.7503Z" fill="black" stroke="black"/>
<path d="M20.2571 28.7475C20.2571 30.5303 20.6352 32.1194 21.2222 33.2446C21.8219 34.3941 22.5627 34.9345 23.2458 34.9345C23.9288 34.9345 24.6696 34.3941 25.2693 33.2446C25.8563 32.1194 26.2344 30.5303 26.2344 28.7475C26.2344 26.9648 25.8563 25.3756 25.2693 24.2504C24.6696 23.101 23.9288 22.5605 23.2458 22.5605C22.5627 22.5605 21.8219 23.101 21.2222 24.2504C20.6352 25.3756 20.2571 26.9648 20.2571 28.7475Z" fill="white" stroke="black"/>
<path d="M20.8407 30.4919C20.8407 31.6308 21.0879 32.637 21.4631 33.3404C21.8497 34.0653 22.2988 34.353 22.6664 34.353C23.0341 34.353 23.4832 34.0653 23.8698 33.3404C24.2449 32.637 24.4922 31.6308 24.4922 30.4919C24.4922 29.3531 24.2449 28.3469 23.8698 27.6435C23.4832 26.9186 23.0341 26.6309 22.6664 26.6309C22.2988 26.6309 21.8497 26.9186 21.4631 27.6435C21.0879 28.3469 20.8407 29.3531 20.8407 30.4919Z" fill="black" stroke="black"/>
</svg>
