<svg width="173" height="206" viewBox="0 0 173 206" fill="none" xmlns="http://www.w3.org/2000/svg">
<line x1="63.7071" y1="142.843" x2="44.7183" y2="197.91" stroke="#B2949A" stroke-width="2"/>
<line x1="111.159" y1="197.775" x2="99.7663" y2="138.91" stroke="#B2949A" stroke-width="2"/>
<ellipse cx="51.3733" cy="200.433" rx="9.49438" ry="4.74719" fill="#F42951"/>
<ellipse cx="115.444" cy="198.534" rx="9.49438" ry="4.74719" fill="#F42951"/>
<path d="M116.289 28.1761C116.289 28.1761 25.0194 55.7858 27.2408 89.619C29.187 119.26 55.6079 134.771 84.7856 138.773C119.865 143.585 155.678 124.892 161.232 89.619C164.715 67.4981 157.499 52.1221 142.75 35.3798C120.413 10.0224 67.775 -12.2651 45.7224 13.3451C26.9483 35.1478 44.336 73.9819 68.4043 89.619C85.505 100.729 120.489 89.619 120.489 89.619C131.311 83.7328 146.252 79.0503 142.75 67.1606C139.328 55.5417 124.726 57.2409 112.928 59.5332C92.5931 63.4842 67.234 93.7864 84.7856 104.874C94.1005 110.758 104.148 111.542 112.928 104.874C127.527 93.7864 102.839 70.0102 84.7856 67.1606C68.1373 64.5328 50.6779 72.8652 47.8225 89.619C44.5906 108.582 65.9496 118.799 84.7856 121.823C118.431 127.226 99.7507 48.8429 68.4043 35.3798C53.6135 29.0274 41.682 22.9253 25.1413 32.4137C-3.94777 49.1004 0.00642543 94.5163 19.6808 121.823C43.1462 154.392 120.489 138.773 120.489 138.773C120.489 138.773 174.266 96.0126 170.473 59.5332C166.933 25.4872 129.996 15.4515 96.1272 13.3453C60.2386 11.1134 62.799 27.5617 34.382 49.7871C17.7348 62.8071 9.59525 69.4781 2.87874 89.619C-6.09683 116.534 56.6439 121.823 56.6439 121.823C56.6439 121.823 180.023 150.518 170.473 104.874C167.498 90.6548 127.21 72.2454 127.21 72.2454" stroke="#B2949A" stroke-width="3" stroke-linecap="round"/>
<path d="M85.0482 75.1059C85.0482 81.0722 83.7854 86.4489 81.7679 90.3157C79.7378 94.2068 77.0209 96.443 74.155 96.443C71.2891 96.443 68.5721 94.2068 66.542 90.3157C64.5245 86.4489 63.2617 81.0722 63.2617 75.1059C63.2617 69.1396 64.5245 63.7629 66.542 59.896C68.5721 56.005 71.2891 53.7688 74.155 53.7688C77.0209 53.7688 79.7378 56.005 81.7679 59.896C83.7854 63.7629 85.0482 69.1396 85.0482 75.1059Z" fill="white" stroke="black"/>
<path d="M83.1402 80.802C83.1402 84.6692 82.3032 88.1456 80.9744 90.637C79.6342 93.1499 77.8676 94.5436 76.0447 94.5436C74.2218 94.5436 72.4553 93.1499 71.1151 90.637C69.7863 88.1456 68.9492 84.6692 68.9492 80.802C68.9492 76.9348 69.7863 73.4584 71.1151 70.967C72.4553 68.4541 74.2218 67.0604 76.0447 67.0604C77.8676 67.0604 79.6342 68.4541 80.9744 70.967C82.3032 73.4584 83.1402 76.9348 83.1402 80.802Z" fill="black" stroke="black"/>
<path d="M120.049 77.9542C120.049 83.134 118.952 87.7986 117.204 91.15C115.443 94.5256 113.097 96.443 110.642 96.443C108.186 96.443 105.841 94.5256 104.079 91.15C102.331 87.7986 101.234 83.134 101.234 77.9542C101.234 72.7744 102.331 68.1098 104.079 64.7584C105.841 61.3828 108.186 59.4655 110.642 59.4655C113.097 59.4655 115.443 61.3828 117.204 64.7584C118.952 68.1098 120.049 72.7744 120.049 77.9542Z" fill="white" stroke="black"/>
<path d="M118.393 82.9077C118.393 86.2619 117.667 89.2739 116.517 91.4292C115.357 93.6059 113.838 94.7916 112.288 94.7916C110.739 94.7916 109.22 93.6059 108.059 91.4292C106.91 89.2739 106.184 86.2619 106.184 82.9077C106.184 79.5534 106.91 76.5414 108.059 74.3862C109.22 72.2094 110.739 71.0237 112.288 71.0237C113.838 71.0237 115.357 72.2094 116.517 74.3862C117.667 76.5414 118.393 79.5534 118.393 82.9077Z" fill="black" stroke="black"/>
</svg>
