<svg width="57" height="67" viewBox="0 0 57 67" fill="none" xmlns="http://www.w3.org/2000/svg">
<line x1="22.1329" y1="46.7" x2="16.1364" y2="64.0899" stroke="#B2949A" stroke-width="2"/>
<line x1="35.7995" y1="63.9544" x2="32.2018" y2="45.3652" stroke="#B2949A" stroke-width="2"/>
<ellipse cx="17.592" cy="64.6637" rx="2.99826" ry="1.49913" fill="#F42951"/>
<ellipse cx="37.8264" cy="64.0641" rx="2.99826" ry="1.49913" fill="#F42951"/>
<path d="M38.0916 10.2662C38.0916 10.2662 9.26935 18.9852 9.97087 29.6694C10.5855 39.0299 18.929 43.9281 28.1431 45.192C39.221 46.7116 50.5304 40.8083 52.2844 29.6694C53.3843 22.6838 51.1055 17.8282 46.448 12.5411C39.3939 4.53342 22.7713 -2.50481 15.8072 5.58271C9.8785 12.4678 15.3694 24.7314 22.97 29.6694C28.3703 33.178 39.4179 29.6694 39.4179 29.6694C42.8355 27.8107 47.5539 26.3319 46.448 22.5773C45.3673 18.9081 40.756 19.4447 37.0303 20.1686C30.6087 21.4163 22.6004 30.9855 28.1431 34.4868C31.0847 36.345 34.2575 36.5926 37.0303 34.4868C41.6405 30.9855 33.8444 23.4771 28.1431 22.5773C22.8857 21.7474 17.3721 24.3787 16.4704 29.6694C15.4498 35.6579 22.1948 38.8842 28.1431 39.8394C38.7681 41.5456 32.869 16.7926 22.97 12.5411C18.2992 10.5351 14.5313 8.60807 9.30786 11.6044C0.121736 16.874 1.37044 31.216 7.58347 39.8394C14.9937 50.1245 39.4179 45.192 39.4179 45.192C39.4179 45.192 56.4004 31.6885 55.2025 20.1686C54.0845 9.41711 42.4203 6.24789 31.7247 5.58275C20.3913 4.87795 21.1999 10.0722 12.226 17.0908C6.96893 21.2025 4.39853 23.3091 2.2775 29.6694C-0.556921 38.1691 19.2562 39.8394 19.2562 39.8394C19.2562 39.8394 58.2185 48.9008 55.2025 34.4868C54.263 29.9965 41.5404 24.183 41.5404 24.183" stroke="#B2949A" stroke-width="3" stroke-linecap="round"/>
<path d="M27.8833 25.0864C27.8833 26.9269 27.493 28.5683 26.8862 29.7313C26.2668 30.9186 25.4987 31.4824 24.7854 31.4824C24.0721 31.4824 23.304 30.9186 22.6846 29.7313C22.0778 28.5683 21.6875 26.9269 21.6875 25.0864C21.6875 23.246 22.0778 21.6046 22.6846 20.4415C23.304 19.2543 24.0721 18.6904 24.7854 18.6904C25.4987 18.6904 26.2668 19.2543 26.8862 20.4415C27.493 21.6046 27.8833 23.246 27.8833 25.0864Z" fill="white" stroke="black"/>
<path d="M27.2816 26.8851C27.2816 28.0615 27.0262 29.1018 26.6379 29.8299C26.2381 30.5795 25.7708 30.8825 25.383 30.8825C24.9952 30.8825 24.5279 30.5795 24.1281 29.8299C23.7398 29.1018 23.4844 28.0615 23.4844 26.8851C23.4844 25.7086 23.7398 24.6683 24.1281 23.9402C24.5279 23.1907 24.9952 22.8877 25.383 22.8877C25.7708 22.8877 26.2381 23.1907 26.6379 23.9402C27.0262 24.6683 27.2816 25.7086 27.2816 26.8851Z" fill="black" stroke="black"/>
<path d="M38.9369 25.9858C38.9369 27.5778 38.5992 28.9944 38.0773 29.9947C37.5428 31.0191 36.892 31.4823 36.3083 31.4823C35.7246 31.4823 35.0738 31.0191 34.5393 29.9947C34.0174 28.9944 33.6797 27.5778 33.6797 25.9858C33.6797 24.3937 34.0174 22.9772 34.5393 21.9769C35.0738 20.9524 35.7246 20.4893 36.3083 20.4893C36.892 20.4893 37.5428 20.9524 38.0773 21.9769C38.5992 22.9772 38.9369 24.3937 38.9369 25.9858Z" fill="white" stroke="black"/>
<path d="M38.4176 27.5497C38.4176 28.5642 38.1972 29.4578 37.8655 30.0797C37.5224 30.7231 37.1332 30.9605 36.8318 30.9605C36.5304 30.9605 36.1413 30.7231 35.7982 30.0797C35.4665 29.4578 35.2461 28.5642 35.2461 27.5497C35.2461 26.5352 35.4665 25.6416 35.7982 25.0196C36.1413 24.3762 36.5304 24.1389 36.8318 24.1389C37.1332 24.1389 37.5224 24.3762 37.8655 25.0196C38.1972 25.6416 38.4176 26.5352 38.4176 27.5497Z" fill="black" stroke="black"/>
</svg>
