<svg width="37" height="43" viewBox="0 0 37 43" fill="none" xmlns="http://www.w3.org/2000/svg">
<line x1="14.3243" y1="29.9561" x2="10.4553" y2="41.176" stroke="#423436" stroke-width="2"/>
<line x1="22.4596" y1="41.0401" x2="20.1384" y2="29.0464" stroke="#423436" stroke-width="2"/>
<ellipse cx="11.0595" cy="41.4304" rx="1.93447" ry="0.967234" fill="#FF3E61"/>
<ellipse cx="23.1142" cy="41.0437" rx="1.93447" ry="0.967234" fill="#FF3E61"/>
<path d="M24.2862 6.33335C24.2862 6.33335 5.69017 11.9588 6.14278 18.8522C6.53931 24.8916 11.9225 28.0519 17.8675 28.8673C25.0149 29.8478 32.3116 26.039 33.4433 18.8522C34.153 14.3452 32.6827 11.2123 29.6777 7.8011C25.1264 2.63456 14.4016 -1.90649 9.90837 3.31155C6.08319 7.75381 9.6259 15.6662 14.5298 18.8522C18.014 21.116 25.1419 18.8522 25.1419 18.8522C27.3469 17.653 30.3912 16.6989 29.6777 14.2764C28.9805 11.909 26.0053 12.2553 23.6014 12.7223C19.4582 13.5273 14.2913 19.7014 17.8675 21.9604C19.7653 23.1593 21.8124 23.319 23.6014 21.9604C26.576 19.7014 21.5459 14.857 17.8675 14.2764C14.4754 13.741 10.918 15.4387 10.3363 18.8522C9.67778 22.716 14.0297 24.7976 17.8675 25.4139C24.7227 26.5147 20.9166 10.5442 14.5298 7.8011C11.5162 6.50679 9.08514 5.26351 5.71501 7.19675C-0.21185 10.5966 0.593812 19.8501 4.60244 25.4139C9.38349 32.0498 25.1419 28.8673 25.1419 28.8673C25.1419 28.8673 36.099 20.1549 35.3261 12.7223C34.6048 5.7855 27.079 3.74073 20.1783 3.31158C12.866 2.85685 13.3877 6.20816 7.59779 10.7366C4.20594 13.3894 2.54752 14.7486 1.17904 18.8522C-0.649718 24.3362 12.1336 25.4139 12.1336 25.4139C12.1336 25.4139 37.272 31.2603 35.3261 21.9604C34.7199 19.0633 26.5113 15.3124 26.5113 15.3124" stroke="#423436" stroke-width="2" stroke-linecap="round"/>
<path d="M17.5216 15.8951C17.5216 17.0599 17.2742 18.0896 16.8984 18.8099C16.51 19.5544 16.061 19.8444 15.7003 19.8444C15.3395 19.8444 14.8905 19.5544 14.5021 18.8099C14.1263 18.0896 13.8789 17.0599 13.8789 15.8951C13.8789 14.7303 14.1263 13.7005 14.5021 12.9802C14.8905 12.2358 15.3395 11.9458 15.7003 11.9458C16.061 11.9458 16.51 12.2358 16.8984 12.9802C17.2742 13.7005 17.5216 14.7303 17.5216 15.8951Z" fill="white" stroke="black"/>
<path d="M17.1342 17.0555C17.1342 17.7913 16.9741 18.4327 16.7398 18.872C16.494 19.3328 16.2394 19.4572 16.0866 19.4572C15.9338 19.4572 15.6793 19.3328 15.4335 18.872C15.1992 18.4327 15.0391 17.7913 15.0391 17.0555C15.0391 16.3197 15.1992 15.6783 15.4335 15.239C15.6793 14.7782 15.9338 14.6538 16.0866 14.6538C16.2394 14.6538 16.494 14.7782 16.7398 15.239C16.9741 15.6783 17.1342 16.3197 17.1342 17.0555Z" fill="#0A0909" stroke="black"/>
<path d="M24.6543 16.4756C24.6543 17.4802 24.4408 18.3648 24.1198 18.9801C23.7862 19.6195 23.4129 19.8446 23.1358 19.8446C22.8586 19.8446 22.4853 19.6195 22.1517 18.9801C21.8307 18.3648 21.6172 17.4802 21.6172 16.4756C21.6172 15.4711 21.8307 14.5864 22.1517 13.9712C22.4853 13.3317 22.8586 13.1067 23.1358 13.1067C23.4129 13.1067 23.7862 13.3317 24.1198 13.9712C24.4408 14.5864 24.6543 15.4711 24.6543 16.4756Z" fill="white" stroke="black"/>
<path d="M24.3164 17.4849C24.3164 18.1162 24.1789 18.6629 23.9811 19.0338C23.7719 19.4261 23.5678 19.5081 23.4707 19.5081C23.3737 19.5081 23.1696 19.4261 22.9603 19.0338C22.7625 18.6629 22.625 18.1162 22.625 17.4849C22.625 16.8536 22.7625 16.3068 22.9603 15.936C23.1696 15.5437 23.3737 15.4617 23.4707 15.4617C23.5678 15.4617 23.7719 15.5437 23.9811 15.936C24.1789 16.3068 24.3164 16.8536 24.3164 17.4849Z" fill="#0A0909" stroke="black"/>
</svg>
