<svg width="54" height="62" viewBox="0 0 54 62" fill="none" xmlns="http://www.w3.org/2000/svg">
<line y1="-1" x2="17.0724" y2="-1" transform="matrix(-0.325975 0.945379 -0.945367 -0.326007 19.8086 43.1844)" stroke="#B2949A" stroke-width="2"/>
<line y1="-1" x2="17.5731" y2="-1" transform="matrix(-0.190001 -0.981784 0.98178 -0.190021 34.2812 59.3245)" stroke="#B2949A" stroke-width="2"/>
<ellipse cx="16.4701" cy="60.1592" rx="2.78258" ry="1.39137" fill="#F42951"/>
<ellipse cx="35.2474" cy="59.6028" rx="2.78258" ry="1.39137" fill="#F42951"/>
<path d="M35.4954 9.67204C35.4954 9.67204 8.74645 17.7643 9.3975 27.6805C9.96788 36.3682 17.7112 40.9142 26.2626 42.0873C36.5436 43.4976 47.0394 38.0187 48.6672 27.6805C49.6881 21.197 47.5732 16.6904 43.2507 11.7834C36.704 4.35132 21.2771 -2.18099 14.814 5.32518C9.31178 11.7154 14.4077 23.0974 21.4616 27.6805C26.4734 30.9369 36.7263 27.6805 36.7263 27.6805C39.898 25.9553 44.277 24.5829 43.2507 21.0981C42.2478 17.6927 37.9682 18.1907 34.5104 18.8626C28.5507 20.0206 21.1186 28.902 26.2626 32.1516C28.9925 33.8762 31.9371 34.106 34.5104 32.1516C38.7891 28.902 31.5537 21.9333 26.2626 21.0981C21.3833 20.3279 16.2664 22.7701 15.4295 27.6805C14.4823 33.2385 20.7422 36.2329 26.2626 37.1194C36.1232 38.703 30.6485 15.7293 21.4616 11.7834C17.1267 9.92153 13.6299 8.13307 8.78218 10.914C0.256846 15.8048 1.41573 29.1159 7.18183 37.1194C14.059 46.6652 36.7263 42.0873 36.7263 42.0873C36.7263 42.0873 52.4872 29.5544 51.3755 18.8626C50.3379 8.88395 39.5127 5.94254 29.5865 5.32522C19.0684 4.67108 19.8188 9.49195 11.4904 16.0061C6.6115 19.8222 4.22599 21.7774 2.25754 27.6805C-0.372993 35.5691 18.0149 37.1194 18.0149 37.1194C18.0149 37.1194 54.1746 45.5295 51.3755 32.1516C50.5035 27.9841 38.6961 22.5884 38.6961 22.5884" stroke="#B2949A" stroke-width="3" stroke-linecap="round"/>
<path d="M25.9829 23.4268C25.9829 25.1304 25.6216 26.6479 25.0616 27.7212C24.489 28.8187 23.7856 29.3271 23.1438 29.3271C22.502 29.3271 21.7986 28.8187 21.226 27.7212C20.666 26.6479 20.3047 25.1304 20.3047 23.4268C20.3047 21.7232 20.666 20.2057 21.226 19.1324C21.7986 18.0348 22.502 17.5265 23.1438 17.5265C23.7856 17.5265 24.489 18.0348 25.0616 19.1324C25.6216 20.2057 25.9829 21.7232 25.9829 23.4268Z" fill="white" stroke="black"/>
<path d="M25.4248 25.0962C25.4248 26.1834 25.1887 27.1429 24.8316 27.8125C24.4631 28.5036 24.0389 28.7703 23.6987 28.7703C23.3586 28.7703 22.9344 28.5036 22.5658 27.8125C22.2087 27.1429 21.9727 26.1834 21.9727 25.0962C21.9727 24.009 22.2087 23.0496 22.5658 22.38C22.9344 21.6889 23.3586 21.4221 23.6987 21.4221C24.0389 21.4221 24.4631 21.6889 24.8316 22.38C25.1887 23.0496 25.4248 24.009 25.4248 25.0962Z" fill="black" stroke="black"/>
<path d="M36.2485 24.2616C36.2485 25.7347 35.936 27.0435 35.4548 27.9658C34.961 28.9122 34.3665 29.3271 33.845 29.3271C33.3235 29.3271 32.7289 28.9122 32.2351 27.9658C31.754 27.0435 31.4414 25.7347 31.4414 24.2616C31.4414 22.7886 31.754 21.4798 32.2351 20.5575C32.7289 19.6111 33.3235 19.1962 33.845 19.1962C34.3665 19.1962 34.961 19.6111 35.4548 20.5575C35.936 21.4798 36.2485 22.7886 36.2485 24.2616Z" fill="white" stroke="black"/>
<path d="M35.762 25.7134C35.762 26.6502 35.5585 27.4736 35.2539 28.0447C34.9379 28.6372 34.5863 28.8431 34.3263 28.8431C34.0664 28.8431 33.7148 28.6372 33.3988 28.0447C33.0942 27.4736 32.8906 26.6502 32.8906 25.7134C32.8906 24.7765 33.0942 23.9532 33.3988 23.3821C33.7148 22.7896 34.0664 22.5837 34.3263 22.5837C34.5863 22.5837 34.9379 22.7896 35.2539 23.3821C35.5585 23.9532 35.762 24.7765 35.762 25.7134Z" fill="black" stroke="black"/>
</svg>
