<svg width="55" height="65" viewBox="0 0 62 72" fill="none" xmlns="http://www.w3.org/2000/svg">
<line x1="24.1407" y1="50.4625" x2="17.6549" y2="69.2712" stroke="#423436" stroke-width="2"/>
<line x1="39.0768" y1="69.1353" x2="35.1856" y2="49.0294" stroke="#423436" stroke-width="2"/>
<ellipse cx="19.3054" cy="69.9181" rx="3.24288" ry="1.62144" fill="#FF3E61"/>
<ellipse cx="41.1921" cy="69.2696" rx="3.24288" ry="1.62144" fill="#FF3E61"/>
<path d="M41.4777 11.0825C41.4777 11.0825 10.3038 20.5128 11.0626 32.0688C11.7273 42.193 20.7516 47.4907 30.7175 48.8578C42.6992 50.5013 54.9312 44.1164 56.8283 32.0688C58.0181 24.5132 55.5533 19.2614 50.5158 13.543C42.8862 4.88197 24.9074 -2.7305 17.3751 6.01686C10.9627 13.4637 16.9016 26.7278 25.1223 32.0688C30.9632 35.8636 42.9121 32.0688 42.9121 32.0688C46.6085 30.0583 51.7119 28.459 50.5158 24.3979C49.347 20.4294 44.3594 21.0098 40.3297 21.7928C33.3842 23.1422 24.7226 33.4922 30.7175 37.2792C33.899 39.2889 37.3307 39.5568 40.3297 37.2792C45.3161 33.4922 36.8839 25.3712 30.7175 24.3979C25.0311 23.5004 19.0677 26.3464 18.0924 32.0688C16.9886 38.5458 24.2839 42.0353 30.7175 43.0685C42.2093 44.9139 35.8289 18.1414 25.1223 13.543C20.0704 11.3732 15.9951 9.28905 10.3455 12.5299C0.4099 18.2293 1.76049 33.7415 8.48041 43.0685C16.4952 54.1926 42.9121 48.8578 42.9121 48.8578C42.9121 48.8578 61.2802 34.2526 59.9846 21.7928C58.7754 10.1641 46.1595 6.73631 34.5913 6.01691C22.3332 5.25461 23.2078 10.8726 13.5017 18.4639C7.81574 22.911 5.03562 25.1895 2.74155 32.0688C-0.324127 41.2618 21.1054 43.0685 21.1054 43.0685C21.1054 43.0685 63.2467 52.8692 59.9846 37.2792C58.9684 32.4226 45.2078 26.1347 45.2078 26.1347" stroke="#423436" stroke-width="3" stroke-linecap="round"/>
<path d="M30.4782 27.1117C30.4782 29.1075 30.0551 30.8896 29.3951 32.1545C28.7226 33.4435 27.8811 34.0703 27.0868 34.0703C26.2924 34.0703 25.4509 33.4435 24.7784 32.1545C24.1185 30.8896 23.6953 29.1075 23.6953 27.1117C23.6953 25.1159 24.1185 23.3338 24.7784 22.0689C25.4509 20.7799 26.2924 20.1531 27.0868 20.1531C27.8811 20.1531 28.7226 20.7799 29.3951 22.0689C30.0551 23.3338 30.4782 25.1159 30.4782 27.1117Z" fill="white" stroke="black"/>
<path d="M29.8292 29.0572C29.8292 30.335 29.5519 31.467 29.1282 32.2615C28.693 33.0775 28.1768 33.4215 27.7349 33.4215C27.2931 33.4215 26.7768 33.0775 26.3417 32.2615C25.9179 31.467 25.6406 30.335 25.6406 29.0572C25.6406 27.7794 25.9179 26.6474 26.3417 25.8529C26.7768 25.0369 27.2931 24.6929 27.7349 24.6929C28.1768 24.6929 28.693 25.0369 29.1282 25.8529C29.5519 26.6474 29.8292 27.7794 29.8292 29.0572Z" fill="#0A0909" stroke="black"/>
<path d="M42.4357 28.0846C42.4357 29.8118 42.0694 31.3507 41.5013 32.4395C40.9206 33.5525 40.206 34.0704 39.5518 34.0704C38.8977 34.0704 38.1831 33.5525 37.6024 32.4395C37.0343 31.3507 36.668 29.8118 36.668 28.0846C36.668 26.3575 37.0343 24.8186 37.6024 23.7298C38.1831 22.6168 38.8977 22.0989 39.5518 22.0989C40.206 22.0989 40.9206 22.6168 41.5013 23.7298C42.0694 24.8186 42.4357 26.3575 42.4357 28.0846Z" fill="white" stroke="black"/>
<path d="M41.8712 29.7765C41.8712 30.8791 41.6318 31.8525 41.2693 32.5321C40.8953 33.2333 40.4637 33.5063 40.1153 33.5063C39.7669 33.5063 39.3352 33.2333 38.9613 32.5321C38.5988 31.8525 38.3594 30.8791 38.3594 29.7765C38.3594 28.6739 38.5988 27.7005 38.9613 27.0208C39.3352 26.3197 39.7669 26.0466 40.1153 26.0466C40.4637 26.0466 40.8953 26.3197 41.2693 27.0208C41.6318 27.7005 41.8712 28.6739 41.8712 29.7765Z" fill="#0A0909" stroke="black"/>
</svg>
