<svg width="230" height="57" viewBox="0 0 230 57" fill="none" xmlns="http://www.w3.org/2000/svg">
<g id="harmony-logo 1" clip-path="url(#clip0_697_1928)">
<g id="Vector" filter="url(#filter0_d_697_1928)">
<path d="M4.00112 41.4371C3.46114 40.8993 3.20703 40.2351 3.20703 39.4443V6.04139C3.20703 5.2506 3.46114 4.5547 4.00112 4.0486C4.5411 3.51086 5.20814 3.25781 6.00223 3.25781C6.79631 3.25781 7.49511 3.51086 8.06686 4.0486C8.6386 4.58634 8.92447 5.2506 8.92447 6.04139V20.9398L29.8884 18.0297V6.04139C29.8884 5.2506 30.1743 4.5547 30.7143 4.0486C31.2543 3.51086 31.9531 3.25781 32.7472 3.25781C33.5412 3.25781 34.1765 3.51086 34.7483 4.0486C35.32 4.58634 35.6059 5.2506 35.6059 6.04139V39.4759C35.6059 40.2034 35.32 40.8677 34.7483 41.4371C34.1765 42.0064 33.5095 42.2911 32.7472 42.2911C31.9848 42.2911 31.2543 42.0064 30.7143 41.4687C30.1425 40.931 29.8884 40.2667 29.8884 39.4759V23.6601L8.92447 26.5702V39.4759C8.92447 40.2351 8.6386 40.8993 8.06686 41.4687C7.49511 42.0381 6.79631 42.2911 6.00223 42.2911C5.20814 42.2911 4.50934 42.0064 4.00112 41.4687V41.4371Z" fill="#7895CB"/>
</g>
<g id="Vector_2" filter="url(#filter1_d_697_1928)">
<path d="M60.5747 42.1966C60.0982 41.7854 59.8441 41.216 59.8441 40.5201V39.7293C58.256 41.4058 56.096 42.2598 53.2691 42.2598C50.4421 42.2598 49.2669 41.7537 47.5834 40.7099C45.8999 39.666 44.5659 38.211 43.613 36.3131C42.66 34.4152 42.1836 32.2643 42.1836 29.8603C42.1836 27.4563 42.7553 24.6094 43.8988 22.0789C45.0423 19.58 46.6623 17.5556 48.7587 15.974C50.855 14.3925 53.2691 13.6333 55.969 13.6333C58.6689 13.6333 59.3359 13.8864 60.7335 14.3608C62.1629 14.8353 63.624 15.4363 65.1804 16.1006V39.9507C65.1804 40.7099 64.9263 41.3741 64.3863 41.9435C63.8463 42.5129 63.2111 42.7976 62.417 42.7976C61.6229 42.7976 61.0194 42.5761 60.5429 42.1649L60.5747 42.1966ZM56.9537 36.2182C58.0018 35.7437 58.8912 35.206 59.5583 34.5417L59.7171 19.58C58.6054 19.1056 57.3983 18.8841 56.096 18.8841C54.7937 18.8841 52.9832 19.3902 51.7127 20.4024C50.4421 21.4147 49.4575 22.7432 48.7904 24.4196C48.0916 26.0961 47.7422 27.8359 47.7422 29.7337C47.7422 31.6316 48.2504 33.8458 49.2986 35.0795C50.3468 36.3131 51.808 36.9141 53.682 36.9141C55.5561 36.9141 55.8737 36.6927 56.9219 36.2182H56.9537Z" fill="#7895CB"/>
</g>
<g id="Vector_3" filter="url(#filter2_d_697_1928)">
<path d="M86.6186 13.5381C83.3469 13.5381 80.7741 15.0564 78.9 18.1247V16.4166C78.9 15.6574 78.6141 14.9931 78.0742 14.4554C77.5024 13.9177 76.8671 13.6646 76.073 13.6646C75.279 13.6646 74.6437 13.9177 74.0719 14.4554C73.5002 14.9931 73.2461 15.6258 73.2461 16.4166V39.6341C73.2461 40.33 73.532 40.931 74.1037 41.4687C74.6755 42.0065 75.3425 42.2595 76.073 42.2595C76.8036 42.2595 77.4071 42.0065 77.9789 41.4687C78.5506 40.931 78.8365 40.33 78.8365 39.6341L78.9 28.7528C78.9 27.3611 79.0271 26.1907 79.2812 25.2101C79.5353 24.2295 80.0435 23.2173 80.8694 22.2368C81.4411 21.4776 82.1717 20.7501 83.0928 20.0542C83.9822 19.3583 84.7763 19.0103 85.4751 19.0103C86.1739 19.0103 86.7456 19.3267 86.7456 19.9277V20.6868C86.7456 21.446 86.968 22.1102 87.4126 22.648C87.8573 23.1857 88.5244 23.4388 89.4455 23.4388C90.3667 23.4388 90.8431 23.1857 91.3831 22.6796C91.8913 22.1735 92.1454 21.5092 92.1454 20.7501V19.042C92.1454 17.5553 91.7007 16.2584 90.8431 15.2146C89.9855 14.1391 88.5561 13.6013 86.6186 13.6013V13.5381Z" fill="#7895CB"/>
</g>
<g id="Vector_4" filter="url(#filter3_d_697_1928)">
<path d="M96.4654 17.6821V39.5711C96.4654 40.2987 96.7512 40.9313 97.2912 41.469C97.8312 42.0068 98.4982 42.2598 99.2288 42.2598C99.9593 42.2598 100.658 42.0068 101.198 41.469C101.738 40.9313 101.992 40.2987 101.992 39.5711L101.929 31.1572C101.929 29.7654 102.088 28.5317 102.405 27.3614C102.659 26.4124 103.072 25.4635 103.58 24.5145C101.929 23.4707 100.436 22.2687 99.1017 21.1932C97.9582 20.2127 97.1324 18.979 96.4336 17.6821H96.4654Z" fill="#7895CB"/>
</g>
<g id="Vector_5" filter="url(#filter4_d_697_1928)">
<path d="M129.309 32.2642V39.571C129.309 40.2986 129.563 40.9312 130.103 41.4689C130.643 42.0067 131.278 42.2597 132.072 42.2597C132.866 42.2597 133.438 42.0067 134.01 41.4689C134.581 40.9312 134.835 40.2986 134.835 39.571V37.1987C133.247 35.3008 131.405 33.6559 129.309 32.2642Z" fill="#7895CB"/>
</g>
<g id="Group">
<g id="Vector_6" filter="url(#filter5_d_697_1928)">
<path d="M113.52 39.5711C113.52 40.2987 113.806 40.9313 114.346 41.469C114.918 42.0068 115.553 42.2598 116.283 42.2598C117.014 42.2598 117.713 42.0068 118.253 41.5007C118.793 40.9946 119.047 40.3303 119.047 39.5711V28.9113C119.047 28.6583 119.047 28.4052 119.047 28.1522C117.268 27.8042 115.426 27.5828 113.488 27.5195V39.5711H113.52Z" fill="#7895CB"/>
</g>
<g id="Vector_7" filter="url(#filter6_d_697_1928)">
<path d="M134.835 37.1988V24.5462C134.835 20.9086 134.136 18.1882 132.771 16.3852C131.373 14.5822 129.499 13.6649 127.117 13.6649C123.591 13.6649 120.605 15.4996 118.128 19.1688C117.619 17.3342 116.794 15.974 115.618 15.0251C114.443 14.1078 113.077 13.6333 111.489 13.6333C107.55 13.6333 104.374 15.8791 101.992 20.4024V16.3852C101.992 15.6577 101.738 15.0251 101.198 14.4557C100.658 13.918 100.022 13.6333 99.2283 13.6333C98.4342 13.6333 97.8624 13.918 97.2907 14.4557C96.7189 14.9935 96.4648 15.6577 96.4648 16.3852V17.6505C97.1636 18.9474 97.9895 20.181 99.133 21.1616C100.467 22.2687 101.96 23.4391 103.612 24.4829C103.707 24.2931 103.834 24.0717 103.961 23.8819C104.85 22.4901 105.867 21.3198 107.074 20.3708C108.249 19.3902 109.488 18.9158 110.695 18.9158C111.902 18.9158 112.41 19.327 112.855 20.181C113.3 21.0351 113.522 22.3636 113.522 24.1982V27.5195C115.428 27.5828 117.302 27.7726 119.08 28.1522C119.176 26.6022 119.525 25.1788 120.129 23.8819C120.828 22.3636 121.749 21.1616 122.86 20.2759C123.972 19.3902 125.084 18.9474 126.196 18.9474C127.307 18.9474 128.07 19.3902 128.546 20.2759C129.054 21.1616 129.308 22.4585 129.308 24.2299V32.2959C131.405 33.6877 133.247 35.3325 134.835 37.2304V37.1988Z" fill="#A4BC92"/>
</g>
</g>
<g id="Vector_8" filter="url(#filter7_d_697_1928)">
<path d="M172.92 41.4689C172.348 40.9312 172.094 40.3302 172.094 39.6343V16.3535C172.094 15.5943 172.38 14.9301 172.951 14.3924C173.523 13.8546 174.19 13.6016 174.952 13.6016C175.715 13.6016 176.318 13.8546 176.827 14.3924C177.335 14.9301 177.589 15.5627 177.589 16.3535V20.7187C178.669 18.4096 180.035 16.6698 181.686 15.4678C183.338 14.2658 185.149 13.6648 187.086 13.6648C189.024 13.6648 190.93 14.1709 192.2 15.1515C193.471 16.1321 194.392 17.7769 194.964 20.0544C195.535 22.3319 195.821 25.4634 195.821 29.4806L195.758 39.5078C195.758 40.2353 195.504 40.8679 194.995 41.4373C194.487 42.0067 193.852 42.2597 193.089 42.2597C192.327 42.2597 191.724 41.975 191.152 41.4373C190.58 40.8996 190.326 40.2669 190.326 39.571V30.05C190.326 27.0766 190.199 24.7675 189.913 23.1543C189.659 21.5411 189.246 20.4656 188.706 19.8646C188.166 19.2636 187.436 18.9789 186.514 18.9789C185.593 18.9789 184.196 19.4534 183.052 20.434C181.909 21.4145 180.829 22.8063 179.812 24.5777C178.923 26.1593 178.319 27.6776 177.97 29.1643C177.621 30.651 177.462 32.4539 177.462 34.5416V39.3496C177.462 40.2037 177.208 40.8679 176.731 41.4057C176.255 41.9434 175.588 42.1965 174.73 42.1965C173.873 42.1965 173.364 41.9434 172.793 41.4057L172.92 41.4689Z" fill="#A4BC92"/>
</g>
<g id="Vector_9" filter="url(#filter8_d_697_1928)">
<path d="M205.509 51.686C205.001 51.1166 204.746 50.484 204.746 49.6932C204.746 48.9024 204.842 48.934 205.032 48.4912L210.051 37.7681L199.76 17.7454C199.537 17.3025 199.41 16.828 199.41 16.3536C199.41 15.5944 199.696 14.9301 200.236 14.3608C200.776 13.823 201.475 13.5384 202.269 13.5384C203.063 13.5384 203.412 13.6965 203.889 14.0445C204.365 14.3924 204.683 14.8036 204.937 15.2465L213.068 31.252L220.311 15.2465C220.533 14.7404 220.882 14.3291 221.391 13.9812C221.867 13.6333 222.407 13.4751 222.979 13.4751C223.55 13.4751 224.249 13.7281 224.757 14.2659C225.266 14.8036 225.52 15.4679 225.52 16.2587C225.52 17.0495 225.456 17.1127 225.297 17.3974L209.924 50.6421C209.702 51.1799 209.352 51.6227 208.876 51.939C208.431 52.2553 207.891 52.4135 207.319 52.4135C206.748 52.4135 206.017 52.1288 205.541 51.5911L205.509 51.686Z" fill="#A4BC92"/>
</g>
<g id="Group_2">
<g id="Group_3" filter="url(#filter9_d_697_1928)">
<path id="Vector_10" d="M158.595 36.1863C158.024 34.067 155.8 32.7701 153.64 33.3078C152.878 33.4976 152.179 33.5925 151.417 33.5292C150.686 33.5609 149.892 33.4027 149.066 33.0864C148.24 32.7385 147.51 32.3272 146.906 31.8211C146.271 31.2834 145.699 30.6508 145.286 29.8916H145.255C145.159 29.7018 145.096 29.5437 144.969 29.3855V29.259C144.842 29.1008 144.778 28.911 144.683 28.7529L144.524 28.3733L144.334 27.7407C144.334 27.6774 144.302 27.6142 144.302 27.5509L144.206 27.1713C144.175 27.0448 144.175 26.9499 144.111 26.7285C144.111 26.5387 144.079 26.3489 144.079 26.1907V25.8428C144.079 25.4948 144.079 25.1469 144.111 24.7357C144.238 23.7867 144.461 22.9011 144.873 22.0786C145.318 21.2246 145.858 20.4022 146.557 19.6746H146.589C146.62 19.6114 146.716 19.5165 146.748 19.4849C146.779 19.4532 146.811 19.4216 146.843 19.39C146.875 19.3267 146.938 19.2951 146.97 19.2634C146.97 19.2634 146.97 19.2634 146.97 19.2318C146.97 19.2318 146.97 19.2318 146.97 19.2002C146.97 19.2002 146.97 19.2002 146.97 19.1685V19.1369C147.097 19.042 147.224 18.8839 147.288 18.7573C147.351 18.5992 147.415 18.441 147.446 18.2829C147.478 17.9349 147.446 17.587 147.256 17.3023C147.256 17.3023 147.256 17.3023 147.256 17.2706C147.129 17.1441 147.002 17.0176 146.843 16.8911C146.652 16.8278 146.462 16.7645 146.271 16.7329C146.271 16.7329 146.271 16.7329 146.239 16.7329C146.239 16.7329 146.239 16.7329 146.208 16.7329C146.112 16.7329 146.017 16.7329 145.922 16.7329C145.826 16.7329 145.763 16.7329 145.668 16.7645C145.509 16.7962 145.318 16.8594 145.191 16.986C145.191 16.986 145.191 16.986 145.159 16.986C145.159 16.986 145.159 16.986 145.128 16.986C145.064 17.0176 145.001 17.0809 144.937 17.1125C144.842 17.1758 144.746 17.239 144.651 17.3023C143.571 18.0931 142.618 19.042 141.824 20.1175C141.03 21.193 140.427 22.4266 139.982 23.7867C139.791 24.4194 139.664 25.052 139.505 25.8428C139.474 26.1907 139.41 26.5387 139.41 26.9183V28.4998L139.569 29.8284V30.0498C139.696 30.3977 139.76 30.7457 139.855 31.1253C139.982 31.4732 140.109 31.8211 140.204 32.2007C140.712 33.5609 141.443 34.8261 142.364 35.9965C143.254 37.1352 144.397 38.1158 145.699 38.9699C147.065 39.8239 148.495 40.4565 149.924 40.8045C151.449 41.1841 153.037 41.3422 154.657 41.2473H154.974C155.228 41.2473 155.483 41.2157 155.737 41.1208C156.785 40.8361 157.642 40.1719 158.214 39.2862C158.786 38.3689 158.945 37.2934 158.659 36.2496L158.595 36.1863Z" fill="#A4BC92"/>
<path id="Vector_11" d="M155.293 38.2421C156.223 38.2421 156.976 37.4915 156.976 36.5656C156.976 35.6397 156.223 34.8892 155.293 34.8892C154.363 34.8892 153.609 35.6397 153.609 36.5656C153.609 37.4915 154.363 38.2421 155.293 38.2421Z" fill="white"/>
</g>
<g id="Group_4" filter="url(#filter10_d_697_1928)">
<path id="Vector_12" d="M149.351 17.3972C149.955 19.5165 152.21 20.7817 154.338 20.1807C155.1 19.9593 155.799 19.8961 156.561 19.8961C157.292 19.8328 158.086 19.991 158.912 20.2756C159.77 20.6236 160.468 21.0032 161.072 21.5093C161.707 22.047 162.279 22.6796 162.724 23.4072H162.755C162.851 23.5969 162.914 23.7551 163.041 23.9133V24.0398C163.168 24.1979 163.264 24.3877 163.327 24.5459L163.486 24.9255L163.708 25.5581C163.708 25.6214 163.74 25.6846 163.74 25.7479L163.835 26.1275C163.867 26.254 163.867 26.3489 163.931 26.5703C163.931 26.7601 163.962 26.9499 163.994 27.108V27.456C163.994 27.8039 163.994 28.1519 163.994 28.5631C163.899 29.512 163.676 30.4294 163.295 31.2518C162.882 32.1375 162.311 32.9599 161.675 33.6874H161.644C161.612 33.7823 161.517 33.8456 161.485 33.8772C161.453 33.9088 161.421 33.9405 161.389 33.9721C161.358 34.0353 161.294 34.067 161.262 34.0986C161.262 34.0986 161.262 34.0986 161.262 34.1302C161.262 34.1302 161.262 34.1302 161.262 34.1619C161.262 34.1619 161.262 34.1619 161.262 34.1935V34.2251C161.135 34.32 161.04 34.4782 160.945 34.6363C160.881 34.7945 160.818 34.9527 160.818 35.1108C160.786 35.4588 160.849 35.8067 161.04 36.0914C161.04 36.0914 161.04 36.0914 161.04 36.123C161.167 36.2496 161.294 36.3761 161.453 36.471C161.644 36.5342 161.834 36.5975 162.025 36.6291C162.025 36.6291 162.025 36.6291 162.056 36.6291C162.056 36.6291 162.056 36.6291 162.088 36.6291C162.184 36.6291 162.279 36.6291 162.374 36.6291C162.469 36.6291 162.533 36.6291 162.628 36.5975C162.787 36.5659 162.978 36.5026 163.105 36.3761C163.105 36.3761 163.105 36.3761 163.136 36.3761C163.136 36.3761 163.136 36.3761 163.168 36.3761C163.232 36.3444 163.295 36.2812 163.359 36.2496C163.422 36.1547 163.549 36.123 163.645 36.0598C164.693 35.269 165.646 34.2884 166.44 33.1813C167.234 32.1058 167.806 30.8406 168.219 29.512C168.409 28.8794 168.504 28.2468 168.663 27.456C168.695 27.108 168.727 26.7601 168.727 26.3805V24.7989L168.504 23.4704V23.249C168.377 22.9011 168.282 22.5531 168.219 22.2052C168.092 21.8572 167.965 21.5093 167.837 21.1613C167.297 19.8012 166.567 18.5359 165.614 17.3972C164.725 16.2584 163.549 15.3095 162.215 14.4554C160.849 13.6014 159.388 13.0004 157.959 12.6841C156.434 12.3045 154.846 12.178 153.194 12.3361H152.877C152.623 12.3361 152.369 12.3994 152.114 12.4627C151.098 12.7473 150.209 13.4432 149.669 14.3605C149.129 15.2779 148.97 16.385 149.288 17.3972H149.351Z" fill="#7895CB"/>
<path id="Vector_13" d="M152.656 18.6308C153.586 18.6308 154.34 17.8802 154.34 16.9543C154.34 16.0284 153.586 15.2778 152.656 15.2778C151.726 15.2778 150.973 16.0284 150.973 16.9543C150.973 17.8802 151.726 18.6308 152.656 18.6308Z" fill="white"/>
</g>
</g>
</g>
<defs>
<filter id="filter0_d_697_1928" x="-2.79297" y="-2.74219" width="48.3984" height="55.0332" filterUnits="userSpaceOnUse" color-interpolation-filters="sRGB">
<feFlood flood-opacity="0" result="BackgroundImageFix"/>
<feColorMatrix in="SourceAlpha" type="matrix" values="0 0 0 0 0 0 0 0 0 0 0 0 0 0 0 0 0 0 127 0" result="hardAlpha"/>
<feOffset dx="2" dy="2"/>
<feGaussianBlur stdDeviation="4"/>
<feColorMatrix type="matrix" values="0 0 0 0 0.2 0 0 0 0 0.196078 0 0 0 0 0.196078 0 0 0 0.2 0"/>
<feBlend mode="normal" in2="BackgroundImageFix" result="effect1_dropShadow_697_1928"/>
<feBlend mode="normal" in="SourceGraphic" in2="effect1_dropShadow_697_1928" result="shape"/>
</filter>
<filter id="filter1_d_697_1928" x="36.1836" y="7.6333" width="38.9961" height="45.1641" filterUnits="userSpaceOnUse" color-interpolation-filters="sRGB">
<feFlood flood-opacity="0" result="BackgroundImageFix"/>
<feColorMatrix in="SourceAlpha" type="matrix" values="0 0 0 0 0 0 0 0 0 0 0 0 0 0 0 0 0 0 127 0" result="hardAlpha"/>
<feOffset dx="2" dy="2"/>
<feGaussianBlur stdDeviation="4"/>
<feColorMatrix type="matrix" values="0 0 0 0 0.2 0 0 0 0 0.196078 0 0 0 0 0.196078 0 0 0 0.2 0"/>
<feBlend mode="normal" in2="BackgroundImageFix" result="effect1_dropShadow_697_1928"/>
<feBlend mode="normal" in="SourceGraphic" in2="effect1_dropShadow_697_1928" result="shape"/>
</filter>
<filter id="filter2_d_697_1928" x="67.2461" y="7.53809" width="34.8984" height="44.7212" filterUnits="userSpaceOnUse" color-interpolation-filters="sRGB">
<feFlood flood-opacity="0" result="BackgroundImageFix"/>
<feColorMatrix in="SourceAlpha" type="matrix" values="0 0 0 0 0 0 0 0 0 0 0 0 0 0 0 0 0 0 127 0" result="hardAlpha"/>
<feOffset dx="2" dy="2"/>
<feGaussianBlur stdDeviation="4"/>
<feColorMatrix type="matrix" values="0 0 0 0 0.2 0 0 0 0 0.196078 0 0 0 0 0.196078 0 0 0 0.2 0"/>
<feBlend mode="normal" in2="BackgroundImageFix" result="effect1_dropShadow_697_1928"/>
<feBlend mode="normal" in="SourceGraphic" in2="effect1_dropShadow_697_1928" result="shape"/>
</filter>
<filter id="filter3_d_697_1928" x="90.4336" y="11.6821" width="23.1484" height="40.5776" filterUnits="userSpaceOnUse" color-interpolation-filters="sRGB">
<feFlood flood-opacity="0" result="BackgroundImageFix"/>
<feColorMatrix in="SourceAlpha" type="matrix" values="0 0 0 0 0 0 0 0 0 0 0 0 0 0 0 0 0 0 127 0" result="hardAlpha"/>
<feOffset dx="2" dy="2"/>
<feGaussianBlur stdDeviation="4"/>
<feColorMatrix type="matrix" values="0 0 0 0 0.2 0 0 0 0 0.196078 0 0 0 0 0.196078 0 0 0 0.2 0"/>
<feBlend mode="normal" in2="BackgroundImageFix" result="effect1_dropShadow_697_1928"/>
<feBlend mode="normal" in="SourceGraphic" in2="effect1_dropShadow_697_1928" result="shape"/>
</filter>
<filter id="filter4_d_697_1928" x="123.309" y="26.2642" width="21.5273" height="25.9956" filterUnits="userSpaceOnUse" color-interpolation-filters="sRGB">
<feFlood flood-opacity="0" result="BackgroundImageFix"/>
<feColorMatrix in="SourceAlpha" type="matrix" values="0 0 0 0 0 0 0 0 0 0 0 0 0 0 0 0 0 0 127 0" result="hardAlpha"/>
<feOffset dx="2" dy="2"/>
<feGaussianBlur stdDeviation="4"/>
<feColorMatrix type="matrix" values="0 0 0 0 0.2 0 0 0 0 0.196078 0 0 0 0 0.196078 0 0 0 0.2 0"/>
<feBlend mode="normal" in2="BackgroundImageFix" result="effect1_dropShadow_697_1928"/>
<feBlend mode="normal" in="SourceGraphic" in2="effect1_dropShadow_697_1928" result="shape"/>
</filter>
<filter id="filter5_d_697_1928" x="107.488" y="21.5195" width="21.5586" height="30.7402" filterUnits="userSpaceOnUse" color-interpolation-filters="sRGB">
<feFlood flood-opacity="0" result="BackgroundImageFix"/>
<feColorMatrix in="SourceAlpha" type="matrix" values="0 0 0 0 0 0 0 0 0 0 0 0 0 0 0 0 0 0 127 0" result="hardAlpha"/>
<feOffset dx="2" dy="2"/>
<feGaussianBlur stdDeviation="4"/>
<feColorMatrix type="matrix" values="0 0 0 0 0.2 0 0 0 0 0.196078 0 0 0 0 0.196078 0 0 0 0.2 0"/>
<feBlend mode="normal" in2="BackgroundImageFix" result="effect1_dropShadow_697_1928"/>
<feBlend mode="normal" in="SourceGraphic" in2="effect1_dropShadow_697_1928" result="shape"/>
</filter>
<filter id="filter6_d_697_1928" x="90.4648" y="7.6333" width="54.3711" height="39.5972" filterUnits="userSpaceOnUse" color-interpolation-filters="sRGB">
<feFlood flood-opacity="0" result="BackgroundImageFix"/>
<feColorMatrix in="SourceAlpha" type="matrix" values="0 0 0 0 0 0 0 0 0 0 0 0 0 0 0 0 0 0 127 0" result="hardAlpha"/>
<feOffset dx="2" dy="2"/>
<feGaussianBlur stdDeviation="4"/>
<feColorMatrix type="matrix" values="0 0 0 0 0.2 0 0 0 0 0.196078 0 0 0 0 0.196078 0 0 0 0.2 0"/>
<feBlend mode="normal" in2="BackgroundImageFix" result="effect1_dropShadow_697_1928"/>
<feBlend mode="normal" in="SourceGraphic" in2="effect1_dropShadow_697_1928" result="shape"/>
</filter>
<filter id="filter7_d_697_1928" x="166.094" y="7.60156" width="39.7266" height="44.6582" filterUnits="userSpaceOnUse" color-interpolation-filters="sRGB">
<feFlood flood-opacity="0" result="BackgroundImageFix"/>
<feColorMatrix in="SourceAlpha" type="matrix" values="0 0 0 0 0 0 0 0 0 0 0 0 0 0 0 0 0 0 127 0" result="hardAlpha"/>
<feOffset dx="2" dy="2"/>
<feGaussianBlur stdDeviation="4"/>
<feColorMatrix type="matrix" values="0 0 0 0 0.2 0 0 0 0 0.196078 0 0 0 0 0.196078 0 0 0 0.2 0"/>
<feBlend mode="normal" in2="BackgroundImageFix" result="effect1_dropShadow_697_1928"/>
<feBlend mode="normal" in="SourceGraphic" in2="effect1_dropShadow_697_1928" result="shape"/>
</filter>
<filter id="filter8_d_697_1928" x="193.41" y="7.4751" width="42.1094" height="54.9385" filterUnits="userSpaceOnUse" color-interpolation-filters="sRGB">
<feFlood flood-opacity="0" result="BackgroundImageFix"/>
<feColorMatrix in="SourceAlpha" type="matrix" values="0 0 0 0 0 0 0 0 0 0 0 0 0 0 0 0 0 0 127 0" result="hardAlpha"/>
<feOffset dx="2" dy="2"/>
<feGaussianBlur stdDeviation="4"/>
<feColorMatrix type="matrix" values="0 0 0 0 0.2 0 0 0 0 0.196078 0 0 0 0 0.196078 0 0 0 0.2 0"/>
<feBlend mode="normal" in2="BackgroundImageFix" result="effect1_dropShadow_697_1928"/>
<feBlend mode="normal" in="SourceGraphic" in2="effect1_dropShadow_697_1928" result="shape"/>
</filter>
<filter id="filter9_d_697_1928" x="134.41" y="11.7329" width="31.3867" height="36.5415" filterUnits="userSpaceOnUse" color-interpolation-filters="sRGB">
<feFlood flood-opacity="0" result="BackgroundImageFix"/>
<feColorMatrix in="SourceAlpha" type="matrix" values="0 0 0 0 0 0 0 0 0 0 0 0 0 0 0 0 0 0 127 0" result="hardAlpha"/>
<feOffset dx="1" dy="1"/>
<feGaussianBlur stdDeviation="3"/>
<feColorMatrix type="matrix" values="0 0 0 0 0.188235 0 0 0 0 0.188235 0 0 0 0 0.188235 0 0 0 0.5 0"/>
<feBlend mode="normal" in2="BackgroundImageFix" result="effect1_dropShadow_697_1928"/>
<feBlend mode="normal" in="SourceGraphic" in2="effect1_dropShadow_697_1928" result="shape"/>
</filter>
<filter id="filter10_d_697_1928" x="144.125" y="7.26953" width="31.6016" height="36.3594" filterUnits="userSpaceOnUse" color-interpolation-filters="sRGB">
<feFlood flood-opacity="0" result="BackgroundImageFix"/>
<feColorMatrix in="SourceAlpha" type="matrix" values="0 0 0 0 0 0 0 0 0 0 0 0 0 0 0 0 0 0 127 0" result="hardAlpha"/>
<feOffset dx="1" dy="1"/>
<feGaussianBlur stdDeviation="3"/>
<feColorMatrix type="matrix" values="0 0 0 0 0.188235 0 0 0 0 0.188235 0 0 0 0 0.188235 0 0 0 0.5 0"/>
<feBlend mode="normal" in2="BackgroundImageFix" result="effect1_dropShadow_697_1928"/>
<feBlend mode="normal" in="SourceGraphic" in2="effect1_dropShadow_697_1928" result="shape"/>
</filter>
<clipPath id="clip0_697_1928">
<rect width="230" height="57" fill="white"/>
</clipPath>
</defs>
</svg>
