<svg width="340" height="350" viewBox="0 0 350 381" fill="none" xmlns="http://www.w3.org/2000/svg">
<g filter="url(#filter0_d_235_973)">
<path d="M124.578 9.95618C109.187 8.567 96.0897 4.87931 80.7047 6.33365C69.0911 7.43148 62.4321 10.512 52.9177 17.2009C31.9394 31.9492 41.3141 55.946 27.3245 77.333C18.4953 90.8309 0.999835 93.1255 1 109.21C1.00023 131.483 21.0425 182.712 27.3236 230.923C33.4358 277.837 10.7121 338.927 33.1757 351.912C64.3727 369.944 89.7176 365.956 125.311 359.881C170.141 352.23 244.175 379.677 264.976 339.596C285.338 300.361 257.131 100.398 234.995 62.1188C219.13 34.6829 217.291 23.4298 186.002 17.2007C163.764 12.7736 147.167 11.995 124.578 9.95618Z" fill="#2F345A"/>
<path d="M124.578 9.95618C109.187 8.567 96.0897 4.87931 80.7047 6.33365C69.0911 7.43148 62.4321 10.512 52.9177 17.2009C31.9394 31.9492 41.3141 55.946 27.3245 77.333C18.4953 90.8309 0.999835 93.1255 1 109.21C1.00023 131.483 21.0425 182.712 27.3236 230.923C33.4358 277.837 10.7121 338.927 33.1757 351.912C64.3727 369.944 89.7176 365.956 125.311 359.881C170.141 352.23 244.175 379.677 264.976 339.596C285.338 300.361 257.131 100.398 234.995 62.1188C219.13 34.6829 217.291 23.4298 186.002 17.2007C163.764 12.7736 147.167 11.995 124.578 9.95618Z" stroke="white" stroke-width="0.2" stroke-linecap="round"/>
</g>
<defs>
<filter id="filter0_d_235_973" x="0.898438" y="0.899902" width="296.203" height="379.2" filterUnits="userSpaceOnUse" color-interpolation-filters="sRGB">
<feFlood flood-opacity="0" result="BackgroundImageFix"/>
<feColorMatrix in="SourceAlpha" type="matrix" values="0 0 0 0 0 0 0 0 0 0 0 0 0 0 0 0 0 0 127 0" result="hardAlpha"/>
<feOffset dx="15" dy="5"/>
<feGaussianBlur stdDeviation="5"/>
<feComposite in2="hardAlpha" operator="out"/>
<feColorMatrix type="matrix" values="0 0 0 0 0 0 0 0 0 0 0 0 0 0 0 0 0 0 0.25 0"/>
<feBlend mode="normal" in2="BackgroundImageFix" result="effect1_dropShadow_235_973"/>
<feBlend mode="normal" in="SourceGraphic" in2="effect1_dropShadow_235_973" result="shape"/>
</filter>
</defs>
</svg>
