<svg width="600" height="813" viewBox="0 0 600 813" fill="none" xmlns="http://www.w3.org/2000/svg">
<g filter="url(#filter0_d_235_967)">
<path d="M309.5 340.5L336.5 230L248.362 76.5L53 35.5H25L1 -1H360.286L445.195 167.297L549.4 447.282L631 803L377.5 825.5L389.5 705H231.822L248.362 554L296.5 488.5L277 395L309.5 340.5Z" fill="#2E3357"/>
<path d="M309.5 340.5L336.5 230L248.362 76.5L53 35.5H25L1 -1H360.286L445.195 167.297L549.4 447.282L631 803L377.5 825.5L389.5 705H231.822L248.362 554L296.5 488.5L277 395L309.5 340.5Z" stroke="white" stroke-width="0.2" stroke-linecap="round"/>
</g>
<defs>
<filter id="filter0_d_235_967" x="0.816406" y="-6.1001" width="655.309" height="846.71" filterUnits="userSpaceOnUse" color-interpolation-filters="sRGB">
<feFlood flood-opacity="0" result="BackgroundImageFix"/>
<feColorMatrix in="SourceAlpha" type="matrix" values="0 0 0 0 0 0 0 0 0 0 0 0 0 0 0 0 0 0 127 0" result="hardAlpha"/>
<feOffset dx="15" dy="5"/>
<feGaussianBlur stdDeviation="5"/>
<feComposite in2="hardAlpha" operator="out"/>
<feColorMatrix type="matrix" values="0 0 0 0 0 0 0 0 0 0 0 0 0 0 0 0 0 0 0.25 0"/>
<feBlend mode="normal" in2="BackgroundImageFix" result="effect1_dropShadow_235_967"/>
<feBlend mode="normal" in="SourceGraphic" in2="effect1_dropShadow_235_967" result="shape"/>
</filter>
</defs>
</svg>
