<svg width="1011" height="1348" viewBox="0 0 1011 1348" fill="none" xmlns="http://www.w3.org/2000/svg">
<path d="M233.499 37.5002C233.499 37.5002 175.983 47.5755 176.999 25.0002C177.932 4.27826 205.419 7.09338 225.999 4.50016C250.505 1.41226 271.209 -1.11468 287.999 17.0002C315.861 47.0587 229.792 44.3095 195.999 67.5002C134.979 109.375 103.366 139.974 61.4993 201C-4.46307 297.149 -20.2546 381.925 36.9996 483.5C89.756 577.096 129.314 546.753 233.499 573C507.803 642.106 776.847 389.911 957 608C1018.81 682.831 966.301 672.5 984.5 766.5C1060.99 1161.62 242.955 646.237 36.9993 992C-10.5786 1071.87 54.4203 1095.8 61.4993 1188.5C78.2199 1407.46 295.173 1210.18 512.999 1238C691.333 1260.78 886.91 1137.81 969.5 1297.5C969.5 1297.5 983.174 1339.63 969.5 1345C955.5 1350.5 923.781 1335.15 926.663 1319C930.5 1297.5 958.163 1340.38 958.163 1313.5C958.163 1273 1009.5 1328.5 1009.5 1328.5" stroke="white" stroke-width="3" stroke-dasharray="15 15"/>
</svg>
