<svg width="730" height="575" viewBox="0 0 730 575" fill="none" xmlns="http://www.w3.org/2000/svg">
<g filter="url(#filter0_d_235_966)">
<path d="M692.5 52L778.5 0H1L35 106.5L95 198.993L104.988 442.596L176.403 606C176.403 606 333.378 598.213 330.719 531.315C329.899 510.664 313.74 481.191 313.74 481.191L330.719 383.95L313.74 245.5L345 198.993L382.158 84.2084L488.5 63L692.5 52Z" fill="#2E3357"/>
<path d="M692.5 52L778.5 0H1L35 106.5L95 198.993L104.988 442.596L176.403 606C176.403 606 333.378 598.213 330.719 531.315C329.899 510.664 313.74 481.191 313.74 481.191L330.719 383.95L313.74 245.5L345 198.993L382.158 84.2084L488.5 63L692.5 52Z" stroke="white" stroke-width="0.2" stroke-linecap="round"/>
</g>
<defs>
<filter id="filter0_d_235_966" x="0.863281" y="-5.1001" width="802.996" height="626.203" filterUnits="userSpaceOnUse" color-interpolation-filters="sRGB">
<feFlood flood-opacity="0" result="BackgroundImageFix"/>
<feColorMatrix in="SourceAlpha" type="matrix" values="0 0 0 0 0 0 0 0 0 0 0 0 0 0 0 0 0 0 127 0" result="hardAlpha"/>
<feOffset dx="15" dy="5"/>
<feGaussianBlur stdDeviation="5"/>
<feComposite in2="hardAlpha" operator="out"/>
<feColorMatrix type="matrix" values="0 0 0 0 0 0 0 0 0 0 0 0 0 0 0 0 0 0 0.25 0"/>
<feBlend mode="normal" in2="BackgroundImageFix" result="effect1_dropShadow_235_966"/>
<feBlend mode="normal" in="SourceGraphic" in2="effect1_dropShadow_235_966" result="shape"/>
</filter>
</defs>
</svg>
