<svg width="543" height="367" viewBox="0 0 543 367" fill="none" xmlns="http://www.w3.org/2000/svg">
<g filter="url(#filter0_di_235_976)">
<path d="M331.5 49.469L509.5 24L522.5 0H1L23.821 62.5644L64.0934 116.9L70.7975 260.007L118.732 356C118.732 356 224.094 351.426 222.31 312.126C221.759 299.994 210.913 282.68 210.913 282.68L222.31 225.555V167.547L295 126L331.5 49.469Z" fill="#232852"/>
<path d="M331.5 49.469L509.5 24L522.5 0H1L23.821 62.5644L64.0934 116.9L70.7975 260.007L118.732 356C118.732 356 224.094 351.426 222.31 312.126C221.759 299.994 210.913 282.68 210.913 282.68L222.31 225.555V167.547L295 126L331.5 49.469Z" stroke="white" stroke-width="0.2" stroke-linecap="round"/>
</g>
<defs>
<filter id="filter0_di_235_976" x="0.855469" y="-0.100098" width="541.812" height="366.203" filterUnits="userSpaceOnUse" color-interpolation-filters="sRGB">
<feFlood flood-opacity="0" result="BackgroundImageFix"/>
<feColorMatrix in="SourceAlpha" type="matrix" values="0 0 0 0 0 0 0 0 0 0 0 0 0 0 0 0 0 0 127 0" result="hardAlpha"/>
<feOffset dx="15" dy="5"/>
<feGaussianBlur stdDeviation="2.5"/>
<feComposite in2="hardAlpha" operator="out"/>
<feColorMatrix type="matrix" values="0 0 0 0 0 0 0 0 0 0 0 0 0 0 0 0 0 0 0.25 0"/>
<feBlend mode="normal" in2="BackgroundImageFix" result="effect1_dropShadow_235_976"/>
<feBlend mode="normal" in="SourceGraphic" in2="effect1_dropShadow_235_976" result="shape"/>
<feColorMatrix in="SourceAlpha" type="matrix" values="0 0 0 0 0 0 0 0 0 0 0 0 0 0 0 0 0 0 127 0" result="hardAlpha"/>
<feOffset dy="4"/>
<feGaussianBlur stdDeviation="2"/>
<feComposite in2="hardAlpha" operator="arithmetic" k2="-1" k3="1"/>
<feColorMatrix type="matrix" values="0 0 0 0 0.996078 0 0 0 0 0.764706 0 0 0 0 0.309804 0 0 0 0.15 0"/>
<feBlend mode="normal" in2="shape" result="effect2_innerShadow_235_976"/>
</filter>
</defs>
</svg>
