<svg width="27" height="27" viewBox="0 0 27 27" fill="none" xmlns="http://www.w3.org/2000/svg">
<path d="M17.4611 14.2877C17.4611 15.2051 16.7843 15.9571 15.927 15.9571C15.0848 15.9571 14.393 15.2051 14.393 14.2877C14.393 13.3703 15.0698 12.6183 15.927 12.6183C16.7843 12.6183 17.4611 13.3703 17.4611 14.2877ZM10.4375 12.6183C9.58028 12.6183 8.90349 13.3703 8.90349 14.2877C8.90349 15.2051 9.59532 15.9571 10.4375 15.9571C11.2948 15.9571 11.9716 15.2051 11.9716 14.2877C11.9866 13.3703 11.2948 12.6183 10.4375 12.6183ZM26.3194 3.09817L26.1764 21.6671C26.1557 24.3588 23.9678 26.53 21.2759 26.53V26.53H20.1381H3.08313C1.38365 26.53 0 25.1463 0 23.4318V3.09817C0 1.38365 1.38365 0 3.08313 0H23.2363C24.9358 0 26.3194 1.38365 26.3194 3.09817ZM20.6709 18.6764C21.7178 17.9912 22.0638 16.6918 21.925 15.4483C21.6674 13.1409 21.0017 11.1756 20.4967 9.94755C20.1204 9.03249 19.4772 8.24063 18.5924 7.79778C17.1787 7.09017 16.0027 7.01616 15.7109 7.00907C15.6657 7.00798 15.6243 7.02787 15.5945 7.06189V7.06189C15.5176 7.14978 15.5569 7.28787 15.668 7.32394C15.8174 7.37246 15.9619 7.42208 16.1014 7.47247C16.6054 7.65453 16.4089 8.04129 15.8855 7.92618C13.1905 7.33344 10.384 7.64987 7.94095 8.72302V8.72302C7.80283 8.78648 7.71886 8.65416 7.84706 8.57248C8.46416 8.17929 9.44993 7.65896 10.8346 7.24052C10.9163 7.21582 10.9478 7.11543 10.8931 7.04985V7.04985C10.8712 7.02357 10.8392 7.00811 10.805 7.00873C10.5407 7.01357 9.33247 7.07735 7.87841 7.81241C7.01446 8.24915 6.38503 9.02319 6.01542 9.91792C5.50676 11.1492 4.82871 13.1394 4.5716 15.4786C4.43702 16.703 4.77382 17.9819 5.80002 18.6631C6.46337 19.1034 7.3972 19.5111 8.65165 19.6184C8.90407 19.64 9.14802 19.5274 9.308 19.331C9.38729 19.2336 9.48018 19.1192 9.57933 18.9965C9.812 18.7084 9.67548 18.2767 9.33741 18.1256C8.67122 17.828 8.20207 17.4639 7.89573 17.1683C7.77625 17.0529 7.9081 16.9027 8.04623 16.9948V16.9948C10.5848 18.4164 14.1906 18.8822 17.431 17.5212V17.5212C17.8679 17.359 18.1117 17.6755 17.7052 17.9035C17.5574 17.9863 17.3972 18.0669 17.2238 18.143C16.8602 18.3026 16.7102 18.7659 16.9615 19.0734C17.043 19.1731 17.119 19.2655 17.185 19.3455C17.3399 19.5332 17.5743 19.64 17.8168 19.6198C19.0674 19.5157 20.0029 19.1135 20.6709 18.6764Z" fill="white"/>
</svg>
