<svg width="9" height="10" viewBox="0 0 9 10" fill="none" xmlns="http://www.w3.org/2000/svg">
<path d="M4.5 0.859863C2.01471 0.859863 0 2.87458 0 5.35986C0 7.84515 2.01471 9.85986 4.5 9.85986C6.98529 9.85986 9 7.84515 9 5.35986C9 2.87458 6.98529 0.859863 4.5 0.859863ZM4.5 8.9889C2.49438 8.9889 0.870968 7.36579 0.870968 5.35986C0.870968 3.35426 2.49407 1.73083 4.5 1.73083C6.50562 1.73083 8.12903 3.35393 8.12903 5.35986C8.12903 7.36548 6.50593 8.9889 4.5 8.9889ZM6.4479 7.15507C6.27345 7.3313 5.62175 7.90621 4.55963 7.90621C3.06392 7.90621 2.01052 6.79164 2.01052 5.33745C2.01052 3.90123 3.10422 2.808 4.54652 2.808C5.55414 2.808 6.15669 3.29102 6.31736 3.43907C6.35512 3.47379 6.37936 3.52076 6.38579 3.57165C6.39222 3.62254 6.38042 3.67407 6.35249 3.71709L6.02307 4.22721C5.95337 4.33517 5.80594 4.35934 5.70555 4.28021C5.54959 4.15726 5.12828 3.87125 4.58584 3.87125C3.70938 3.87125 3.17205 4.51232 3.17205 5.32435C3.17205 6.07899 3.65993 6.84296 4.5924 6.84296C5.18496 6.84296 5.62382 6.49749 5.785 6.34896C5.88063 6.26082 6.03171 6.27567 6.10835 6.38049L6.4688 6.8735C6.49953 6.91519 6.51431 6.9665 6.51048 7.01815C6.50665 7.0698 6.48445 7.11837 6.4479 7.15507Z" fill="#B2BED6"/>
</svg>
