<svg width="27" height="20" viewBox="0 0 27 20" fill="none" xmlns="http://www.w3.org/2000/svg">
<path d="M26.0306 6.57114C26.2327 6.41049 26.5333 6.56078 26.5333 6.81471V17.4125C26.5333 18.7858 25.4191 19.9 24.0458 19.9H2.4875C1.11419 19.9 0 18.7858 0 17.4125V6.81989C0 6.56078 0.295391 6.41567 0.502682 6.57632C1.66351 7.47804 3.20266 8.62333 8.48859 12.4634C9.58205 13.2615 11.4269 14.9405 13.2667 14.9302C15.1167 14.9457 16.9979 13.2304 18.0499 12.4634C23.3358 8.62333 24.8698 7.47286 26.0306 6.57114ZM13.2667 13.2667C14.469 13.2874 16.1998 11.7534 17.0705 11.1212C23.9474 6.13065 24.4708 5.69534 26.0566 4.45159C26.3571 4.21838 26.5333 3.85562 26.5333 3.47213V2.4875C26.5333 1.11419 25.4191 0 24.0458 0H2.4875C1.11419 0 0 1.11419 0 2.4875V3.47213C0 3.85562 0.176198 4.2132 0.476771 4.45159C2.06255 5.69015 2.58596 6.13065 9.46286 11.1212C10.3335 11.7534 12.0644 13.2874 13.2667 13.2667Z" fill="white"/>
</svg>
