<svg width="29" height="42" viewBox="0 0 29 42" fill="none" xmlns="http://www.w3.org/2000/svg">
<path d="M14.275 0C7.81659 0 3.63346 2.62367 0.349283 7.30276C-0.246479 8.15157 -0.0628069 9.31534 0.768251 9.94015L4.25868 12.5643C5.09799 13.1953 6.29218 13.0478 6.94928 12.2315C8.97607 9.71391 10.4795 8.26437 13.6454 8.26437C16.1346 8.26437 19.2135 9.85278 19.2135 12.2461C19.2135 14.0554 17.7072 14.9846 15.2493 16.3509C12.3832 17.9442 8.59028 19.9271 8.59028 24.8874V25.6727C8.59028 26.7361 9.45969 27.5982 10.5322 27.5982H16.396C17.4685 27.5982 18.3379 26.7361 18.3379 25.6727V25.2096C18.3379 21.771 28.4738 21.6278 28.4738 12.3229C28.4738 5.31553 21.143 0 14.275 0ZM13.4642 29.9616C10.3736 29.9616 7.85923 32.4546 7.85923 35.519C7.85923 38.5833 10.3736 41.0763 13.4642 41.0763C16.5547 41.0763 19.0691 38.5833 19.0691 35.5189C19.0691 32.4546 16.5547 29.9616 13.4642 29.9616Z" fill="#BDC4FF"/>
</svg>
