<svg width="27" height="27" viewBox="0 0 27 27" fill="none" xmlns="http://www.w3.org/2000/svg">
<path d="M23.6905 0H2.84286C1.27336 0 0 1.27336 0 2.84286V23.6905C0 25.26 1.27336 26.5333 2.84286 26.5333H23.6905C25.26 26.5333 26.5333 25.26 26.5333 23.6905V2.84286C26.5333 1.27336 25.26 0 23.6905 0ZM20.7943 9.40512C20.8062 9.57095 20.8062 9.7427 20.8062 9.90854C20.8062 15.0434 16.8972 20.9601 9.75455 20.9601C7.55134 20.9601 5.50803 20.3205 3.79047 19.2189C4.10437 19.2544 4.40643 19.2663 4.72625 19.2663C6.54449 19.2663 8.21467 18.6503 9.54726 17.6079C7.84154 17.5724 6.40827 16.453 5.91669 14.9131C6.51488 15.002 7.05384 15.002 7.66979 14.8421C5.893 14.4808 4.56041 12.9172 4.56041 11.0279V10.9805C5.07568 11.2707 5.67979 11.4484 6.31351 11.4721C5.78073 11.1177 5.34397 10.6369 5.0422 10.0727C4.74044 9.50843 4.58306 8.87824 4.58411 8.23836C4.58411 7.5158 4.77363 6.85247 5.11122 6.27797C7.02422 8.63518 9.89669 10.1751 13.1186 10.3409C12.5678 7.70532 14.54 5.56726 16.9091 5.56726C18.0284 5.56726 19.0353 6.03515 19.746 6.79324C20.6226 6.62741 21.4636 6.30166 22.2098 5.85747C21.9196 6.75771 21.3096 7.5158 20.5041 7.99553C21.2859 7.91262 22.044 7.69348 22.7428 7.39143C22.2157 8.16729 21.5524 8.85431 20.7943 9.40512Z" fill="white"/>
</svg>
