<svg width="27" height="27" viewBox="0 0 27 27" fill="none" xmlns="http://www.w3.org/2000/svg">
<path d="M23.6905 0H2.84286C2.08888 0 1.36579 0.299514 0.832653 0.832653C0.299514 1.36579 0 2.08888 0 2.84286L0 23.6905C0 24.4444 0.299514 25.1675 0.832653 25.7007C1.36579 26.2338 2.08888 26.5333 2.84286 26.5333H10.9716V17.5126H7.2404V13.2667H10.9716V10.0305C10.9716 6.34964 13.163 4.3164 16.5194 4.3164C18.1268 4.3164 19.8076 4.60306 19.8076 4.60306V8.21585H17.9556C16.1308 8.21585 15.5617 9.34826 15.5617 10.5097V13.2667H19.6353L18.9838 17.5126H15.5617V26.5333H23.6905C24.4444 26.5333 25.1675 26.2338 25.7007 25.7007C26.2338 25.1675 26.5333 24.4444 26.5333 23.6905V2.84286C26.5333 2.08888 26.2338 1.36579 25.7007 0.832653C25.1675 0.299514 24.4444 0 23.6905 0Z" fill="white"/>
</svg>
