<svg width="27" height="27" viewBox="0 0 27 27" fill="none" xmlns="http://www.w3.org/2000/svg">
<path d="M13.2696 6.46241C9.50494 6.46241 6.46833 9.49902 6.46833 13.2637C6.46833 17.0284 9.50494 20.065 13.2696 20.065C17.0343 20.065 20.0709 17.0284 20.0709 13.2637C20.0709 9.49902 17.0343 6.46241 13.2696 6.46241ZM13.2696 17.6854C10.8368 17.6854 8.84789 15.7025 8.84789 13.2637C8.84789 10.8249 10.8309 8.84197 13.2696 8.84197C15.7084 8.84197 17.6913 10.8249 17.6913 13.2637C17.6913 15.7025 15.7025 17.6854 13.2696 17.6854ZM21.9355 6.1842C21.9355 7.06618 21.2252 7.77058 20.3491 7.77058C19.4671 7.77058 18.7627 7.06026 18.7627 6.1842C18.7627 5.30814 19.4731 4.59783 20.3491 4.59783C21.2252 4.59783 21.9355 5.30814 21.9355 6.1842ZM26.4401 7.79426C26.3395 5.66922 25.8541 3.78688 24.2973 2.23602C22.7464 0.68516 20.8641 0.199777 18.7391 0.0932292C16.5489 -0.0310764 9.9844 -0.0310764 7.79426 0.0932292C5.67514 0.193858 3.7928 0.679241 2.23602 2.2301C0.679241 3.78096 0.199777 5.6633 0.0932292 7.78834C-0.0310764 9.97848 -0.0310764 16.543 0.0932292 18.7331C0.193858 20.8582 0.679241 22.7405 2.23602 24.2914C3.7928 25.8422 5.66922 26.3276 7.79426 26.4342C9.9844 26.5585 16.5489 26.5585 18.7391 26.4342C20.8641 26.3335 22.7464 25.8482 24.2973 24.2914C25.8482 22.7405 26.3335 20.8582 26.4401 18.7331C26.5644 16.543 26.5644 9.9844 26.4401 7.79426ZM23.6107 21.0831C23.149 22.2433 22.2551 23.1371 21.089 23.6047C19.3428 24.2973 15.1993 24.1375 13.2696 24.1375C11.3399 24.1375 7.19049 24.2914 5.45021 23.6047C4.29002 23.143 3.39621 22.2492 2.92858 21.0831C2.23602 19.3369 2.39584 15.1934 2.39584 13.2637C2.39584 11.334 2.24194 7.18457 2.92858 5.44429C3.39029 4.2841 4.2841 3.39029 5.45021 2.92266C7.19641 2.2301 11.3399 2.38992 13.2696 2.38992C15.1993 2.38992 19.3488 2.23602 21.089 2.92266C22.2492 3.38437 23.143 4.27818 23.6107 5.44429C24.3032 7.19049 24.1434 11.334 24.1434 13.2637C24.1434 15.1934 24.3032 19.3428 23.6107 21.0831Z" fill="white"/>
</svg>
